<?xml version="1.0" encoding="UTF-8"?>
<svg width="360px" height="312px" viewBox="0 0 360 312" version="1.1" xmlns="http://www.w3.org/2000/svg" xmlns:xlink="http://www.w3.org/1999/xlink">
    <!-- Generator: Sketch 51.2 (57519) - http://www.bohemiancoding.com/sketch -->
    <title>barbed-wire</title>
    <desc>Created with Sketch.</desc>
    <defs>
        <polygon id="path-1" points="0 0 360 0 360 311.94 0 311.94"></polygon>
    </defs>
    <g id="barbed-wire" stroke="none" stroke-width="1" fill="none" fill-rule="evenodd">
        <mask id="mask-2" fill="white">
            <use xlink:href="#path-1"></use>
        </mask>
        <g id="Clip-2"></g>
        <path d="M334.242,1.758 C331.898,-0.586 328.102,-0.586 325.758,1.758 L301.758,25.758 C300.633,26.883 300,28.41 300,30 L300,66 L266.484,66 L274.242,58.242 L265.758,49.758 L252,63.516 L238.242,49.758 L229.758,58.242 L237.516,66 L194.484,66 L202.242,58.242 L193.758,49.758 L180,63.516 L166.242,49.758 L157.758,58.242 L165.516,66 L122.484,66 L130.242,58.242 L121.758,49.758 L108,63.516 L94.242,49.758 L85.758,58.242 L93.516,66 L60,66 L60,30 C60,28.41 59.367,26.883 58.242,25.758 L34.242,1.758 C31.898,-0.586 28.102,-0.586 25.758,1.758 L1.758,25.758 C0.633,26.883 0,28.41 0,30 L0,306 C0,309.312 2.688,312 6,312 L54,312 C57.312,312 60,309.312 60,306 L60,258 L129.516,258 L121.758,265.758 L130.242,274.242 L144,260.484 L157.758,274.242 L166.242,265.758 L158.484,258 L201.516,258 L193.758,265.758 L202.242,274.242 L216,260.484 L229.758,274.242 L238.242,265.758 L230.484,258 L300,258 L300,306 C300,309.312 302.688,312 306,312 L354,312 C357.312,312 360,309.312 360,306 L360,30 C360,28.41 359.367,26.883 358.242,25.758 L334.242,1.758 Z M265.758,169.758 L252,183.516 L238.242,169.758 L229.758,178.242 L237.516,186 L194.484,186 L202.242,178.242 L193.758,169.758 L180,183.516 L166.242,169.758 L157.758,178.242 L165.516,186 L122.484,186 L130.242,178.242 L121.758,169.758 L108,183.516 L94.242,169.758 L85.758,178.242 L93.516,186 L60,186 L60,138 L129.516,138 L121.758,145.758 L130.242,154.242 L144,140.484 L157.758,154.242 L166.242,145.758 L158.484,138 L201.516,138 L193.758,145.758 L202.242,154.242 L216,140.484 L229.758,154.242 L238.242,145.758 L230.484,138 L300,138 L300,186 L266.484,186 L274.242,178.242 L265.758,169.758 Z M93.516,78 L85.758,85.758 L94.242,94.242 L108,80.484 L121.758,94.242 L130.242,85.758 L122.484,78 L165.516,78 L157.758,85.758 L166.242,94.242 L180,80.484 L193.758,94.242 L202.242,85.758 L194.484,78 L237.516,78 L229.758,85.758 L238.242,94.242 L252,80.484 L265.758,94.242 L274.242,85.758 L266.484,78 L300,78 L300,126 L230.484,126 L238.242,118.242 L229.758,109.758 L216,123.516 L202.242,109.758 L193.758,118.242 L201.516,126 L158.484,126 L166.242,118.242 L157.758,109.758 L144,123.516 L130.242,109.758 L121.758,118.242 L129.516,126 L60,126 L60,78 L93.516,78 Z M12,300 L12,234 L24,234 L24,222 L12,222 L12,174 L36,174 L36,162 L12,162 L12,114 L24,114 L24,102 L12,102 L12,54 L36,54 L36,42 L12,42 L12,32.484 L30,14.484 L48,32.484 L48,66 L36,66 L36,78 L48,78 L48,126 L36,126 L36,138 L48,138 L48,198 L24,198 L24,210 L48,210 L48,258 L24,258 L24,270 L48,270 L48,300 L12,300 Z M230.484,246 L238.242,238.242 L229.758,229.758 L216,243.516 L202.242,229.758 L193.758,238.242 L201.516,246 L158.484,246 L166.242,238.242 L157.758,229.758 L144,243.516 L130.242,229.758 L121.758,238.242 L129.516,246 L60,246 L60,198 L93.516,198 L85.758,205.758 L94.242,214.242 L108,200.484 L121.758,214.242 L130.242,205.758 L122.484,198 L165.516,198 L157.758,205.758 L166.242,214.242 L180,200.484 L193.758,214.242 L202.242,205.758 L194.484,198 L237.516,198 L229.758,205.758 L238.242,214.242 L252,200.484 L265.758,214.242 L274.242,205.758 L266.484,198 L300,198 L300,246 L230.484,246 Z M312,300 L312,288 L336,288 L336,276 L312,276 L312,228 L336,228 L336,216 L312,216 L312,156 L324,156 L324,144 L312,144 L312,96 L324,96 L324,84 L312,84 L312,32.484 L330,14.484 L348,32.484 L348,60 L324,60 L324,72 L348,72 L348,120 L336,120 L336,132 L348,132 L348,180 L324,180 L324,192 L348,192 L348,240 L336,240 L336,252 L348,252 L348,300 L312,300 Z" id="Fill-1" fill="#000000" mask="url(#mask-2)"></path>
    </g>
</svg>