<?xml version="1.0" encoding="UTF-8"?>
<svg width="16px" height="8px" viewBox="0 0 16 8" version="1.1" xmlns="http://www.w3.org/2000/svg" xmlns:xlink="http://www.w3.org/1999/xlink">
    <!-- Generator: Sketch 51.2 (57519) - http://www.bohemiancoding.com/sketch -->
    <title>bridge</title>
    <desc>Created with Sketch.</desc>
    <defs>
        <polygon id="path-1" points="0.06 0.754 15.906 0.754 15.906 7 0.06 7"></polygon>
    </defs>
    <g id="bridge" stroke="none" stroke-width="1" fill="none" fill-rule="evenodd">
        <mask id="mask-2" fill="white">
            <use xlink:href="#path-1"></use>
        </mask>
        <g id="Clip-2"></g>
        <path d="M15.906,3.457 L15.906,3.16 C14.867,2.629 14.074,1.785 13.707,0.761 L13.691,0.769 L13.691,0.754 L12.66,0.754 L12.66,0.761 L12.648,0.758 C12.004,2.554 10.113,3.5 7.945,3.5 C5.773,3.5 3.883,2.554 3.238,0.761 L3.219,0.769 L3.219,0.754 L2.191,0.754 L2.191,0.793 C1.816,1.8 1.031,2.636 0,3.164 L0,3.457 C0.188,3.371 0.359,3.265 0.531,3.156 L0.531,4.547 L0.008,4.547 L0.008,5.113 L2.191,5.113 L2.191,7 L3.219,7 L3.219,5.113 L12.66,5.113 L12.66,7 L13.691,7 L13.691,5.113 L15.906,5.113 L15.906,4.547 L15.383,4.547 L15.383,3.16 C15.555,3.265 15.723,3.367 15.906,3.457 Z M1.477,4.547 L0.672,4.547 L0.672,3.078 C0.969,2.879 1.234,2.644 1.477,2.394 L1.477,4.547 Z M2.191,4.547 L1.617,4.547 L1.617,2.242 C1.836,1.996 2.035,1.742 2.191,1.461 L2.191,4.547 Z M3.848,4.547 L3.219,4.547 L3.219,1.406 C3.391,1.722 3.605,2 3.848,2.254 L3.848,4.547 Z M4.992,4.547 L3.992,4.547 L3.992,2.406 C4.285,2.683 4.621,2.914 4.992,3.101 L4.992,4.547 Z M6.133,4.547 L5.133,4.547 L5.133,3.179 C5.445,3.332 5.785,3.441 6.133,3.531 L6.133,4.547 Z M7.277,4.547 L6.277,4.547 L6.277,3.57 C6.602,3.644 6.93,3.699 7.277,3.73 L7.277,4.547 Z M8.422,4.547 L7.422,4.547 L7.422,3.734 C7.594,3.75 7.766,3.761 7.945,3.761 C8.105,3.761 8.262,3.75 8.422,3.742 L8.422,4.547 Z M9.562,4.547 L8.562,4.547 L8.562,3.73 C8.906,3.707 9.238,3.656 9.562,3.582 L9.562,4.547 Z M10.703,4.547 L9.707,4.547 L9.707,3.547 C10.055,3.457 10.391,3.347 10.703,3.203 L10.703,4.547 Z M11.848,4.547 L10.848,4.547 L10.848,3.129 C11.215,2.949 11.555,2.726 11.848,2.457 L11.848,4.547 Z M12.66,4.547 L11.992,4.547 L11.992,2.308 C12.25,2.047 12.48,1.758 12.66,1.422 L12.66,4.547 Z M14.297,4.547 L13.691,4.547 L13.691,1.406 C13.852,1.707 14.066,1.984 14.297,2.242 L14.297,4.547 Z M15.242,4.547 L14.438,4.547 L14.438,2.398 C14.68,2.648 14.945,2.879 15.242,3.078 L15.242,4.547 Z" id="Fill-1" fill="#000000" mask="url(#mask-2)"></path>
    </g>
</svg>