<?xml version="1.0" encoding="UTF-8"?>
<svg width="512px" height="235px" viewBox="0 0 512 235" version="1.1" xmlns="http://www.w3.org/2000/svg" xmlns:xlink="http://www.w3.org/1999/xlink">
    <!-- Generator: Sketch 51.2 (57519) - http://www.bohemiancoding.com/sketch -->
    <title>car</title>
    <desc>Created with Sketch.</desc>
    <defs>
        <polygon id="path-1" points="0.06 0.665 512 0.665 512 234.94 0.06 234.94"></polygon>
    </defs>
    <g id="car" stroke="none" stroke-width="1" fill="none" fill-rule="evenodd">
        <mask id="mask-2" fill="white">
            <use xlink:href="#path-1"></use>
        </mask>
        <g id="Clip-2"></g>
        <path d="M401.067,217.934 C386.953,217.934 375.467,206.448 375.467,192.334 C375.467,178.219 386.953,166.734 401.067,166.734 C415.181,166.734 426.667,178.219 426.667,192.334 C426.667,206.448 415.181,217.934 401.067,217.934 Z M401.067,149.667 C377.54,149.667 358.4,168.807 358.4,192.334 C358.4,215.86 377.54,235 401.067,235 C424.593,235 443.733,215.86 443.733,192.334 C443.733,168.807 424.593,149.667 401.067,149.667 Z" id="Fill-1" fill="#0A0B09" mask="url(#mask-2)"></path>
        <path d="M110.933,217.934 C96.819,217.934 85.333,206.448 85.333,192.334 C85.333,178.219 96.819,166.734 110.933,166.734 C125.047,166.734 136.533,178.219 136.533,192.334 C136.533,206.448 125.047,217.934 110.933,217.934 Z M110.933,149.667 C87.407,149.667 68.267,168.807 68.267,192.334 C68.267,215.86 87.407,235 110.933,235 C134.46,235 153.6,215.86 153.6,192.334 C153.6,168.807 134.46,149.667 110.933,149.667 Z" id="Fill-3" fill="#0A0B09" mask="url(#mask-2)"></path>
        <path d="M494.933,183.8 L477.397,183.8 C473.139,145.451 440.533,115.534 401.067,115.534 C361.6,115.534 328.994,145.451 324.736,183.8 L187.264,183.8 C183.006,145.451 150.4,115.534 110.933,115.534 C71.467,115.534 38.861,145.451 34.603,183.8 L17.067,183.8 L17.067,166.734 C21.777,166.734 25.6,162.911 25.6,158.2 L25.6,132.6 L34.133,132.6 C38.844,132.6 42.667,128.777 42.667,124.067 C42.667,119.356 38.844,115.534 34.133,115.534 L29.713,115.534 C41.259,102.998 76.578,89.934 128,89.934 L442.342,89.934 L486.4,104.619 L486.4,115.534 L477.867,115.534 C473.156,115.534 469.333,119.356 469.333,124.067 C469.333,128.777 473.156,132.6 477.867,132.6 L486.4,132.6 L486.4,158.2 C486.4,162.911 490.223,166.734 494.933,166.734 L494.933,183.8 Z M273.067,18.458 L273.067,72.875 L146.961,72.875 C178.594,40.244 220.305,22.213 273.067,18.458 Z M348.544,21.573 C358.818,23.382 367.846,25.951 375.97,29.142 L375.552,72.875 L290.133,72.875 L290.133,17.733 C308.386,17.486 327.799,18.706 348.544,21.573 Z M428.399,72.867 L392.619,72.867 L392.951,37.505 C407.774,46.593 418.816,58.591 428.399,72.867 Z M503.467,149.667 L503.467,98.467 C503.467,94.789 501.12,91.529 497.63,90.369 L449.476,74.317 C431.343,43.606 406.417,14.379 351.334,4.728 C351.232,4.711 351.13,4.694 351.027,4.677 C249.31,-9.386 172.937,13.56 123.904,72.901 C67.217,73.72 8.533,91.598 8.533,124.067 L8.533,149.667 C3.823,149.667 0,153.49 0,158.2 L0,192.334 C0,197.044 3.823,200.867 8.533,200.867 L42.667,200.867 C47.377,200.867 51.2,197.044 51.2,192.334 C51.2,159.395 77.995,132.6 110.933,132.6 C143.872,132.6 170.667,159.395 170.667,192.334 C170.667,197.044 174.49,200.867 179.2,200.867 L332.8,200.867 C337.51,200.867 341.333,197.044 341.333,192.334 C341.333,159.395 368.128,132.6 401.067,132.6 C434.005,132.6 460.8,159.395 460.8,192.334 C460.8,197.044 464.623,200.867 469.333,200.867 L503.467,200.867 C508.177,200.867 512,197.044 512,192.334 L512,158.2 C512,153.49 508.177,149.667 503.467,149.667 Z" id="Fill-4" fill="#0A0B09" mask="url(#mask-2)"></path>
    </g>
</svg>