<?xml version="1.0" encoding="UTF-8"?>
<svg width="45px" height="46px" viewBox="0 0 45 46" version="1.1" xmlns="http://www.w3.org/2000/svg" xmlns:xlink="http://www.w3.org/1999/xlink">
    <!-- Generator: Sketch 51.2 (57519) - http://www.bohemiancoding.com/sketch -->
    <title>crossroad</title>
    <desc>Created with Sketch.</desc>
    <defs>
        <polygon id="path-1" points="0.06 0.2 44.801 0.2 44.801 45.001 0.06 45.001"></polygon>
    </defs>
    <g id="crossroad" stroke="none" stroke-width="1" fill="none" fill-rule="evenodd">
        <g id="Group-7">
            <mask id="mask-2" fill="white">
                <use xlink:href="#path-1"></use>
            </mask>
            <g id="Clip-2"></g>
            <path d="M15.199,29.001 L0.801,29.001 C0.359,29.001 0,29.356 0,29.802 C0,30.243 0.359,30.598 0.801,30.598 L14.398,30.598 L14.398,44.2 C14.398,44.641 14.758,45.001 15.199,45.001 C15.641,45.001 16,44.641 16,44.2 L16,29.802 C16,29.356 15.641,29.001 15.199,29.001 Z" id="Fill-1" fill="#000000" mask="url(#mask-2)"></path>
            <path d="M29.602,16.2 L44,16.2 C44.441,16.2 44.801,15.841 44.801,15.399 C44.801,14.958 44.441,14.598 44,14.598 L30.398,14.598 L30.398,1.001 C30.398,0.559 30.043,0.2 29.602,0.2 C29.16,0.2 28.801,0.559 28.801,1.001 L28.801,15.399 C28.801,15.841 29.16,16.2 29.602,16.2 Z" id="Fill-3" fill="#000000" mask="url(#mask-2)"></path>
            <path d="M15.199,0.2 C14.758,0.2 14.398,0.559 14.398,1.001 L14.398,14.598 L0.801,14.598 C0.359,14.598 0,14.958 0,15.399 C0,15.841 0.359,16.2 0.801,16.2 L15.199,16.2 C15.641,16.2 16,15.841 16,15.399 L16,1.001 C16,0.559 15.641,0.2 15.199,0.2 Z" id="Fill-4" fill="#000000" mask="url(#mask-2)"></path>
            <path d="M44,29.001 L29.602,29.001 C29.16,29.001 28.801,29.356 28.801,29.802 L28.801,44.2 C28.801,44.641 29.16,45.001 29.602,45.001 C30.043,45.001 30.398,44.641 30.398,44.2 L30.398,30.598 L44,30.598 C44.441,30.598 44.801,30.243 44.801,29.802 C44.801,29.356 44.441,29.001 44,29.001 Z" id="Fill-5" fill="#000000" mask="url(#mask-2)"></path>
            <polygon id="Fill-6" fill="#000000" mask="url(#mask-2)" points="0.06 23.4 4 23.4 4 21.802 0.06 21.802"></polygon>
        </g>
        <polygon id="Fill-8" fill="#000000" points="29.602 23.4 33.602 23.4 33.602 21.802 29.602 21.802"></polygon>
        <polygon id="Fill-9" fill="#000000" points="5.602 23.4 9.602 23.4 9.602 21.802 5.602 21.802"></polygon>
        <polygon id="Fill-10" fill="#000000" points="35.199 23.4 39.199 23.4 39.199 21.802 35.199 21.802"></polygon>
        <polygon id="Fill-11" fill="#000000" points="11.199 23.4 15.199 23.4 15.199 21.802 11.199 21.802"></polygon>
        <polygon id="Fill-12" fill="#000000" points="40.801 23.4 44.801 23.4 44.801 21.802 40.801 21.802"></polygon>
        <polygon id="Fill-13" fill="#000000" points="21.602 4.2 23.2 4.2 23.2 0.2 21.602 0.2"></polygon>
        <polygon id="Fill-14" fill="#000000" points="21.602 33.802 23.2 33.802 23.2 29.802 21.602 29.802"></polygon>
        <polygon id="Fill-15" fill="#000000" points="21.602 9.802 23.2 9.802 23.2 5.802 21.602 5.802"></polygon>
        <polygon id="Fill-16" fill="#000000" points="21.602 39.399 23.2 39.399 23.2 35.399 21.602 35.399"></polygon>
        <polygon id="Fill-17" fill="#000000" points="21.602 15.399 23.2 15.399 23.2 11.399 21.602 11.399"></polygon>
        <polygon id="Fill-18" fill="#000000" points="21.602 45.001 23.2 45.001 23.2 41.001 21.602 41.001"></polygon>
    </g>
</svg>