<?xml version="1.0" encoding="UTF-8"?>
<svg width="324px" height="324px" viewBox="0 0 324 324" version="1.1" xmlns="http://www.w3.org/2000/svg" xmlns:xlink="http://www.w3.org/1999/xlink">
    <!-- Generator: Sketch 51.2 (57519) - http://www.bohemiancoding.com/sketch -->
    <title>digging</title>
    <desc>Created with Sketch.</desc>
    <defs></defs>
    <g id="digging" stroke="none" stroke-width="1" fill="none" fill-rule="evenodd">
        <path d="M135.953,246.75 C122.801,246.766 112.141,257.426 112.125,270.578 C112.125,277.578 122.625,277.578 122.625,270.578 C122.633,263.223 128.598,257.258 135.953,257.25 C142.953,257.25 142.953,246.75 135.953,246.75 Z" id="Fill-1" fill="#000000"></path>
        <g id="Group-5" fill="#000000">
            <path d="M198,224.617 C194.273,221.527 189.465,220.051 184.648,220.52 C177.781,221.266 178.754,231.535 185.641,230.973 C189.898,230.574 193.68,233.695 194.09,237.953 C194.344,240.645 196.605,242.703 199.309,242.707 C199.473,242.707 199.641,242.707 199.809,242.684 C202.695,242.41 204.816,239.844 204.539,236.957 C204.094,232.137 201.738,227.695 198,224.617 Z" id="Fill-2"></path>
            <path d="M320.398,313.359 C318.012,291.906 299.895,275.668 278.309,275.641 C277.012,275.641 275.707,275.703 274.391,275.832 C274.102,252.801 255.711,234.09 232.688,233.398 C230.461,227.652 227.352,222.289 223.469,217.5 C223.062,215.02 222.387,212.59 221.461,210.254 L189.727,132.699 C188.125,128.785 184.797,125.836 180.723,124.715 C176.648,123.59 172.281,124.422 168.898,126.961 L145.621,144.465 L143.406,141.52 C141.812,139.379 138.855,138.793 136.566,140.164 L67.738,48.641 L61.668,11.93 C61.105,8.504 58.98,5.531 55.914,3.891 C52.852,2.254 49.199,2.137 46.035,3.574 C41.961,-0.117 35.844,-0.402 31.441,2.891 L9.398,19.465 C5.008,22.773 3.582,28.734 6,33.672 C3.746,36.312 2.852,39.852 3.574,43.246 C4.297,46.641 6.559,49.508 9.691,51 L43.273,67.023 L112.098,158.562 C110.16,160.387 109.902,163.375 111.496,165.508 L113.711,168.449 L90.434,185.953 C87.055,188.496 85.047,192.461 84.992,196.688 C84.941,200.914 86.852,204.93 90.16,207.555 L113.316,225.898 C98.801,230.824 87.969,243.051 84.836,258.055 L84.602,258.055 C72.285,258.02 60.977,264.844 55.266,275.754 C35.051,277.148 18.648,292.648 16.109,312.75 L6,312.75 C-1,312.75 -1,323.25 6,323.25 L318,323.25 C323.516,323.277 325.316,315.852 320.398,313.352 L320.398,313.359 Z M61.727,58.121 L128.129,146.434 L120.457,152.203 L54.055,63.898 L61.727,58.121 Z M125.266,166.34 L123.055,163.402 L138.168,152.035 L157.59,177.859 L142.477,189.227 L125.266,166.34 Z M57.07,48.484 L46.086,56.742 L20.48,44.527 C22.684,44.387 24.793,43.609 26.562,42.289 L48.602,25.715 C50.352,24.391 51.684,22.586 52.438,20.523 L57.07,48.484 Z M15.715,27.859 L37.754,11.281 C38.184,10.957 38.793,11.043 39.113,11.477 L42.488,15.977 C42.812,16.402 42.727,17.012 42.297,17.336 L20.258,33.898 C19.828,34.223 19.219,34.137 18.898,33.707 L17.211,31.469 L15.523,29.223 C15.199,28.793 15.285,28.184 15.715,27.859 Z M95.488,196.824 C95.492,195.848 95.957,194.93 96.742,194.348 L120.023,176.844 L137.23,199.727 C138.973,202.043 142.266,202.508 144.582,200.766 L168.086,183.09 C170.406,181.348 170.871,178.055 169.129,175.738 L151.922,152.855 L175.203,135.352 C176.852,134.113 179.223,134.77 180.004,136.676 L207.441,203.734 C179.75,187.613 144.262,196.387 127.27,223.551 L96.668,199.328 C95.902,198.727 95.465,197.797 95.488,196.824 Z M58.023,286.145 L58.578,286.172 C60.758,286.215 62.734,284.898 63.535,282.871 C67.434,272.855 77.883,267.004 88.457,268.91 C91.516,269.434 94.355,267.203 94.578,264.109 C95.902,247.227 109.953,234.18 126.891,234.109 C127.836,234.109 128.766,234.176 129.691,234.254 C131.762,234.43 133.742,233.371 134.746,231.555 C142.402,217.543 156.438,208.168 172.312,206.461 C188.188,204.75 203.895,210.926 214.355,222.988 C214.516,223.207 214.695,223.414 214.891,223.609 C218.992,228.527 222.082,234.203 223.992,240.316 C224.711,242.633 226.922,244.148 229.34,243.988 L229.879,243.953 C230.402,243.918 230.93,243.875 231.461,243.875 C240.973,243.805 250.031,247.941 256.203,255.18 C262.379,262.418 265.035,272.016 263.461,281.398 C262.879,285.148 266.336,288.258 270,287.281 C278.676,284.891 287.953,286.305 295.527,291.164 C303.098,296.02 308.246,303.871 309.691,312.75 L26.719,312.75 C29.273,297.438 42.5,286.199 58.023,286.145 Z" id="Fill-4"></path>
        </g>
    </g>
</svg>