<?xml version="1.0" encoding="UTF-8"?>
<svg width="512px" height="424px" viewBox="0 0 512 424" version="1.1" xmlns="http://www.w3.org/2000/svg" xmlns:xlink="http://www.w3.org/1999/xlink">
    <!-- Generator: Sketch 51.2 (57519) - http://www.bohemiancoding.com/sketch -->
    <title>dog</title>
    <desc>Created with Sketch.</desc>
    <defs>
        <polygon id="path-1" points="0.06 0.173 511.999 0.173 511.999 424 0.06 424"></polygon>
    </defs>
    <g id="dog" stroke="none" stroke-width="1" fill="none" fill-rule="evenodd">
        <g id="Group-3">
            <mask id="mask-2" fill="white">
                <use xlink:href="#path-1"></use>
            </mask>
            <g id="Clip-2"></g>
            <path d="M475.059,401.718 C474.444,405.868 470.815,408.999 466.618,408.999 L423.821,408.999 L423.821,403.305 C423.821,399.796 425.926,396.687 429.184,395.384 L459.186,383.383 C462.034,382.243 463.901,379.486 463.901,376.419 L463.901,321.642 C463.901,318.078 461.395,315.007 457.904,314.293 C457.351,314.18 402.18,302.282 370.054,242.748 C368.087,239.102 363.538,237.743 359.892,239.709 C356.246,241.677 354.886,246.226 356.853,249.871 C358.788,253.457 360.8,256.875 362.869,260.153 C332.958,271.044 274.306,278.863 235.691,268.556 L236.416,259.801 C236.758,255.673 233.688,252.049 229.561,251.707 C225.418,251.351 221.81,254.435 221.467,258.562 L209.657,401.171 C209.294,405.56 205.559,408.998 201.154,408.998 L159.285,408.998 L159.285,402.358 C159.285,399.105 161.092,396.181 164.001,394.726 L187.203,383.125 C189.746,381.854 191.351,379.254 191.349,376.41 C191.347,373.878 190.853,313.661 152.725,249.344 C142.408,231.939 133.769,214.991 126.986,198.911 C127.124,197.975 127.219,197.026 127.219,196.053 L127.219,188.035 C127.219,184.08 126.029,180.402 124,177.324 C138.912,173.758 167.699,164.999 193.544,146.282 C196.899,143.852 197.649,139.164 195.219,135.808 C192.79,132.454 188.101,131.704 184.746,134.133 C157.255,154.042 125.178,161.853 114.898,163.959 C109.998,145.524 109.456,133.539 109.512,128.523 C119.176,127.23 126.596,123.359 126.921,123.187 C130.572,121.254 131.961,116.74 130.042,113.082 C128.124,109.422 123.596,108.011 119.929,109.917 C119.87,109.948 113.928,113.001 106.593,113.776 C79.058,116.687 52.622,110.107 39.315,105.925 C36.745,105.118 34.758,103.108 33.906,100.545 C56.187,100.821 83.193,100.206 99.362,96.476 C103.398,95.545 105.915,91.518 104.984,87.482 C104.052,83.446 100.023,80.929 95.989,81.861 C83.03,84.852 58.313,86.116 26.391,85.415 C22.315,85.325 18.94,82.469 18.184,78.468 L15.003,61.635 C14.953,61.373 15.116,61.114 15.411,61.032 L65.63,46.957 C66.796,46.631 67.865,46.026 68.746,45.197 L88.926,26.205 C96.487,19.09 106.368,15.171 116.75,15.171 L138.258,15.171 C160.743,15.171 185.875,43.926 193.626,60.024 C198.432,70.006 199.453,85.924 192.84,95.281 C188.483,101.445 181.177,104.012 171.134,102.923 C154.895,101.155 150.824,87.954 146.051,66.422 C143.147,53.322 140.405,40.951 132.086,33.235 C129.05,30.419 124.304,30.597 121.487,33.633 C118.671,36.67 118.849,41.415 121.886,44.233 C126.773,48.766 129.024,58.919 131.407,69.667 C135.863,89.765 141.408,114.776 169.511,117.835 C171.386,118.039 173.383,118.165 175.453,118.165 C185.294,118.165 196.786,115.295 204.758,104.374 L205.367,105.205 C206.669,106.982 208.112,108.63 209.669,110.147 C208.566,111.599 207.421,113.03 206.237,114.428 C203.562,117.59 203.956,122.323 207.118,124.998 C208.527,126.19 210.247,126.772 211.96,126.772 C214.09,126.772 216.206,125.87 217.689,124.117 C219.265,122.255 220.776,120.338 222.227,118.393 C225.808,119.869 229.615,120.837 233.545,121.211 L398.706,136.898 C431.893,140.216 456.918,167.87 456.918,201.223 L456.918,245.943 C456.918,259.476 461.125,272.415 469.086,283.359 L488.615,310.212 L475.059,401.718 Z M107.698,200.579 C105.203,200.579 103.174,198.55 103.174,196.055 L103.174,188.037 C103.174,185.543 105.204,183.514 107.698,183.514 C110.192,183.514 112.222,185.543 112.222,188.037 L112.222,196.055 C112.222,198.55 110.193,200.579 107.698,200.579 Z M482.147,119.046 C486.233,100.734 482.357,79.803 470.305,55.517 C486.492,74.256 497,98.347 497,119.233 C497,145.513 482.059,163.105 467.199,174.104 C464.794,167.421 461.53,161.149 457.517,155.428 C470.636,145.741 478.914,133.531 482.147,119.046 Z M481.217,274.538 C475.134,266.174 471.919,256.286 471.919,245.944 L471.919,201.224 C471.919,197.304 471.634,193.45 471.091,189.677 C487.56,178.739 511.999,156.264 511.999,119.232 C511.999,86.439 490.051,47.116 459.81,25.731 C455.487,22.675 449.796,23.102 445.972,26.773 C442.177,30.415 441.517,36.038 444.369,40.449 C464.074,70.932 471.859,96.277 467.507,115.778 C464.987,127.066 458.496,136.325 447.743,143.983 C435.26,131.895 418.759,123.829 400.16,121.969 L234.962,106.279 C227.986,105.617 221.61,101.995 217.468,96.342 L211.55,88.265 C213.888,76.244 211.744,63.078 207.141,53.518 C198.184,34.916 168.784,0.173 138.259,0.173 L116.751,0.173 C102.533,0.173 89.001,5.539 78.646,15.283 L59.81,33.014 L11.404,46.581 C3.669,48.705 -1.223,56.543 0.267,64.424 L3.448,81.256 C4.995,89.44 10.781,96.028 18.269,98.883 L18.842,102.032 C20.409,110.657 26.532,117.633 34.822,120.238 C46.736,123.981 68.398,129.494 92.62,129.494 C93.249,129.494 93.884,129.478 94.515,129.471 C94.536,136.458 95.503,150.031 100.929,169.748 C93.495,172.509 88.173,179.654 88.173,188.037 L88.173,196.055 C88.173,206.821 96.933,215.579 107.698,215.579 C111.023,215.579 114.154,214.739 116.898,213.267 C123.29,227.386 130.96,242.042 139.824,256.994 C169.965,307.838 175.241,357.003 176.159,371.88 L157.295,381.312 C149.271,385.324 144.287,393.389 144.287,402.36 L144.287,416.5 C144.287,420.643 147.645,424 151.787,424 L201.156,424 C213.304,424 223.607,414.517 224.609,402.41 L234.438,283.708 C247.873,286.975 263.131,288.372 278.728,288.372 C313.727,288.372 350.376,281.364 371.695,272.831 C399.934,309.605 435.004,323.232 448.901,327.414 L448.901,371.342 L423.612,381.457 C414.626,385.052 408.82,393.628 408.82,403.306 L408.82,416.5 C408.82,420.643 412.178,424 416.32,424 L466.617,424 C478.193,424 488.2,415.366 489.896,403.916 L503.901,309.381 C504.189,307.438 503.703,305.459 502.547,303.87 L481.217,274.538 Z" id="Fill-1" fill="#0A090B" mask="url(#mask-2)"></path>
        </g>
        <path d="M95.755,40.254 L95.674,40.254 C91.532,40.254 88.215,43.611 88.215,47.754 C88.215,51.897 91.613,55.254 95.755,55.254 C99.897,55.254 103.255,51.897 103.255,47.754 C103.255,43.611 99.897,40.254 95.755,40.254" id="Fill-4" fill="#0A090B"></path>
    </g>
</svg>