<?xml version="1.0" encoding="UTF-8"?>
<svg width="433px" height="513px" viewBox="0 0 433 513" version="1.1" xmlns="http://www.w3.org/2000/svg" xmlns:xlink="http://www.w3.org/1999/xlink">
    <!-- Generator: Sketch 51.2 (57519) - http://www.bohemiancoding.com/sketch -->
    <title>down-arrow</title>
    <desc>Created with Sketch.</desc>
    <defs></defs>
    <g id="down-arrow" stroke="none" stroke-width="1" fill="none" fill-rule="evenodd">
        <path d="M396.331,302.076 L221.129,475.576 C219.429,477.278 217.727,477.278 217.727,477.278 L217.727,494.288 L217.727,477.278 L216.026,477.278 C214.324,477.278 212.624,477.278 212.624,475.576 L35.72,300.374 C34.02,298.673 34.02,296.972 34.02,296.972 C34.02,296.972 34.02,293.57 35.72,293.57 L71.441,257.849 C73.141,256.147 78.245,256.147 79.946,257.849 L154.79,332.693 C159.894,337.795 166.697,339.497 173.502,336.095 C180.305,332.693 183.707,327.589 183.707,320.786 L183.707,41.823 C183.707,38.421 185.409,35.019 187.109,35.019 L236.439,35.019 C239.841,35.019 243.243,38.421 243.243,41.823 L243.243,324.188 C243.243,330.992 246.645,337.796 253.449,339.497 C260.253,342.899 267.057,341.198 272.16,336.095 L348.705,257.849 C352.107,254.447 353.808,254.447 355.509,257.849 L391.231,293.57 C392.932,295.272 392.932,296.972 392.932,296.972 C398.033,298.674 396.331,300.374 396.331,302.076 Z M420.145,269.756 L384.425,234.035 C369.116,218.726 343.601,218.726 328.293,234.035 L280.665,283.363 L280.665,41.823 C280.665,19.71 261.953,0.999 239.841,0.999 L190.512,0.999 C168.399,0.999 153.09,18.009 153.09,41.823 L153.09,279.962 L107.164,234.035 C91.855,218.726 64.64,218.726 51.031,234.035 L11.907,269.756 C5.103,276.56 0,286.766 0,298.674 C0,308.88 3.402,319.086 11.907,325.89 L187.11,501.092 C193.914,507.896 204.12,513 216.027,513 L217.728,513 C227.934,513 238.14,509.598 244.944,501.092 L420.146,325.89 C426.95,319.086 432.054,308.88 432.054,296.972 C432.053,286.766 426.949,276.56 420.145,269.756 Z" id="Fill-1" fill="#0A0B09"></path>
    </g>
</svg>