<?xml version="1.0" encoding="UTF-8"?>
<svg width="372px" height="354px" viewBox="0 0 372 354" version="1.1" xmlns="http://www.w3.org/2000/svg" xmlns:xlink="http://www.w3.org/1999/xlink">
    <!-- Generator: Sketch 51.2 (57519) - http://www.bohemiancoding.com/sketch -->
    <title>electric-pole_B</title>
    <desc>Created with Sketch.</desc>
    <defs></defs>
    <g id="electric-pole_B" stroke="none" stroke-width="1" fill="none" fill-rule="evenodd">
        <path d="M232.332,5.992 C230.25,2.426 226.43,0 222,0 C217.57,0 213.75,2.426 211.668,5.992 L160.332,5.992 C158.25,2.426 154.43,0 150,0 C145.57,0 141.75,2.426 139.668,5.992 L0,5.992 L0,17.988 L138,17.988 L138,24 L144,24 L144,41.988 L156,41.988 L156,24 L162,24 L162,17.988 L210,17.988 L210,24 L216,24 L216,41.988 L228,41.988 L228,24 L234,24 L234,17.988 L372,17.988 L372,5.992 L232.332,5.992 Z" id="Fill-1" fill="#000000"></path>
        <polygon id="Fill-2" fill="#000000" points="0 65.988 120 65.988 120 53.992 0 53.992"></polygon>
        <g id="Group-6" transform="translate(168.000000, 53.000000)" fill="#000000">
            <polygon id="Fill-3" points="84 12.988 204 12.988 204 0.992 84 0.992"></polygon>
            <polygon id="Fill-5" points="0 300.94 36 300.94 36 252.988 0 252.988"></polygon>
        </g>
        <polygon id="Fill-7" fill="#000000" points="168 293.992 204 293.992 204 173.992 168 173.992"></polygon>
        <polygon id="Fill-8" fill="#000000" points="72 161.988 300 161.988 300 149.992 72 149.992"></polygon>
        <polygon id="Fill-9" fill="#000000" points="126 65.988 246 65.988 246 53.992 126 53.992"></polygon>
        <path d="M282,96 C277.57,96 273.75,98.426 271.668,101.992 L232.332,101.992 C230.25,98.426 226.43,96 222,96 C217.57,96 213.75,98.426 211.668,101.992 L192,101.992 L192,71.992 L180,71.992 L180,101.992 L160.332,101.992 C158.25,98.426 154.43,96 150,96 C145.57,96 141.75,98.426 139.668,101.992 L100.332,101.992 C98.25,98.426 94.43,96 90,96 C85.57,96 81.75,98.426 79.668,101.992 L0,101.992 L0,113.988 L78,113.988 L78,120 L84,120 L84,143.988 L96,143.988 L96,120 L102,120 L102,113.988 L138,113.988 L138,120 L144,120 L144,143.988 L156,143.988 L156,120 L162,120 L162,113.988 L180,113.988 L180,143.988 L192,143.988 L192,113.988 L210,113.988 L210,120 L216,120 L216,143.988 L228,143.988 L228,120 L234,120 L234,113.988 L270,113.988 L270,120 L276,120 L276,143.988 L288,143.988 L288,120 L294,120 L294,113.988 L372,113.988 L372,101.992 L292.332,101.992 C290.25,98.426 286.43,96 282,96 Z" id="Fill-10" fill="#000000"></path>
    </g>
</svg>