<?xml version="1.0" encoding="UTF-8"?>
<svg width="308px" height="411px" viewBox="0 0 308 411" version="1.1" xmlns="http://www.w3.org/2000/svg" xmlns:xlink="http://www.w3.org/1999/xlink">
    <!-- Generator: Sketch 51.2 (57519) - http://www.bohemiancoding.com/sketch -->
    <title>gasoline_B</title>
    <desc>Created with Sketch.</desc>
    <defs>
        <polygon id="path-1" points="0.06 0.4 307.199 0.4 307.199 410.002 0.06 410.002"></polygon>
    </defs>
    <g id="gasoline_B" stroke="none" stroke-width="1" fill="none" fill-rule="evenodd">
        <path d="M198.398,147.599 L198.398,32.4 C198.398,28.865 195.535,26.002 192,26.002 L51.199,26.002 C47.664,26.002 44.801,28.865 44.801,32.4 L44.801,147.599 C44.801,151.134 47.664,154.002 51.199,154.002 L192,154.002 C195.535,154.002 198.398,151.134 198.398,147.599 Z M57.602,141.201 L185.602,141.201 L185.602,38.798 L57.602,38.798 L57.602,141.201 Z" id="Fill-1" fill="#000000"></path>
        <g id="Group-5">
            <mask id="mask-2" fill="white">
                <use xlink:href="#path-1"></use>
            </mask>
            <g id="Clip-3"></g>
            <path d="M104.273,81.724 L104.277,81.728 C103.074,84.232 102.398,87.041 102.398,90.002 C102.398,100.587 111.012,109.201 121.602,109.201 C132.188,109.201 140.801,100.587 140.801,90.002 C140.801,79.412 132.188,70.798 121.602,70.798 C118.641,70.798 115.832,71.474 113.328,72.677 C113.328,72.677 113.328,72.673 113.324,72.673 L94.125,53.474 C91.625,50.974 87.574,50.974 85.074,53.474 C82.574,55.974 82.574,60.025 85.074,62.525 L104.273,81.724 Z M121.602,83.599 C125.129,83.599 128,86.47 128,90.002 C128,93.529 125.129,96.4 121.602,96.4 C118.07,96.4 115.199,93.529 115.199,90.002 C115.199,86.47 118.07,83.599 121.602,83.599 Z" id="Fill-2" fill="#000000" mask="url(#mask-2)"></path>
            <path d="M306.93,312.162 L270.488,190.685 C269.367,186.955 268.801,183.084 268.801,179.185 L268.801,94.205 C268.801,85.658 265.473,77.619 259.426,71.576 L241.324,53.474 C238.828,50.974 234.773,50.974 232.273,53.474 C229.773,55.974 229.773,60.025 232.273,62.525 L250.375,80.627 C254.004,84.252 256,89.076 256,94.205 L256,96.4 L249.594,96.4 C239.012,96.4 230.398,105.009 230.398,115.595 L230.398,134.806 C230.398,145.388 239.012,154.002 249.594,154.002 L256,154.002 L256,179.185 C256,184.33 256.75,189.439 258.227,194.365 L294.387,314.888 C294.145,321.763 291.125,328.302 286.016,332.947 C280.613,337.857 273.602,340.177 266.266,339.478 C253.332,338.244 243.199,326.451 243.199,312.627 L243.199,230.798 C243.199,220.212 234.59,211.599 224.004,211.599 L224,211.599 L224,26.002 C224,11.884 212.516,0.4 198.398,0.4 L44.801,0.4 C30.684,0.4 19.199,11.884 19.199,26.002 L19.199,397.201 L6.398,397.201 C2.867,397.201 0,400.064 0,403.599 C0,407.134 2.867,410.002 6.398,410.002 L236.801,410.002 C240.336,410.002 243.199,407.134 243.199,403.599 C243.199,400.064 240.336,397.201 236.801,397.201 L224,397.201 L224,224.4 L224.004,224.4 C227.531,224.4 230.398,227.271 230.398,230.798 L230.398,312.627 C230.398,332.974 245.621,350.369 265.047,352.22 C266.273,352.337 267.496,352.396 268.719,352.396 C278.266,352.396 287.543,348.857 294.625,342.42 C302.617,335.154 307.199,324.795 307.199,314.002 C307.199,313.377 307.109,312.759 306.93,312.162 Z M243.199,134.806 L243.199,115.591 C243.199,112.068 246.066,109.201 249.594,109.201 L256,109.201 L256,141.201 L249.594,141.201 C246.066,141.201 243.199,138.334 243.199,134.806 Z M32,397.201 L32,384.4 L172.801,384.4 C176.336,384.4 179.199,381.533 179.199,378.002 C179.199,374.466 176.336,371.599 172.801,371.599 L32,371.599 L32,179.599 L172.801,179.599 C176.336,179.599 179.199,176.736 179.199,173.201 C179.199,169.666 176.336,166.798 172.801,166.798 L32,166.798 L32,26.002 C32,18.943 37.742,13.201 44.801,13.201 L198.398,13.201 C205.457,13.201 211.199,18.943 211.199,26.002 L211.199,166.798 L198.398,166.798 C194.867,166.798 192,169.666 192,173.201 C192,176.736 194.867,179.599 198.398,179.599 L211.199,179.599 L211.199,371.599 L198.398,371.599 C194.867,371.599 192,374.466 192,378.002 C192,381.533 194.867,384.4 198.398,384.4 L211.199,384.4 L211.199,397.201 L32,397.201 Z" id="Fill-4" fill="#000000" mask="url(#mask-2)"></path>
        </g>
    </g>
</svg>