<?xml version="1.0" encoding="UTF-8"?>
<svg width="513px" height="291px" viewBox="0 0 513 291" version="1.1" xmlns="http://www.w3.org/2000/svg" xmlns:xlink="http://www.w3.org/1999/xlink">
    <!-- Generator: Sketch 51.2 (57519) - http://www.bohemiancoding.com/sketch -->
    <title>grass</title>
    <desc>Created with Sketch.</desc>
    <defs>
        <polygon id="path-1" points="0.06 0.421 512.001 0.421 512.001 291 0.06 291"></polygon>
    </defs>
    <g id="grass" stroke="none" stroke-width="1" fill="none" fill-rule="evenodd">
        <mask id="mask-2" fill="white">
            <use xlink:href="#path-1"></use>
        </mask>
        <g id="Clip-2"></g>
        <path d="M378.372,204.061 C378.224,204.325 378.077,204.591 377.962,204.872 C370.136,223.966 364.486,243.672 361.078,263.669 C361.04,263.893 361.005,264.119 360.968,264.342 C360.698,265.953 360.441,267.566 360.2,269.18 C360.117,269.733 360.038,270.289 359.959,270.845 C359.766,272.194 359.583,273.545 359.411,274.897 C359.364,275.266 359.308,275.629 359.262,276 L310.836,276 C310.882,275.74 310.921,275.475 310.968,275.216 C311.096,274.513 311.235,273.819 311.373,273.123 C311.542,272.273 311.712,271.425 311.895,270.585 C312.047,269.89 312.207,269.202 312.368,268.515 C312.561,267.693 312.757,266.874 312.963,266.063 C313.136,265.38 313.316,264.703 313.498,264.028 C313.713,263.231 313.933,262.439 314.16,261.654 C314.353,260.986 314.55,260.321 314.752,259.661 C314.988,258.888 315.229,258.121 315.475,257.36 C315.686,256.707 315.899,256.058 316.118,255.413 C316.372,254.663 316.633,253.92 316.897,253.182 C317.123,252.548 317.35,251.916 317.583,251.291 C317.855,250.56 318.134,249.839 318.415,249.12 C318.654,248.508 318.892,247.896 319.137,247.293 C319.426,246.581 319.721,245.881 320.017,245.182 C320.267,244.592 320.515,244 320.769,243.42 C321.073,242.727 321.383,242.047 321.692,241.367 C321.949,240.803 322.204,240.234 322.465,239.678 C322.784,238.998 323.11,238.334 323.435,237.667 C323.695,237.133 323.953,236.592 324.217,236.066 C324.554,235.394 324.895,234.74 325.236,234.083 C325.494,233.585 325.75,233.079 326.01,232.59 C326.373,231.907 326.741,231.244 327.107,230.578 C327.35,230.137 327.59,229.684 327.834,229.25 C328.287,228.444 328.742,227.663 329.198,226.882 C329.46,226.433 329.722,225.985 329.985,225.544 C330.493,224.693 331.001,223.849 331.509,223.03 C331.773,222.605 332.035,222.201 332.298,221.785 C332.651,221.226 333.005,220.662 333.357,220.119 C333.645,219.675 333.931,219.25 334.218,218.817 C334.543,218.326 334.869,217.829 335.192,217.352 C335.486,216.918 335.776,216.503 336.067,216.081 C336.379,215.63 336.691,215.174 337,214.737 C337.295,214.319 337.585,213.918 337.876,213.513 C338.175,213.097 338.475,212.678 338.769,212.276 C339.06,211.879 339.345,211.497 339.632,211.113 C339.919,210.728 340.207,210.341 340.49,209.969 C340.774,209.595 341.053,209.234 341.331,208.874 C341.606,208.518 341.881,208.163 342.15,207.82 C342.422,207.475 342.688,207.14 342.953,206.808 C343.218,206.476 343.483,206.146 343.741,205.828 C343.999,205.511 344.252,205.202 344.503,204.898 C344.753,204.595 345,204.297 345.242,204.008 C345.486,203.717 345.726,203.432 345.962,203.154 C346.196,202.879 346.425,202.611 346.651,202.35 C346.878,202.087 347.102,201.828 347.32,201.58 C347.536,201.333 347.746,201.096 347.953,200.863 C348.16,200.63 348.365,200.399 348.562,200.181 C348.76,199.961 348.949,199.753 349.136,199.548 C349.321,199.345 349.508,199.14 349.682,198.952 C349.858,198.761 350.024,198.585 350.188,198.409 C350.349,198.237 350.513,198.062 350.662,197.905 C350.819,197.739 350.963,197.59 351.106,197.441 C351.238,197.304 351.376,197.159 351.496,197.036 C351.626,196.903 351.738,196.789 351.853,196.672 C351.962,196.561 352.08,196.441 352.176,196.344 C352.276,196.243 352.357,196.164 352.442,196.079 C352.522,196 352.613,195.909 352.679,195.844 C352.763,195.761 352.822,195.704 352.884,195.645 C352.921,195.609 352.974,195.558 353.002,195.531 C353.074,195.462 353.123,195.416 353.134,195.406 C355.459,193.259 356.186,189.883 354.95,186.968 C353.716,184.057 350.793,182.237 347.634,182.408 C347.631,182.408 347.627,182.408 347.624,182.408 C347.622,182.408 347.616,182.408 347.614,182.409 C346.65,182.464 337.509,183.071 324.343,186.685 C324.494,186.45 324.643,186.209 324.794,185.975 C325.004,185.649 325.216,185.329 325.427,185.005 C326.005,184.118 326.585,183.234 327.168,182.365 C327.253,182.238 327.339,182.114 327.425,181.988 C331.089,176.559 334.857,171.486 338.718,166.785 C338.772,166.72 338.825,166.653 338.878,166.588 C339.548,165.775 340.221,164.979 340.897,164.188 C341.06,163.997 341.223,163.803 341.387,163.613 C342.004,162.897 342.625,162.194 343.247,161.496 C343.473,161.242 343.699,160.988 343.925,160.736 C344.512,160.086 345.101,159.447 345.692,158.814 C345.955,158.532 346.218,158.251 346.482,157.972 C347.056,157.366 347.632,156.767 348.21,156.176 C348.486,155.893 348.764,155.614 349.041,155.334 C349.622,154.749 350.205,154.17 350.79,153.601 C355.995,148.536 361.347,144.08 366.84,140.269 C400.043,117.235 430.913,103.799 452.7,96.241 C444.023,104.592 433.934,115.239 423.597,128.12 C408.6,146.801 391.473,172.412 378.372,204.061 Z M309.818,231.124 C309.667,231.435 309.515,231.741 309.365,232.055 C308.984,232.853 308.606,233.661 308.233,234.477 C308.089,234.792 307.948,235.114 307.805,235.431 C307.571,235.95 307.337,236.467 307.106,236.993 C306.942,237.367 306.782,237.747 306.62,238.124 C306.414,238.603 306.207,239.08 306.005,239.565 C305.839,239.962 305.676,240.366 305.511,240.767 C305.317,241.24 305.123,241.712 304.932,242.19 C304.767,242.604 304.606,243.023 304.443,243.44 C304.258,243.915 304.073,244.389 303.892,244.868 C303.73,245.297 303.571,245.729 303.411,246.162 C303.235,246.638 303.06,247.114 302.888,247.595 C302.73,248.037 302.574,248.482 302.419,248.928 C302.251,249.411 302.083,249.896 301.918,250.384 C301.767,250.832 301.618,251.282 301.47,251.734 C301.308,252.228 301.148,252.724 300.99,253.222 C300.845,253.678 300.702,254.136 300.561,254.596 C300.406,255.099 300.255,255.605 300.104,256.112 C299.967,256.575 299.831,257.038 299.697,257.504 C299.549,258.02 299.405,258.539 299.262,259.06 C299.134,259.526 299.006,259.992 298.881,260.462 C298.74,260.992 298.605,261.526 298.469,262.061 C298.35,262.53 298.23,262.997 298.115,263.469 C297.981,264.017 297.854,264.57 297.725,265.122 C297.617,265.589 297.506,266.055 297.402,266.525 C297.274,267.099 297.154,267.68 297.032,268.259 C296.936,268.714 296.838,269.167 296.746,269.626 C296.621,270.25 296.504,270.88 296.386,271.51 C296.307,271.933 296.223,272.353 296.147,272.778 C296.008,273.554 295.88,274.337 295.753,275.121 C295.707,275.406 295.655,275.688 295.61,275.974 C295.609,275.982 295.607,275.991 295.606,275.999 L286.449,275.999 C286.382,275.825 286.308,275.657 286.24,275.484 C285.965,274.781 285.677,274.094 285.395,273.399 C284.926,272.241 284.455,271.085 283.966,269.95 C283.647,269.209 283.317,268.481 282.99,267.75 C282.513,266.683 282.031,265.623 281.536,264.577 C281.187,263.84 280.832,263.112 280.474,262.386 C279.974,261.369 279.466,260.362 278.949,259.366 C278.579,258.652 278.205,257.942 277.826,257.239 C277.294,256.251 276.75,255.278 276.201,254.311 C275.817,253.636 275.435,252.959 275.043,252.295 C274.462,251.309 273.865,250.342 273.266,249.379 C272.886,248.769 272.512,248.152 272.125,247.551 C271.449,246.502 270.754,245.478 270.057,244.458 C269.727,243.975 269.405,243.48 269.07,243.003 C268.026,241.519 266.963,240.063 265.874,238.645 C265.857,238.622 265.839,238.599 265.821,238.576 C265.856,238.539 265.889,238.501 265.924,238.464 C266.324,238.036 266.727,237.618 267.129,237.199 C267.393,236.923 267.656,236.646 267.923,236.373 C268.423,235.862 268.925,235.36 269.429,234.862 C269.583,234.71 269.736,234.557 269.891,234.405 C270.491,233.818 271.093,233.238 271.698,232.67 C271.719,232.65 271.74,232.631 271.761,232.611 C291.078,214.481 312.741,205.611 328.105,201.317 C327.73,201.812 327.351,202.317 326.969,202.833 C326.889,202.942 326.807,203.055 326.726,203.165 C326.416,203.585 326.105,204.009 325.791,204.442 C325.643,204.647 325.492,204.859 325.343,205.067 C325.094,205.414 324.845,205.76 324.594,206.116 C324.425,206.355 324.254,206.602 324.084,206.845 C323.851,207.178 323.618,207.51 323.384,207.85 C323.204,208.111 323.023,208.379 322.842,208.644 C322.615,208.977 322.388,209.31 322.16,209.65 C321.974,209.927 321.787,210.21 321.6,210.492 C321.377,210.828 321.155,211.164 320.931,211.506 C320.741,211.797 320.55,212.092 320.359,212.388 C320.136,212.734 319.913,213.081 319.689,213.433 C319.498,213.734 319.307,214.037 319.116,214.342 C318.895,214.695 318.673,215.05 318.452,215.409 C318.258,215.723 318.064,216.04 317.87,216.359 C317.65,216.721 317.43,217.086 317.209,217.453 C317.015,217.776 316.821,218.101 316.628,218.429 C316.409,218.8 316.19,219.174 315.972,219.551 C315.777,219.887 315.582,220.223 315.387,220.564 C315.171,220.941 314.957,221.322 314.742,221.705 C314.546,222.053 314.351,222.4 314.156,222.753 C313.94,223.144 313.725,223.54 313.51,223.936 C313.32,224.286 313.129,224.635 312.94,224.989 C312.72,225.401 312.501,225.82 312.282,226.237 C312.098,226.587 311.914,226.935 311.732,227.289 C311.508,227.724 311.286,228.166 311.063,228.607 C310.888,228.953 310.713,229.295 310.539,229.644 C310.297,230.132 310.058,230.629 309.818,231.124 Z M216.395,276 C216.394,275.992 216.392,275.984 216.391,275.975 C216.346,275.689 216.295,275.409 216.249,275.124 C216.121,274.339 215.993,273.555 215.854,272.779 C215.777,272.347 215.692,271.922 215.612,271.493 C215.495,270.872 215.38,270.249 215.257,269.634 C215.163,269.163 215.061,268.697 214.963,268.229 C214.844,267.663 214.726,267.096 214.601,266.535 C214.494,266.052 214.381,265.574 214.269,265.094 C214.144,264.555 214.019,264.016 213.889,263.482 C213.771,262.996 213.647,262.514 213.525,262.032 C213.393,261.513 213.261,260.994 213.125,260.479 C212.996,259.993 212.864,259.511 212.731,259.028 C212.593,258.527 212.454,258.026 212.312,257.529 C212.173,257.043 212.031,256.559 211.888,256.077 C211.744,255.593 211.599,255.11 211.452,254.63 C211.304,254.147 211.154,253.666 211.002,253.188 C210.852,252.716 210.701,252.247 210.548,251.78 C210.391,251.3 210.232,250.821 210.071,250.346 C209.917,249.892 209.761,249.441 209.605,248.991 C209.438,248.512 209.271,248.034 209.101,247.559 C208.943,247.12 208.783,246.685 208.623,246.249 C208.448,245.774 208.273,245.298 208.095,244.828 C207.934,244.403 207.77,243.982 207.606,243.561 C207.423,243.09 207.241,242.618 207.055,242.152 C206.892,241.743 206.725,241.339 206.56,240.934 C206.368,240.464 206.177,239.992 205.982,239.527 C205.823,239.148 205.661,238.774 205.5,238.398 C205.294,237.916 205.089,237.431 204.88,236.954 C204.743,236.642 204.604,236.337 204.466,236.028 C203.624,234.139 202.761,232.296 201.881,230.499 C201.75,230.231 201.62,229.959 201.488,229.694 C201.252,229.218 201.013,228.751 200.775,228.282 C200.616,227.969 200.458,227.653 200.298,227.342 C200.067,226.893 199.833,226.451 199.6,226.008 C199.432,225.688 199.264,225.367 199.096,225.051 C198.865,224.618 198.633,224.193 198.4,223.766 C198.227,223.448 198.054,223.129 197.88,222.815 C197.65,222.399 197.42,221.989 197.189,221.58 C197.01,221.263 196.832,220.945 196.652,220.631 C196.424,220.233 196.196,219.839 195.968,219.446 C195.785,219.132 195.602,218.818 195.419,218.507 C195.192,218.122 194.964,217.74 194.737,217.361 C194.552,217.053 194.368,216.747 194.183,216.444 C193.956,216.071 193.73,215.702 193.503,215.335 C193.315,215.032 193.128,214.731 192.94,214.432 C192.717,214.076 192.494,213.722 192.272,213.372 C192.082,213.073 191.891,212.777 191.701,212.482 C191.48,212.139 191.259,211.797 191.039,211.46 C190.848,211.168 190.657,210.88 190.466,210.592 C190.248,210.263 190.031,209.934 189.813,209.611 C189.618,209.321 189.425,209.037 189.231,208.752 C189.02,208.442 188.809,208.13 188.599,207.826 C188.397,207.533 188.197,207.248 187.996,206.96 C187.794,206.671 187.592,206.379 187.391,206.095 C187.179,205.795 186.969,205.503 186.758,205.208 C186.572,204.949 186.386,204.685 186.201,204.431 C185.946,204.079 185.694,203.736 185.441,203.393 C185.302,203.204 185.162,203.01 185.024,202.824 C184.646,202.314 184.272,201.815 183.9,201.325 C200.59,205.996 224.706,216.067 245.197,237.542 C245.324,237.676 245.452,237.808 245.579,237.942 C246.101,238.494 246.62,239.059 247.137,239.626 C247.374,239.887 247.614,240.146 247.849,240.408 C248.264,240.871 248.675,241.344 249.086,241.817 C249.396,242.174 249.709,242.529 250.014,242.888 C250.384,243.323 250.75,243.768 251.117,244.211 C251.433,244.593 251.753,244.974 252.062,245.356 C252.706,246.154 253.347,246.961 253.98,247.786 C253.995,247.806 254.009,247.826 254.024,247.846 C254.933,249.03 255.819,250.249 256.693,251.487 C256.965,251.872 257.23,252.265 257.499,252.655 C258.132,253.576 258.757,254.51 259.371,255.46 C259.643,255.88 259.915,256.299 260.183,256.725 C260.886,257.84 261.575,258.975 262.252,260.127 C262.387,260.358 262.528,260.581 262.662,260.813 C263.463,262.197 264.243,263.611 265.006,265.047 C265.214,265.439 265.416,265.84 265.621,266.236 C266.181,267.315 266.732,268.408 267.272,269.515 C267.508,269.999 267.742,270.485 267.973,270.974 C268.517,272.123 269.048,273.289 269.569,274.468 C269.739,274.853 269.914,275.231 270.082,275.619 C270.136,275.744 270.186,275.875 270.24,276.001 L216.395,276.001 L216.395,276 Z M152.74,276 C152.694,275.63 152.638,275.267 152.591,274.899 C152.418,273.545 152.235,272.192 152.042,270.841 C151.963,270.289 151.884,269.736 151.802,269.186 C151.56,267.566 151.303,265.948 151.032,264.332 C150.995,264.113 150.962,263.892 150.924,263.674 C147.516,243.676 141.865,223.969 134.039,204.874 C133.924,204.592 133.776,204.326 133.627,204.061 C120.526,172.411 103.4,146.801 88.408,128.121 C78.07,115.24 67.981,104.593 59.305,96.242 C81.093,103.802 111.962,117.236 145.164,140.27 C150.662,144.084 156.019,148.545 161.229,153.617 C161.799,154.172 162.367,154.736 162.933,155.306 C163.224,155.599 163.515,155.893 163.805,156.19 C164.368,156.766 164.93,157.349 165.49,157.94 C165.765,158.231 166.04,158.525 166.315,158.819 C166.894,159.44 167.471,160.066 168.046,160.702 C168.281,160.962 168.515,161.226 168.749,161.489 C169.361,162.175 169.972,162.866 170.579,163.57 C170.746,163.763 170.911,163.961 171.077,164.155 C171.749,164.941 172.42,165.733 173.087,166.542 C173.115,166.576 173.143,166.612 173.171,166.646 C176.997,171.295 180.731,176.312 184.365,181.676 C184.502,181.879 184.641,182.078 184.778,182.282 C185.341,183.119 185.899,183.969 186.457,184.823 C186.687,185.175 186.918,185.525 187.147,185.88 C187.317,186.143 187.485,186.413 187.654,186.677 C174.551,183.085 165.435,182.47 164.4,182.411 C164.396,182.411 164.383,182.41 164.379,182.41 L164.378,182.41 C163.043,182.336 161.757,182.638 160.612,183.211 C159.385,183.824 158.324,184.752 157.584,185.946 C157.383,186.27 157.204,186.612 157.051,186.971 C155.97,189.521 156.392,192.424 158.071,194.549 C158.311,194.853 158.577,195.14 158.867,195.409 C158.878,195.419 158.927,195.465 158.999,195.534 C159.025,195.559 159.073,195.606 159.106,195.637 C159.17,195.698 159.234,195.76 159.324,195.847 C159.38,195.901 159.458,195.979 159.523,196.044 C159.62,196.14 159.716,196.234 159.834,196.352 C159.913,196.431 160.012,196.531 160.1,196.621 C160.232,196.755 160.365,196.888 160.517,197.044 C160.622,197.151 160.742,197.277 160.856,197.394 C161.017,197.56 161.179,197.729 161.357,197.915 C161.484,198.048 161.624,198.198 161.76,198.341 C161.95,198.543 162.144,198.749 162.35,198.971 C162.496,199.128 162.652,199.299 162.806,199.466 C163.024,199.704 163.247,199.947 163.48,200.205 C163.644,200.387 163.816,200.58 163.988,200.771 C164.229,201.041 164.475,201.318 164.729,201.607 C164.913,201.817 165.103,202.035 165.294,202.255 C165.556,202.557 165.823,202.868 166.097,203.188 C166.295,203.421 166.497,203.659 166.701,203.902 C166.984,204.238 167.273,204.585 167.566,204.939 C167.777,205.194 167.99,205.453 168.206,205.718 C168.509,206.09 168.819,206.475 169.132,206.866 C169.351,207.139 169.57,207.414 169.793,207.696 C170.116,208.105 170.445,208.529 170.776,208.958 C171.002,209.25 171.228,209.541 171.457,209.843 C171.798,210.29 172.144,210.753 172.492,211.219 C172.721,211.526 172.949,211.829 173.18,212.144 C173.542,212.636 173.909,213.147 174.277,213.659 C174.503,213.973 174.726,214.281 174.954,214.603 C175.34,215.149 175.732,215.717 176.123,216.284 C176.337,216.595 176.55,216.898 176.766,217.215 C177.191,217.841 177.62,218.49 178.049,219.14 C178.234,219.421 178.418,219.692 178.604,219.978 C179.114,220.762 179.626,221.57 180.138,222.387 C180.244,222.557 180.35,222.718 180.456,222.889 C181.706,224.9 182.958,227.01 184.197,229.216 C184.315,229.426 184.431,229.646 184.549,229.858 C185.042,230.744 185.533,231.638 186.02,232.554 C186.209,232.909 186.394,233.278 186.582,233.638 C186.994,234.428 187.406,235.219 187.812,236.03 C188.027,236.46 188.238,236.903 188.451,237.339 C188.823,238.1 189.196,238.862 189.561,239.641 C189.787,240.123 190.008,240.618 190.232,241.107 C190.576,241.86 190.919,242.613 191.255,243.382 C191.485,243.907 191.709,244.444 191.935,244.976 C192.254,245.729 192.572,246.485 192.883,247.253 C193.11,247.814 193.331,248.383 193.553,248.951 C193.851,249.713 194.146,250.477 194.434,251.253 C194.654,251.844 194.868,252.442 195.082,253.041 C195.358,253.814 195.63,254.591 195.896,255.376 C196.105,255.995 196.31,256.619 196.512,257.246 C196.766,258.033 197.016,258.827 197.259,259.626 C197.454,260.268 197.645,260.913 197.833,261.563 C198.065,262.368 198.29,263.18 198.51,263.996 C198.689,264.66 198.865,265.326 199.035,265.997 C199.243,266.819 199.442,267.648 199.637,268.481 C199.797,269.165 199.956,269.85 200.107,270.542 C200.29,271.383 200.461,272.234 200.63,273.087 C200.769,273.788 200.908,274.489 201.037,275.198 C201.085,275.462 201.125,275.731 201.171,275.996 L152.74,275.996 L152.74,276 Z M215.788,129.885 C215.793,129.894 215.797,129.904 215.802,129.913 C216.807,131.753 217.797,133.606 218.773,135.458 C218.905,135.709 219.037,135.961 219.169,136.213 C220.13,138.047 221.076,139.881 221.994,141.701 L221.994,141.7 C222.662,143.025 223.306,144.376 223.937,145.744 C224.137,146.178 224.328,146.623 224.525,147.061 C224.95,148.011 225.37,148.968 225.777,149.939 C225.995,150.457 226.207,150.981 226.419,151.506 C226.795,152.434 227.164,153.372 227.524,154.318 C227.727,154.851 227.93,155.385 228.128,155.925 C228.498,156.933 228.856,157.955 229.209,158.983 C229.373,159.462 229.542,159.936 229.703,160.42 C230.186,161.877 230.655,163.35 231.102,164.845 C231.119,164.901 231.137,164.954 231.154,165.01 C231.618,166.567 232.06,168.148 232.486,169.747 C232.617,170.237 232.739,170.737 232.866,171.231 C233.154,172.352 233.437,173.479 233.707,174.62 C233.848,175.217 233.984,175.82 234.12,176.422 C234.363,177.496 234.597,178.578 234.824,179.669 C234.953,180.29 235.081,180.912 235.205,181.539 C235.431,182.684 235.645,183.842 235.854,185.006 C235.956,185.573 236.062,186.136 236.159,186.707 C236.426,188.274 236.678,189.858 236.914,191.458 C236.939,191.627 236.968,191.792 236.993,191.961 C237.249,193.729 237.483,195.521 237.701,197.329 C237.769,197.895 237.828,198.471 237.893,199.041 C238.036,200.302 238.173,201.568 238.298,202.848 C238.365,203.538 238.426,204.233 238.488,204.928 C238.594,206.125 238.693,207.329 238.784,208.541 C238.837,209.258 238.89,209.975 238.938,210.697 C238.964,211.091 238.983,211.492 239.007,211.887 C229.148,204.386 219.141,198.784 209.788,194.604 C209.252,193.628 208.711,192.664 208.169,191.703 C208.068,191.524 207.968,191.34 207.867,191.161 C206.95,189.543 206.023,187.953 205.09,186.379 C204.821,185.925 204.551,185.475 204.281,185.025 C203.471,183.676 202.656,182.342 201.834,181.027 C201.64,180.716 201.447,180.402 201.252,180.093 C200.379,178.709 199.498,177.349 198.612,176.003 C198.273,175.488 197.933,174.976 197.592,174.466 C196.794,173.273 195.992,172.094 195.184,170.932 C194.863,170.47 194.541,170.012 194.218,169.555 C193.427,168.434 192.63,167.329 191.83,166.237 C191.474,165.752 191.117,165.268 190.76,164.789 C189.83,163.543 188.895,162.31 187.953,161.103 C187.731,160.819 187.507,160.543 187.285,160.262 C186.433,159.184 185.577,158.123 184.715,157.077 C184.404,156.699 184.093,156.322 183.78,155.948 C182.754,154.721 181.724,153.512 180.685,152.332 C180.535,152.162 180.384,151.998 180.234,151.829 C179.276,150.749 178.313,149.692 177.344,148.653 C177.088,148.378 176.832,148.102 176.575,147.83 C175.56,146.755 174.541,145.693 173.515,144.662 C171.841,106.791 166.214,75.18 161.571,54.64 C175.841,69.566 196.397,94.395 215.788,129.885 Z M255.998,31.408 C264.879,58.806 279.833,108.575 287.014,153.285 C287.105,153.85 287.193,154.411 287.28,154.971 C287.417,155.847 287.551,156.72 287.682,157.591 C287.811,158.448 287.937,159.302 288.058,160.147 C288.121,160.588 288.185,161.029 288.246,161.469 C288.415,162.672 288.578,163.867 288.732,165.045 C288.759,165.251 288.784,165.456 288.811,165.662 C288.958,166.801 289.097,167.929 289.23,169.046 C289.254,169.244 289.278,169.443 289.301,169.641 C289.45,170.914 289.59,172.173 289.721,173.416 C289.733,173.528 289.744,173.64 289.755,173.752 C289.879,174.948 289.995,176.129 290.102,177.296 C290.112,177.405 290.123,177.515 290.133,177.624 C290.245,178.862 290.348,180.084 290.441,181.29 C290.449,181.399 290.457,181.506 290.465,181.614 C290.547,182.7 290.621,183.772 290.687,184.831 C290.698,185.003 290.709,185.176 290.72,185.348 C290.789,186.487 290.849,187.611 290.9,188.719 C290.906,188.847 290.91,188.974 290.916,189.102 C290.958,190.053 290.991,190.99 291.019,191.917 C291.027,192.181 291.035,192.446 291.042,192.709 C291.069,193.75 291.09,194.781 291.099,195.792 C291.112,197.259 291.121,198.704 291.127,200.134 C279.455,206.547 267.286,215.261 256.007,227.111 C255.519,226.598 255.028,226.093 254.537,225.591 C254.528,224.945 254.504,224.314 254.491,223.672 C254.47,222.577 254.445,221.485 254.413,220.4 C254.378,219.237 254.334,218.082 254.286,216.93 C254.242,215.862 254.195,214.796 254.14,213.737 C254.08,212.591 254.01,211.455 253.937,210.32 C253.87,209.279 253.802,208.24 253.724,207.21 C253.639,206.08 253.542,204.96 253.443,203.842 C253.354,202.829 253.265,201.816 253.165,200.813 C253.054,199.701 252.931,198.602 252.807,197.503 C252.696,196.516 252.585,195.528 252.463,194.551 C252.326,193.458 252.176,192.378 252.027,191.298 C251.894,190.338 251.763,189.376 251.619,188.426 C251.456,187.351 251.279,186.29 251.103,185.228 C250.948,184.296 250.797,183.36 250.632,182.437 C250.443,181.381 250.239,180.341 250.037,179.299 C249.861,178.393 249.689,177.482 249.503,176.586 C249.288,175.551 249.056,174.532 248.828,173.51 C248.631,172.63 248.44,171.745 248.233,170.876 C247.99,169.857 247.73,168.856 247.474,167.851 C247.258,167.003 247.048,166.148 246.821,165.31 C246.549,164.302 246.258,163.313 245.972,162.319 C245.738,161.507 245.512,160.688 245.268,159.886 C244.964,158.884 244.64,157.903 244.321,156.916 C244.072,156.146 243.832,155.367 243.574,154.607 C243.233,153.602 242.871,152.619 242.515,151.63 C242.256,150.911 242.006,150.182 241.739,149.471 C241.349,148.437 240.937,147.426 240.53,146.41 C240.273,145.77 240.028,145.118 239.764,144.485 C239.282,143.328 238.776,142.197 238.271,141.065 C238.061,140.595 237.864,140.114 237.65,139.648 C236.92,138.057 236.167,136.489 235.39,134.948 C235.39,134.947 235.39,134.947 235.39,134.947 C235.361,134.89 235.33,134.832 235.301,134.774 C234.556,133.299 233.809,131.845 233.059,130.401 C232.941,130.173 232.823,129.947 232.704,129.72 C231.904,128.186 231.102,126.665 230.297,125.166 C238.043,89.042 248.937,53.173 255.998,31.408 Z M350.461,54.511 C345.812,75.048 340.166,106.714 338.488,144.662 C337.465,145.69 336.45,146.748 335.438,147.82 C335.228,148.042 335.018,148.265 334.809,148.489 C333.748,149.625 332.694,150.782 331.646,151.966 C331.442,152.196 331.24,152.431 331.036,152.663 C330.03,153.811 329.029,154.976 328.036,156.168 C327.898,156.334 327.759,156.499 327.621,156.665 C326.653,157.834 325.692,159.03 324.736,160.241 C324.464,160.585 324.192,160.927 323.921,161.275 C322.987,162.474 322.058,163.694 321.136,164.932 C320.831,165.341 320.528,165.754 320.225,166.167 C319.305,167.42 318.389,168.686 317.481,169.978 C317.239,170.322 317,170.674 316.76,171.02 C315.966,172.163 315.177,173.321 314.393,174.494 C314.152,174.855 313.909,175.211 313.668,175.575 C312.76,176.949 311.861,178.348 310.966,179.761 C310.709,180.168 310.451,180.575 310.195,180.986 C309.287,182.439 308.385,183.91 307.491,185.404 C307.299,185.725 307.108,186.05 306.917,186.373 C306.574,186.952 306.228,187.527 305.887,188.112 C305.875,187.839 305.857,187.557 305.844,187.283 C304.951,168.841 301.788,148.131 297.551,127.459 C315.515,95.125 335.366,70.385 350.461,54.511 Z M501.547,291 C505.689,291 509.047,287.643 509.047,283.5 C509.047,279.357 505.689,276 501.547,276 L443.399,276 C443.353,270.622 443.699,265.214 444.455,259.847 C445.033,255.745 442.176,251.952 438.075,251.374 C433.969,250.793 430.179,253.653 429.602,257.755 C428.748,263.813 428.344,269.923 428.39,276 L374.4,276 C374.82,272.797 375.284,269.625 375.815,266.499 C375.847,266.309 375.881,266.118 375.913,265.928 C379.308,246.199 384.831,228.023 391.526,211.533 C394.347,208.332 397.314,205.378 400.364,202.746 C424.528,181.891 456.795,170.724 479.151,165.077 C469.475,174.98 458.031,188.544 448.428,205.108 C446.351,208.692 447.572,213.281 451.156,215.358 C454.738,217.434 459.328,216.214 461.406,212.631 C480.622,179.482 508.65,158.712 508.925,158.51 C511.673,156.502 512.725,152.898 511.488,149.728 C510.251,146.558 507.032,144.612 503.655,145.001 C501.199,145.28 449.738,151.424 407.268,178.929 C416.337,162.809 426.056,149.052 434.977,137.9 C461.745,104.44 487.364,86.325 487.615,86.149 C490.483,84.147 491.586,80.428 490.274,77.186 C488.962,73.944 485.583,72.042 482.13,72.595 C479.787,72.972 424.002,82.355 358.287,127.945 C356.962,128.864 355.646,129.816 354.338,130.799 C358.541,74.141 371.272,34.198 371.412,33.765 C372.424,30.644 371.289,27.227 368.611,25.331 C365.932,23.434 362.333,23.498 359.725,25.492 C358.221,26.64 325.6,51.929 292.763,105.868 C280.529,54.402 264.146,8.413 263.061,5.389 C261.992,2.409 259.167,0.421 256.001,0.421 C252.835,0.421 250.01,2.409 248.941,5.389 C248.751,5.92 231.783,53.456 219.282,105.908 C186.496,52.007 153.867,26.707 152.275,25.491 C149.669,23.499 146.07,23.436 143.393,25.331 C140.715,27.225 139.58,30.641 140.589,33.762 C140.73,34.199 153.461,74.141 157.664,130.799 C156.356,129.816 155.039,128.864 153.714,127.945 C88,82.357 32.215,72.974 29.872,72.597 C26.419,72.041 23.04,73.946 21.728,77.188 C20.416,80.43 21.519,84.149 24.387,86.151 C24.639,86.328 49.955,104.172 76.71,137.51 C85.735,148.756 95.571,162.644 104.736,178.933 C62.266,151.426 10.803,145.282 8.347,145.003 C4.973,144.627 1.751,146.559 0.514,149.73 C-0.723,152.9 0.329,156.504 3.077,158.512 C3.357,158.716 31.304,179.353 50.596,212.631 C52.674,216.215 57.263,217.437 60.846,215.358 C64.429,213.281 65.65,208.692 63.573,205.108 C53.963,188.531 42.51,174.961 32.829,165.055 C55.167,170.687 87.421,181.846 111.638,202.747 C114.69,205.381 117.659,208.337 120.482,211.539 C127.169,228.011 132.683,246.161 136.078,265.857 C136.113,266.06 136.148,266.263 136.183,266.466 C136.716,269.603 137.182,272.786 137.604,276 L83.612,276 C83.658,269.922 83.253,263.812 82.4,257.755 C81.822,253.653 78.034,250.797 73.927,251.374 C69.825,251.952 66.969,255.745 67.547,259.847 C68.303,265.213 68.65,270.622 68.603,276 L10.453,276 C6.311,276 2.953,279.357 2.953,283.5 C2.953,287.643 6.311,291 10.453,291 L501.547,291 Z" id="Fill-1" fill="#0A090B" mask="url(#mask-2)"></path>
    </g>
</svg>