<?xml version="1.0" encoding="UTF-8"?>
<svg width="384px" height="480px" viewBox="0 0 384 480" version="1.1" xmlns="http://www.w3.org/2000/svg" xmlns:xlink="http://www.w3.org/1999/xlink">
    <!-- Generator: Sketch 51.2 (57519) - http://www.bohemiancoding.com/sketch -->
    <title>high-electric-pole</title>
    <desc>Created with Sketch.</desc>
    <defs>
        <polygon id="path-1" points="0 0.000434752321 384 0.000434752321 384 479.94 0 479.94"></polygon>
    </defs>
    <g id="high-electric-pole" stroke="none" stroke-width="1" fill="none" fill-rule="evenodd">
        <mask id="mask-2" fill="white">
            <use xlink:href="#path-1"></use>
        </mask>
        <g id="Clip-2"></g>
        <path d="M0,472 C0,476.418 3.582,480 8,480 L376,480 C380.418,480 384,476.418 384,472 C384,467.582 380.418,464 376,464 L309.688,464 L251.289,296.004 L304,296.004 L304,312.004 C304,316.422 307.582,320.004 312,320.004 C316.418,320.004 320,316.422 320,312.004 L320,287.898 C319.992,286.934 319.797,285.977 319.434,285.082 C319.316,284.832 319.184,284.59 319.031,284.355 C318.738,283.762 318.367,283.207 317.93,282.707 C317.68,282.453 317.41,282.215 317.129,281.996 C316.914,281.766 316.684,281.547 316.441,281.348 L248,235.723 L248,200.004 L304,200.004 L304,216.004 C304,220.422 307.582,224.004 312,224.004 C316.418,224.004 320,220.422 320,216.004 L320,191.898 C319.992,190.934 319.797,189.977 319.434,189.082 C319.316,188.832 319.184,188.59 319.031,188.355 C318.738,187.762 318.367,187.207 317.93,186.707 C317.68,186.453 317.41,186.215 317.129,185.996 C316.914,185.766 316.684,185.547 316.441,185.348 L248,139.723 L248,104.004 L304,104.004 L304,120.004 C304,124.422 307.582,128.004 312,128.004 C316.418,128.004 320,124.422 320,120.004 L320,95.898 C319.992,94.934 319.797,93.977 319.434,93.082 C319.316,92.832 319.184,92.59 319.031,92.355 C318.738,91.762 318.367,91.207 317.93,90.707 C317.68,90.453 317.41,90.215 317.129,89.996 C316.914,89.766 316.684,89.547 316.441,89.348 L248.898,44.312 L255.84,9.602 C256.484,6.387 255.094,3.102 252.34,1.32 C249.586,-0.461 246.023,-0.383 243.352,1.523 L192,38.172 L140.648,1.492 C137.973,-0.422 134.398,-0.5 131.641,1.293 C128.883,3.082 127.504,6.379 128.16,9.602 L135.105,44.348 L67.562,89.379 C67.32,89.578 67.09,89.797 66.875,90.027 C66.59,90.246 66.324,90.484 66.074,90.738 C65.637,91.238 65.266,91.793 64.969,92.387 C64.82,92.621 64.688,92.863 64.57,93.113 C64.203,94.008 64.012,94.965 64,95.93 L64,120.004 C64,124.422 67.582,128.004 72,128.004 C76.418,128.004 80,124.422 80,120.004 L80,104.004 L136,104.004 L136,139.723 L67.562,185.324 C67.32,185.523 67.09,185.738 66.875,185.969 C66.59,186.191 66.324,186.426 66.074,186.684 C65.637,187.184 65.266,187.734 64.969,188.332 C64.82,188.562 64.688,188.809 64.57,189.059 C64.203,189.953 64.012,190.91 64,191.875 L64,216.004 C64,220.422 67.582,224.004 72,224.004 C76.418,224.004 80,220.422 80,216.004 L80,200.004 L136,200.004 L136,235.723 L67.562,281.324 C67.32,281.523 67.09,281.738 66.875,281.969 C66.59,282.191 66.324,282.426 66.074,282.684 C65.637,283.184 65.266,283.734 64.969,284.332 C64.82,284.562 64.688,284.809 64.57,285.059 C64.203,285.953 64.012,286.91 64,287.875 L64,312.004 C64,316.422 67.582,320.004 72,320.004 C76.418,320.004 80,316.422 80,312.004 L80,296.004 L132.746,296.004 L74.344,464 L8,464 C3.582,464 0,467.582 0,472 Z M248,62.945 L285.602,88.004 L248,88.004 L248,62.945 Z M248,158.945 L285.602,184.004 L248,184.004 L248,158.945 Z M101.602,464 L192,386.539 L282.402,464 L101.602,464 Z M232,252.5 L232,280.004 L209.082,280.004 L232,252.5 Z M191.465,276.152 L163.312,248.004 L214.922,248.004 L191.465,276.152 Z M209.082,232.004 L232,204.5 L232,232.004 L209.082,232.004 Z M191.48,228.152 L163.312,200.004 L214.922,200.004 L191.48,228.152 Z M209.082,184.004 L232,156.5 L232,184.004 L209.082,184.004 Z M191.48,180.152 L163.312,152.004 L214.922,152.004 L191.48,180.152 Z M209.082,136.004 L232,108.5 L232,136.004 L209.082,136.004 Z M214.922,104.004 L191.465,132.152 L163.312,104.004 L214.922,104.004 Z M209.082,88.004 L232,60.5 L232,88.004 L209.082,88.004 Z M152,88.004 L152,67.312 L172.688,88.004 L152,88.004 Z M172.688,136.004 L152,136.004 L152,115.312 L172.688,136.004 Z M172.688,184.004 L152,184.004 L152,163.312 L172.688,184.004 Z M172.688,232.004 L152,232.004 L152,211.312 L172.688,232.004 Z M172.688,280.004 L152,280.004 L152,259.312 L172.688,280.004 Z M226.52,296.004 L192,359.297 L157.48,296.004 L226.52,296.004 Z M264.863,383.828 L286.715,446.637 L213.602,384.004 L264,384.004 C264.293,383.961 264.582,383.902 264.863,383.828 Z M248,254.945 L285.602,280.004 L248,280.004 L248,254.945 Z M259.359,368.004 L205.48,368.004 L238.402,307.684 L259.359,368.004 Z M236.16,26.273 L233.441,40.004 L216.969,40.004 L236.16,26.273 Z M214.922,56.004 L191.465,84.152 L163.312,56.004 L214.922,56.004 Z M167.031,40.004 L150.562,40.004 L147.816,26.273 L167.031,40.004 Z M98.402,88.004 L136,62.945 L136,88.004 L98.402,88.004 Z M98.402,184.004 L136,158.945 L136,184.004 L98.402,184.004 Z M98.402,280.004 L136,254.945 L136,280.004 L98.402,280.004 Z M145.602,307.684 L178.52,368.004 L124.641,368.004 L145.602,307.684 Z M119.113,383.828 C119.406,383.902 119.703,383.961 120,384.004 L170.402,384.004 L97.312,446.637 L119.113,383.828 Z" id="Fill-1" fill="#000000" mask="url(#mask-2)"></path>
    </g>
</svg>