<?xml version="1.0" encoding="UTF-8"?>
<svg width="512px" height="512px" viewBox="0 0 512 512" version="1.1" xmlns="http://www.w3.org/2000/svg" xmlns:xlink="http://www.w3.org/1999/xlink">
    <!-- Generator: Sketch 51.2 (57519) - http://www.bohemiancoding.com/sketch -->
    <title>house</title>
    <desc>Created with Sketch.</desc>
    <defs>
        <polygon id="path-1" points="0.06 0.0242512093 511.999475 0.0242512093 511.999475 511.988 0.06 511.988"></polygon>
    </defs>
    <g id="house" stroke="none" stroke-width="1" fill="none" fill-rule="evenodd">
        <g id="Group-3">
            <mask id="mask-2" fill="white">
                <use xlink:href="#path-1"></use>
            </mask>
            <g id="Clip-2"></g>
            <path d="M486.18,403.254 C485.34,387.844 475.332,374.449 460.793,369.285 L460.793,179.203 L472.738,186.441 C476.824,189.016 481.559,190.383 486.391,190.383 C497.828,190.387 507.875,182.805 511.016,171.805 C514.152,160.809 509.613,149.062 499.898,143.031 L269.656,3.953 C261.363,-1.254 250.828,-1.289 242.504,3.871 L11.961,143.102 C3.199,148.617 -1.375,158.867 0.367,169.074 C2.109,179.277 9.828,187.43 19.922,189.727 C21.809,190.156 23.738,190.375 25.676,190.375 C30.43,190.383 35.086,189.039 39.102,186.5 L51.211,179.203 L51.211,369.285 C36.676,374.449 26.664,387.844 25.828,403.254 C10.41,408.617 0.059,423.133 0.016,439.461 C0.031,448.109 3.023,456.488 8.488,463.195 C3.262,466.23 0.035,471.812 0.016,477.855 L0.016,494.922 C0.016,504.348 7.656,511.988 17.082,511.988 L494.926,511.988 C504.352,511.988 511.988,504.348 511.988,494.922 L511.988,477.855 C511.957,471.809 508.73,466.227 503.508,463.188 C508.977,456.484 511.969,448.109 511.988,439.461 C511.945,423.133 501.598,408.617 486.18,403.254 Z M469.324,405.328 C469.344,406.184 469.277,407.043 469.129,407.887 C469.121,408.035 469.121,408.188 469.129,408.34 C469.129,408.492 469,408.613 468.984,408.766 C468.977,409.191 469.008,409.617 469.078,410.035 C468.996,411.156 469.242,412.273 469.785,413.254 C469.973,413.742 470.211,414.211 470.492,414.652 C470.824,415.098 471.199,415.504 471.613,415.875 C471.977,416.258 472.379,416.605 472.805,416.914 C473.297,417.207 473.816,417.445 474.359,417.633 C474.723,417.832 475.105,418.008 475.496,418.152 C475.699,418.188 475.902,418.211 476.109,418.219 C476.203,418.219 476.27,418.297 476.363,418.305 C486.984,419.699 494.926,428.75 494.926,439.461 C494.852,451.207 485.344,460.715 473.59,460.789 L379.727,460.789 C367.945,460.789 358.395,451.238 358.395,439.461 C358.379,433.77 360.672,428.316 364.754,424.348 C367.371,421.68 370.672,419.785 374.293,418.867 L374.352,418.867 C375.172,418.652 375.953,418.316 376.672,417.871 C376.793,417.793 376.852,417.664 376.965,417.59 C377.438,417.227 377.875,416.812 378.262,416.359 C378.633,416.008 378.969,415.625 379.27,415.207 C379.539,414.734 379.762,414.238 379.934,413.723 C380.156,413.23 380.332,412.719 380.461,412.195 C380.547,411.094 380.527,409.984 380.41,408.883 C380.41,408.75 380.41,408.621 380.41,408.484 C380.254,408.074 380.062,407.684 379.84,407.305 C379.719,406.895 379.566,406.492 379.387,406.102 C376.805,402.047 375.441,397.336 375.461,392.527 C375.43,380.223 384.176,369.648 396.266,367.367 C408.359,365.086 420.355,371.75 424.809,383.215 C426.062,386.16 426.695,389.328 426.66,392.527 C426.66,397.023 425.465,401.441 423.199,405.328 C421.648,407.969 421.633,411.238 423.16,413.891 C424.684,416.547 427.516,418.184 430.574,418.176 C433.637,418.168 436.461,416.523 437.973,413.859 C441.727,407.375 443.707,400.02 443.723,392.527 C443.715,389.891 443.457,387.262 442.957,384.676 C444.602,384.246 446.293,384.016 447.992,383.992 C459.773,383.992 469.324,393.543 469.324,405.328 Z M358.395,366.93 L358.395,332.797 L375.461,332.797 L375.461,358.617 C370.027,362.715 365.656,368.051 362.703,374.18 C360.074,372.711 358.43,369.945 358.395,366.93 Z M401.062,281.602 C405.773,281.602 409.594,285.422 409.594,290.133 L409.594,315.73 L392.527,315.73 L392.527,281.602 L401.062,281.602 Z M401.062,349.863 C398.195,349.859 395.336,350.145 392.527,350.715 L392.527,332.797 L409.594,332.797 L409.594,350.82 C406.789,350.215 403.93,349.895 401.062,349.863 Z M375.461,315.73 L358.395,315.73 L358.395,290.133 C358.395,285.422 362.215,281.602 366.93,281.602 L375.461,281.602 L375.461,315.73 Z M30.156,171.984 C26.191,174.434 21,173.258 18.484,169.336 C15.969,165.418 17.062,160.203 20.938,157.625 L251.465,18.383 C252.82,17.527 254.395,17.074 256.004,17.078 C257.676,17.082 259.312,17.562 260.723,18.461 L490.973,157.547 C493.539,159.191 495.035,162.082 494.891,165.129 C494.75,168.176 492.992,170.914 490.285,172.316 C487.574,173.715 484.324,173.562 481.758,171.918 L260.422,38.004 C257.707,36.355 254.301,36.355 251.582,38.004 L30.156,171.984 Z M256.004,55.281 L443.723,168.863 L443.723,367.23 C441.223,367.516 438.754,368.047 436.359,368.824 C433.734,364.852 430.457,361.355 426.66,358.48 L426.66,290.133 C426.66,275.996 415.199,264.535 401.062,264.535 L366.93,264.535 C352.789,264.535 341.332,275.996 341.332,290.133 L341.332,366.93 C341.363,377.797 348.273,387.457 358.547,391 C358.547,391.52 358.395,392.004 358.395,392.527 C358.422,397.156 359.203,401.75 360.715,406.129 C357.758,407.801 355.047,409.879 352.66,412.297 C339.625,425.207 337.598,445.562 347.836,460.789 L324.266,460.789 L324.266,281.602 C324.266,262.75 308.984,247.469 290.133,247.469 L221.871,247.469 C203.02,247.469 187.738,262.75 187.738,281.602 L187.738,460.789 L164.172,460.789 C168.414,454.484 170.676,447.059 170.672,439.461 C170.723,429.305 166.68,419.555 159.453,412.418 C157.031,409.953 154.281,407.84 151.277,406.137 C152.793,401.758 153.582,397.16 153.605,392.527 C153.605,391.988 153.531,391.512 153.512,390.98 C163.75,387.406 170.625,377.77 170.672,366.93 L170.672,290.133 C170.672,275.996 159.211,264.535 145.074,264.535 L110.945,264.535 C96.805,264.535 85.344,275.996 85.344,290.133 L85.344,358.559 C81.59,361.426 78.324,364.883 75.676,368.801 C73.27,368.031 70.789,367.5 68.277,367.219 L68.277,168.863 L256.004,55.281 Z M307.199,460.789 L204.805,460.789 L204.805,281.602 C204.805,272.176 212.445,264.535 221.871,264.535 L290.133,264.535 C299.559,264.535 307.199,272.176 307.199,281.602 L307.199,460.789 Z M145.074,281.602 C149.785,281.602 153.605,285.422 153.605,290.133 L153.605,315.73 L136.539,315.73 L136.539,281.602 L145.074,281.602 Z M149.34,374.121 C146.359,368.035 141.973,362.742 136.539,358.688 L136.539,332.797 L153.605,332.797 L153.605,366.93 C153.562,369.914 151.938,372.652 149.34,374.121 Z M119.473,315.73 L102.41,315.73 L102.41,290.133 C102.41,285.422 106.23,281.602 110.945,281.602 L119.473,281.602 L119.473,315.73 Z M102.41,332.797 L119.473,332.797 L119.473,350.887 C113.844,349.758 108.043,349.758 102.41,350.887 L102.41,332.797 Z M35.66,418.305 C35.754,418.305 35.82,418.238 35.914,418.219 C36.121,418.203 36.324,418.172 36.527,418.125 C36.922,417.98 37.305,417.805 37.672,417.605 C38.207,417.422 38.723,417.184 39.203,416.898 C39.645,416.582 40.055,416.219 40.426,415.82 C40.828,415.465 41.195,415.07 41.527,414.645 C41.812,414.184 42.055,413.699 42.25,413.195 C42.789,412.215 43.031,411.098 42.941,409.984 C43.004,409.574 43.035,409.156 43.035,408.738 C43.035,408.586 42.918,408.465 42.891,408.312 C42.863,408.16 42.891,408.016 42.891,407.859 C42.738,407.023 42.668,406.176 42.676,405.328 C42.676,393.543 52.23,383.992 64.012,383.992 C65.715,384.016 67.406,384.242 69.055,384.676 C68.547,387.262 68.289,389.891 68.277,392.527 C68.293,400.016 70.273,407.371 74.02,413.859 C76.375,417.945 81.598,419.348 85.684,416.992 C89.77,414.637 91.172,409.414 88.816,405.328 C86.543,401.445 85.344,397.027 85.344,392.527 C85.324,389.238 85.988,385.977 87.297,382.961 C91.43,372.703 101.703,366.27 112.738,367.031 C123.773,367.793 133.062,375.574 135.746,386.305 C136.301,388.332 136.566,390.426 136.539,392.527 C136.562,397.324 135.211,402.027 132.641,406.078 C132.457,406.469 132.305,406.875 132.188,407.289 C131.965,407.66 131.773,408.051 131.617,408.457 L131.617,408.859 C131.5,409.957 131.48,411.066 131.566,412.172 C131.695,412.695 131.871,413.207 132.094,413.699 C132.266,414.215 132.488,414.711 132.762,415.184 C133.059,415.598 133.395,415.984 133.766,416.336 C134.156,416.789 134.59,417.199 135.062,417.562 C135.176,417.641 135.234,417.77 135.355,417.844 C136.074,418.289 136.855,418.629 137.676,418.844 L137.734,418.844 C141.406,419.777 144.746,421.711 147.387,424.434 C151.402,428.395 153.648,433.816 153.605,439.461 C153.605,451.238 144.055,460.789 132.273,460.789 L38.414,460.789 C26.664,460.715 17.156,451.207 17.082,439.461 C17.082,428.742 25.031,419.691 35.66,418.305 Z M17.082,494.922 L153.605,494.922 L153.605,477.855 L17.082,477.855 L17.082,494.922 Z M170.672,494.922 L341.332,494.922 L341.332,477.855 L170.672,477.855 L170.672,494.922 Z M358.395,494.922 L494.926,494.922 L494.926,477.855 L358.395,477.855 L358.395,494.922 Z" id="Fill-1" fill="#000000" mask="url(#mask-2)"></path>
        </g>
        <path d="M290.133,375.461 C290.133,380.172 286.312,383.992 281.598,383.992 C276.887,383.992 273.066,380.172 273.066,375.461 C273.066,370.75 276.887,366.93 281.598,366.93 C286.312,366.93 290.133,370.75 290.133,375.461 Z" id="Fill-4" fill="#000000"></path>
        <path d="M221.871,230.402 L290.133,230.402 C299.559,230.402 307.199,222.758 307.199,213.34 L307.199,145.07 C307.199,116.797 284.277,93.875 256.004,93.875 C227.727,93.875 204.805,116.797 204.805,145.07 L204.805,213.34 C204.805,222.758 212.445,230.402 221.871,230.402 Z M221.871,213.34 L247.469,213.34 L247.469,179.203 L221.871,179.203 L221.871,213.34 Z M264.535,213.34 L290.133,213.34 L290.133,179.203 L264.535,179.203 L264.535,213.34 Z M290.133,145.07 L290.133,162.137 L264.535,162.137 L264.535,112.152 C279.559,116.031 290.074,129.559 290.133,145.07 Z M247.469,112.152 L247.469,162.137 L221.871,162.137 L221.871,145.07 C221.93,129.559 232.445,116.031 247.469,112.152 Z" id="Fill-5" fill="#000000"></path>
    </g>
</svg>