<?xml version="1.0" encoding="UTF-8"?>
<svg width="512px" height="434px" viewBox="0 0 512 434" version="1.1" xmlns="http://www.w3.org/2000/svg" xmlns:xlink="http://www.w3.org/1999/xlink">
    <!-- Generator: Sketch 51.2 (57519) - http://www.bohemiancoding.com/sketch -->
    <title>left-arrow</title>
    <desc>Created with Sketch.</desc>
    <defs>
        <polygon id="path-1" points="0.06 0.933 512 0.933 512 434 0.06 434"></polygon>
    </defs>
    <g id="left-arrow" stroke="none" stroke-width="1" fill="none" fill-rule="evenodd">
        <mask id="mask-2" fill="white">
            <use xlink:href="#path-1"></use>
        </mask>
        <g id="Clip-2"></g>
        <path d="M477.867,241.146 C477.867,244.559 474.453,247.972 472.747,247.972 L189.44,247.972 C182.614,247.972 175.787,251.386 174.081,258.212 C170.668,265.039 172.374,271.866 177.494,276.986 L256.001,353.787 C257.708,355.494 257.708,358.906 256.001,362.32 L220.16,398.161 C218.453,399.868 215.04,401.574 211.627,398.161 L35.84,222.372 C34.133,220.666 34.133,218.959 34.133,217.252 C34.133,215.546 34.133,213.839 35.84,212.133 L211.627,36.346 C213.334,34.64 215.04,34.64 215.04,34.64 C216.747,34.64 218.453,34.64 218.453,36.346 L256,72.185 C257.707,73.892 257.707,79.012 256,80.718 L180.907,157.519 C175.786,162.639 174.08,169.465 177.493,176.292 C180.907,183.119 186.027,186.532 192.853,186.532 L474.453,186.532 C476.16,186.532 479.573,186.532 479.573,189.946 L479.573,241.146 L477.867,241.146 Z M472.747,152.399 L233.814,152.399 L279.894,106.32 C295.254,90.96 295.254,65.36 279.894,50 L244.055,12.453 C228.695,-2.907 203.095,-2.907 187.734,12.453 L11.947,188.239 C5.12,196.772 0,207.012 0,217.252 C0,229.2 3.413,239.439 11.947,247.972 L187.734,422.052 C194.561,428.879 204.801,434 216.747,434 C226.987,434 237.227,430.586 244.054,422.052 L279.893,386.212 C295.253,370.852 295.253,345.252 279.893,329.892 L230.4,282.106 L472.747,282.106 C494.933,282.106 512,263.332 512,241.146 L512,191.653 C512,169.466 494.933,152.399 472.747,152.399 Z" id="Fill-1" fill="#0A0B09" mask="url(#mask-2)"></path>
    </g>
</svg>