<?xml version="1.0" encoding="UTF-8"?>
<svg width="247px" height="369px" viewBox="0 0 247 369" version="1.1" xmlns="http://www.w3.org/2000/svg" xmlns:xlink="http://www.w3.org/1999/xlink">
    <!-- Generator: Sketch 51.2 (57519) - http://www.bohemiancoding.com/sketch -->
    <title>pointer</title>
    <desc>Created with Sketch.</desc>
    <defs>
        <polygon id="path-1" points="0 0.366 246.16925 0.366 246.16925 367.999 0 367.999"></polygon>
    </defs>
    <g id="pointer" stroke="none" stroke-width="1" fill="none" fill-rule="evenodd">
        <mask id="mask-2" fill="white">
            <use xlink:href="#path-1"></use>
        </mask>
        <g id="Clip-2"></g>
        <path d="M209.828,106.413 C211.285,106.413 212.664,105.749 213.574,104.612 L245.117,65.191 C246.52,63.437 246.52,60.944 245.117,59.191 L213.574,19.769 C212.664,18.628 211.285,17.968 209.828,17.968 L140.684,17.968 L140.684,5.167 C140.684,2.515 138.535,0.366 135.887,0.366 L111.887,0.366 C109.234,0.366 107.086,2.515 107.086,5.167 L107.086,17.968 L33.715,17.968 C31.062,17.968 28.914,20.116 28.914,22.765 L28.914,101.612 C28.914,104.265 31.062,106.413 33.715,106.413 L107.086,106.413 L107.086,123.109 L36.344,123.109 C34.887,123.109 33.508,123.773 32.594,124.909 L1.051,164.331 C-0.352,166.085 -0.352,168.577 1.051,170.331 L32.594,209.753 C33.508,210.89 34.883,211.554 36.344,211.554 L107.086,211.554 L107.086,349.929 L90.492,357.878 L59.164,342.87 C57.855,342.241 56.328,342.241 55.02,342.87 L21.617,358.87 C19.227,360.015 18.215,362.882 19.359,365.273 C20.188,366.995 21.902,367.999 23.691,367.999 C24.387,367.999 25.094,367.847 25.762,367.527 L57.09,352.523 L88.418,367.527 C89.73,368.155 91.254,368.155 92.566,367.527 L123.891,352.523 L155.215,367.527 C156.527,368.155 158.051,368.155 159.363,367.527 L190.684,352.523 L222.004,367.527 C224.398,368.671 227.262,367.663 228.41,365.273 C229.555,362.882 228.543,360.015 226.152,358.87 L192.758,342.87 C191.445,342.241 189.922,342.241 188.609,342.87 L157.289,357.878 L140.684,349.925 L140.684,211.554 L212.457,211.554 C215.105,211.554 217.254,209.405 217.254,206.753 L217.254,127.909 C217.254,125.257 215.105,123.109 212.457,123.109 L140.684,123.109 L140.684,106.413 L209.828,106.413 Z M116.684,17.968 L131.086,17.968 L131.086,9.968 L116.684,9.968 L116.684,17.968 Z M38.516,27.566 L207.52,27.566 L235.223,62.191 L207.52,96.812 L38.516,96.812 L38.516,27.566 Z M131.086,345.323 L125.965,342.87 C124.652,342.241 123.129,342.241 121.816,342.87 L116.684,345.327 L116.684,211.554 L131.086,211.554 L131.086,345.323 Z M207.656,201.952 L38.648,201.952 L10.949,167.331 L38.648,132.71 L207.656,132.71 L207.656,201.952 Z M116.684,123.109 L131.086,123.109 L131.086,106.413 L116.684,106.413 L116.684,123.109 Z" id="Fill-1" fill="#000000" mask="url(#mask-2)"></path>
    </g>
</svg>