<?xml version="1.0" encoding="UTF-8"?>
<svg width="512px" height="431px" viewBox="0 0 512 431" version="1.1" xmlns="http://www.w3.org/2000/svg" xmlns:xlink="http://www.w3.org/1999/xlink">
    <!-- Generator: Sketch 51.2 (57519) - http://www.bohemiancoding.com/sketch -->
    <title>right-arrow</title>
    <desc>Created with Sketch.</desc>
    <defs>
        <polygon id="path-1" points="0.06 0.268 511.99975 0.268 511.99975 430.94 0.06 430.94"></polygon>
    </defs>
    <g id="right-arrow" stroke="none" stroke-width="1" fill="none" fill-rule="evenodd">
        <mask id="mask-2" fill="white">
            <use xlink:href="#path-1"></use>
        </mask>
        <g id="Clip-2"></g>
        <path d="M477.353,220.552 L302.837,395.068 C299.415,398.49 297.705,398.49 294.282,395.068 L258.352,359.138 C256.641,357.427 256.641,355.716 256.641,354.006 C256.641,352.294 256.641,350.584 258.352,348.873 L333.633,273.592 C338.766,268.46 340.477,261.615 337.055,254.771 C333.633,247.927 328.5,244.505 321.657,244.505 L41.063,244.505 C37.641,244.505 34.219,242.794 34.219,241.084 L34.219,191.467 C34.219,188.045 37.641,184.623 41.063,184.623 L325.079,184.623 C331.923,184.623 338.767,181.201 340.477,174.357 C342.188,167.513 342.189,160.67 337.055,155.536 L260.063,78.544 C258.352,76.834 258.352,75.122 258.352,75.122 C258.352,73.412 258.352,73.412 260.063,71.701 L295.994,35.771 C297.705,34.061 301.126,32.349 304.549,35.771 L479.064,210.287 C480.775,211.998 480.775,213.708 480.775,215.419 C479.064,217.13 479.064,218.842 477.353,220.552 Z M501.306,186.333 L326.791,11.817 C311.393,-3.582 285.728,-3.582 270.33,11.817 L234.4,47.747 C227.556,54.59 222.423,64.856 222.423,75.122 C222.423,85.387 225.845,95.653 234.4,102.497 L282.306,150.403 L41.063,150.403 C18.821,150.403 0,169.224 0,191.466 L0,241.083 C0,261.614 18.82,278.723 41.063,278.723 L280.595,278.723 L234.399,324.919 C227.555,331.763 222.423,342.029 222.423,354.006 C222.423,364.271 225.844,374.537 234.399,383.092 L270.329,419.023 C277.173,425.866 287.438,431 297.704,431 C307.97,431 318.235,427.578 325.079,419.023 L499.595,244.505 C508.151,235.95 511.572,225.685 511.572,215.419 C513.283,205.154 509.861,194.889 501.306,186.333 Z" id="Fill-1" fill="#0A0B09" mask="url(#mask-2)"></path>
    </g>
</svg>