<?xml version="1.0" encoding="UTF-8"?>
<svg width="31px" height="46px" viewBox="0 0 31 46" version="1.1" xmlns="http://www.w3.org/2000/svg" xmlns:xlink="http://www.w3.org/1999/xlink">
    <!-- Generator: Sketch 51.2 (57519) - http://www.bohemiancoding.com/sketch -->
    <title>roadLeftTurn</title>
    <desc>Created with Sketch.</desc>
    <defs>
        <path d="M14.602,17 L14.602,1.598 L0,1.598 L0,0.001 L15.398,0.001 C15.84,0.001 16.199,0.356 16.199,0.802 L16.199,17 L14.602,17 Z" id="path-1"></path>
        <path d="M16.199,0.04 L16.199,16.198 C16.199,16.644 15.84,16.999 15.398,16.999 L0,16.999 L0,15.402 L14.602,15.402 L14.602,0.04 L16.199,0.04 Z" id="path-3"></path>
    </defs>
    <g id="roadLeftTurn" stroke="none" stroke-width="1" fill="none" fill-rule="evenodd">
        <g id="Group-3" transform="translate(0.000000, 29.000000)">
            <mask id="mask-2" fill="white">
                <use xlink:href="#path-1"></use>
            </mask>
            <g id="Clip-2"></g>
            <polygon id="Fill-1" fill="#000000" mask="url(#mask-2)" points="0 17 16.2 17 16.2 -0.04 0 -0.04"></polygon>
        </g>
        <g id="Group-6">
            <mask id="mask-4" fill="white">
                <use xlink:href="#path-3"></use>
            </mask>
            <g id="Clip-5"></g>
            <polygon id="Fill-4" fill="#000000" mask="url(#mask-4)" points="0 17.08 16.2 17.08 16.2 0.04 0 0.04"></polygon>
        </g>
        <polygon id="Fill-7" fill="#000000" points="29.32 45.96 30.96 45.96 30.96 0.04 29.32 0.04"></polygon>
        <polygon id="Fill-9" fill="#000000" points="21.8 44 23.398 44 23.398 40 21.8 40"></polygon>
        <polygon id="Fill-11" fill="#000000" points="21.8 31.333 23.398 31.333 23.398 27.333 21.8 27.333"></polygon>
        <polygon id="Fill-13" fill="#000000" points="21.8 12.333 23.398 12.333 23.398 8.333 21.8 8.333"></polygon>
        <polygon id="Fill-15" fill="#000000" points="21.8 37.667 23.398 37.667 23.398 33.667 21.8 33.667"></polygon>
        <polygon id="Fill-17" fill="#000000" points="21.8 18.667 23.398 18.667 23.398 14.667 21.8 14.667"></polygon>
        <polygon id="Fill-19" fill="#000000" points="21.8 25 23.398 25 23.398 21 21.8 21"></polygon>
        <polygon id="Fill-21" fill="#000000" points="21.8 6 23.398 6 23.398 2 21.8 2"></polygon>
        <polygon id="Fill-23" fill="#000000" points="10.201 23.799 14.201 23.799 14.201 22.201 10.201 22.201"></polygon>
        <polygon id="Fill-25" fill="#000000" points="4.201 23.799 8.201 23.799 8.201 22.201 4.201 22.201"></polygon>
    </g>
</svg>