<?xml version="1.0" encoding="UTF-8"?>
<svg width="31px" height="46px" viewBox="0 0 31 46" version="1.1" xmlns="http://www.w3.org/2000/svg" xmlns:xlink="http://www.w3.org/1999/xlink">
    <!-- Generator: Sketch 51.2 (57519) - http://www.bohemiancoding.com/sketch -->
    <title>roadRightTurn</title>
    <desc>Created with Sketch.</desc>
    <defs>
        <path d="M16.96,0.001 L16.96,1.598 L2.398,1.598 L2.398,17 L0.801,17 L0.801,0.802 C0.801,0.356 1.16,0.001 1.602,0.001 L16.96,0.001 Z" id="path-1"></path>
        <path d="M16.96,16.999 L1.602,16.999 C1.16,16.999 0.801,16.644 0.801,16.198 L0.801,0.04 L2.398,0.04 L2.398,15.402 L16.96,15.402 L16.96,16.999 Z" id="path-3"></path>
        <polygon id="path-5" points="0.602 0 2.2 0 2.2 4 0.602 4"></polygon>
        <polygon id="path-7" points="0.602 0.333 2.2 0.333 2.2 4.333 0.602 4.333"></polygon>
        <polygon id="path-9" points="0.602 0.333 2.2 0.333 2.2 4.333 0.602 4.333"></polygon>
        <polygon id="path-11" points="0.602 0.667 2.2 0.667 2.2 4.667 0.602 4.667"></polygon>
        <polygon id="path-13" points="0.602 0.667 2.2 0.667 2.2 4.667 0.602 4.667"></polygon>
        <polygon id="path-15" points="0.602 0 2.2 0 2.2 4 0.602 4"></polygon>
        <polygon id="path-17" points="0.602 0 2.2 0 2.2 4 0.602 4"></polygon>
    </defs>
    <g id="roadRightTurn" stroke="none" stroke-width="1" fill="none" fill-rule="evenodd">
        <g id="Group-3" transform="translate(14.000000, 29.000000)">
            <mask id="mask-2" fill="white">
                <use xlink:href="#path-1"></use>
            </mask>
            <g id="Clip-2"></g>
            <polygon id="Fill-1" fill="#000000" mask="url(#mask-2)" points="0.76 17 16.96 17 16.96 -0.04 0.76 -0.04"></polygon>
        </g>
        <g id="Group-6" transform="translate(14.000000, 0.000000)">
            <mask id="mask-4" fill="white">
                <use xlink:href="#path-3"></use>
            </mask>
            <g id="Clip-5"></g>
            <polygon id="Fill-4" fill="#000000" mask="url(#mask-4)" points="0.76 17.08 16.96 17.08 16.96 0.04 0.76 0.04"></polygon>
        </g>
        <polygon id="Fill-7" fill="#000000" points="0 45.96 1.68 45.96 1.68 0.04 0 0.04"></polygon>
        <g id="Group-11" transform="translate(7.000000, 40.000000)">
            <mask id="mask-6" fill="white">
                <use xlink:href="#path-5"></use>
            </mask>
            <g id="Clip-10"></g>
            <polygon id="Fill-9" fill="#000000" mask="url(#mask-6)" points="0.602 4 2.2 4 2.2 0 0.602 0"></polygon>
        </g>
        <g id="Group-14" transform="translate(7.000000, 27.000000)">
            <mask id="mask-8" fill="white">
                <use xlink:href="#path-7"></use>
            </mask>
            <g id="Clip-13"></g>
            <polygon id="Fill-12" fill="#000000" mask="url(#mask-8)" points="0.602 4.333 2.2 4.333 2.2 0.333 0.602 0.333"></polygon>
        </g>
        <g id="Group-17" transform="translate(7.000000, 8.000000)">
            <mask id="mask-10" fill="white">
                <use xlink:href="#path-9"></use>
            </mask>
            <g id="Clip-16"></g>
            <polygon id="Fill-15" fill="#000000" mask="url(#mask-10)" points="0.602 4.333 2.2 4.333 2.2 0.333 0.602 0.333"></polygon>
        </g>
        <g id="Group-20" transform="translate(7.000000, 33.000000)">
            <mask id="mask-12" fill="white">
                <use xlink:href="#path-11"></use>
            </mask>
            <g id="Clip-19"></g>
            <polygon id="Fill-18" fill="#000000" mask="url(#mask-12)" points="0.602 4.667 2.2 4.667 2.2 0.667 0.602 0.667"></polygon>
        </g>
        <g id="Group-23" transform="translate(7.000000, 14.000000)">
            <mask id="mask-14" fill="white">
                <use xlink:href="#path-13"></use>
            </mask>
            <g id="Clip-22"></g>
            <polygon id="Fill-21" fill="#000000" mask="url(#mask-14)" points="0.602 4.667 2.2 4.667 2.2 0.667 0.602 0.667"></polygon>
        </g>
        <g id="Group-26" transform="translate(7.000000, 21.000000)">
            <mask id="mask-16" fill="white">
                <use xlink:href="#path-15"></use>
            </mask>
            <g id="Clip-25"></g>
            <polygon id="Fill-24" fill="#000000" mask="url(#mask-16)" points="0.602 4 2.2 4 2.2 0 0.602 0"></polygon>
        </g>
        <g id="Group-29" transform="translate(7.000000, 2.000000)">
            <mask id="mask-18" fill="white">
                <use xlink:href="#path-17"></use>
            </mask>
            <g id="Clip-28"></g>
            <polygon id="Fill-27" fill="#000000" mask="url(#mask-18)" points="0.602 4 2.2 4 2.2 0 0.602 0"></polygon>
        </g>
        <polygon id="Fill-30" fill="#000000" points="16.799 23.799 20.799 23.799 20.799 22.201 16.799 22.201"></polygon>
        <polygon id="Fill-32" fill="#000000" points="22.799 23.799 26.799 23.799 26.799 22.201 22.799 22.201"></polygon>
    </g>
</svg>