<?xml version="1.0" encoding="UTF-8"?>
<svg width="46px" height="31px" viewBox="0 0 46 31" version="1.1" xmlns="http://www.w3.org/2000/svg" xmlns:xlink="http://www.w3.org/1999/xlink">
    <!-- Generator: Sketch 51.2 (57519) - http://www.bohemiancoding.com/sketch -->
    <title>roadLeftRight</title>
    <desc>Created with Sketch.</desc>
    <defs>
        <path d="M15.402,16.94 L15.402,2.398 L0.06,2.398 L0.06,0.801 L16.198,0.801 C16.644,0.801 16.999,1.16 16.999,1.602 L16.999,16.94 L15.402,16.94 Z" id="path-1"></path>
        <path d="M0.001,16.94 L0.001,1.602 C0.001,1.16 0.356,0.801 0.802,0.801 L17,0.801 L17,2.398 L1.598,2.398 L1.598,16.94 L0.001,16.94 Z" id="path-3"></path>
        <polygon id="path-5" points="0.667 0.602 4.667 0.602 4.667 2.2 0.667 2.2"></polygon>
    </defs>
    <g id="roadLeftRight" stroke="none" stroke-width="1" fill="none" fill-rule="evenodd">
        <g id="Group-3" transform="translate(0.000000, 14.000000)">
            <mask id="mask-2" fill="white">
                <use xlink:href="#path-1"></use>
            </mask>
            <g id="Clip-2"></g>
            <polygon id="Fill-1" fill="#000000" mask="url(#mask-2)" points="0.06 16.94 17.1 16.94 17.1 0.74 0.06 0.74"></polygon>
        </g>
        <g id="Group-6" transform="translate(29.000000, 14.000000)">
            <mask id="mask-4" fill="white">
                <use xlink:href="#path-3"></use>
            </mask>
            <g id="Clip-5"></g>
            <polygon id="Fill-4" fill="#000000" mask="url(#mask-4)" points="-0.02 16.94 17.02 16.94 17.02 0.74 -0.02 0.74"></polygon>
        </g>
        <polygon id="Fill-7" fill="#000000" points="0.06 1.68 46 1.68 46 0 0.06 0"></polygon>
        <polygon id="Fill-9" fill="#000000" points="2 9.2 6 9.2 6 7.602 2 7.602"></polygon>
        <g id="Group-13" transform="translate(14.000000, 7.000000)">
            <mask id="mask-6" fill="white">
                <use xlink:href="#path-5"></use>
            </mask>
            <g id="Clip-12"></g>
            <polygon id="Fill-11" fill="#000000" mask="url(#mask-6)" points="0.667 2.2 4.667 2.2 4.667 0.602 0.667 0.602"></polygon>
        </g>
        <polygon id="Fill-14" fill="#000000" points="33.667 9.2 37.667 9.2 37.667 7.602 33.667 7.602"></polygon>
        <polygon id="Fill-16" fill="#000000" points="8.333 9.2 12.333 9.2 12.333 7.602 8.333 7.602"></polygon>
        <polygon id="Fill-18" fill="#000000" points="27.333 9.2 31.333 9.2 31.333 7.602 27.333 7.602"></polygon>
        <polygon id="Fill-20" fill="#000000" points="21 9.2 25 9.2 25 7.602 21 7.602"></polygon>
        <polygon id="Fill-22" fill="#000000" points="40 9.2 44 9.2 44 7.602 40 7.602"></polygon>
        <polygon id="Fill-24" fill="#000000" points="22.201 20.799 23.799 20.799 23.799 16.799 22.201 16.799"></polygon>
        <polygon id="Fill-26" fill="#000000" points="22.201 26.799 23.799 26.799 23.799 22.799 22.201 22.799"></polygon>
    </g>
</svg>