<?xml version="1.0" encoding="UTF-8"?>
<svg width="277px" height="504px" viewBox="0 0 277 504" version="1.1" xmlns="http://www.w3.org/2000/svg" xmlns:xlink="http://www.w3.org/1999/xlink">
    <!-- Generator: Sketch 51.2 (57519) - http://www.bohemiancoding.com/sketch -->
    <title>smartphone</title>
    <desc>Created with Sketch.</desc>
    <defs>
        <polygon id="path-1" points="0 0.396 276.22 0.396 276.22 503.94 0 503.94"></polygon>
    </defs>
    <g id="smartphone" stroke="none" stroke-width="1" fill="none" fill-rule="evenodd">
        <mask id="mask-2" fill="white">
            <use xlink:href="#path-1"></use>
        </mask>
        <g id="Clip-2"></g>
        <path d="M27.54,425.304 L251.796,425.304 L251.796,75.152 L27.54,75.152 L27.54,425.304 Z M137.08,488.404 C124.096,488.404 113.536,477.836 113.536,464.856 C113.536,451.872 124.096,441.308 137.08,441.308 C150.064,441.308 160.624,451.872 160.624,464.856 C160.624,477.836 150.06,488.404 137.08,488.404 Z M84.328,34.376 C87.244,31.464 92.552,31.424 95.464,34.376 C96.924,35.832 97.788,37.876 97.788,39.964 C97.788,42.012 96.924,44.052 95.464,45.512 C94.012,46.972 91.96,47.832 89.916,47.832 C87.832,47.832 85.828,46.972 84.328,45.512 C82.876,44.056 82.048,42.012 82.048,39.964 C82.044,37.876 82.876,35.832 84.328,34.376 Z M113.988,31.872 L163.348,31.872 C167.684,31.872 171.216,35.392 171.216,39.74 C171.216,44.088 167.684,47.608 163.348,47.608 L113.988,47.608 C109.64,47.608 106.12,44.088 106.12,39.74 C106.12,35.392 109.64,31.872 113.988,31.872 Z M223.632,0.396 L53.5,0.396 C24.576,0.396 0,23.98 0,52.896 L0,451.56 C0,480.476 24.056,504 52.98,504 L223.392,503.816 C252.312,503.816 275.972,480.288 275.972,451.368 L276.22,52.868 C276.216,23.848 252.672,0.396 223.632,0.396 Z" id="Fill-1" fill="#0A0B09" mask="url(#mask-2)"></path>
    </g>
</svg>