<?xml version="1.0" encoding="UTF-8"?>
<svg width="512px" height="512px" viewBox="0 0 512 512" version="1.1" xmlns="http://www.w3.org/2000/svg" xmlns:xlink="http://www.w3.org/1999/xlink">
    <!-- Generator: Sketch 51.2 (57519) - http://www.bohemiancoding.com/sketch -->
    <title>speed-limit</title>
    <desc>Created with Sketch.</desc>
    <defs>
        <polygon id="path-1" points="0.06 0 512 0 512 512 0.06 512"></polygon>
    </defs>
    <g id="speed-limit" stroke="none" stroke-width="1" fill="none" fill-rule="evenodd">
        <g id="Group-3">
            <mask id="mask-2" fill="white">
                <use xlink:href="#path-1"></use>
            </mask>
            <g id="Clip-2"></g>
            <path d="M256,0 C114.613,0 0,114.613 0,256 C0,397.387 114.613,512 256,512 C397.387,512 512,397.387 512,256 C511.84,114.68 397.32,0.16 256,0 Z M256,494.934 C124.039,494.934 17.066,387.961 17.066,256 C17.066,124.039 124.039,17.066 256,17.066 C387.961,17.066 494.934,124.039 494.934,256 C494.785,387.898 387.898,494.785 256,494.934 Z" id="Fill-1" fill="#000000" mask="url(#mask-2)"></path>
        </g>
        <path d="M256,34.133 C133.465,34.133 34.133,133.465 34.133,256 C34.133,378.535 133.465,477.867 256,477.867 C378.535,477.867 477.867,378.535 477.867,256 C477.727,133.523 378.477,34.273 256,34.133 Z M256,460.801 C142.891,460.801 51.199,369.109 51.199,256 C51.199,142.891 142.891,51.199 256,51.199 C369.109,51.199 460.801,142.891 460.801,256 C460.672,369.055 369.055,460.672 256,460.801 Z" id="Fill-4" fill="#000000"></path>
        <path d="M349.867,153.602 C307.52,153.602 273.066,191.879 273.066,238.934 L273.066,264.535 C273.066,311.586 307.52,349.867 349.867,349.867 C392.211,349.867 426.668,311.586 426.668,264.535 L426.668,238.934 C426.668,191.879 392.211,153.602 349.867,153.602 Z M409.602,264.535 C409.602,302.176 382.805,332.801 349.867,332.801 C316.93,332.801 290.133,302.176 290.133,264.535 L290.133,238.934 C290.133,201.293 316.93,170.668 349.867,170.668 C382.805,170.668 409.602,201.293 409.602,238.934 L409.602,264.535 Z" id="Fill-5" fill="#000000"></path>
        <path d="M349.867,187.734 C326.344,187.734 307.199,210.699 307.199,238.934 L307.199,264.535 C307.199,292.766 326.344,315.734 349.867,315.734 C373.391,315.734 392.535,292.766 392.535,264.535 L392.535,238.934 C392.535,210.699 373.391,187.734 349.867,187.734 Z M375.465,264.535 C375.465,283.355 363.984,298.668 349.867,298.668 C335.75,298.668 324.266,283.355 324.266,264.535 L324.266,238.934 C324.266,220.113 335.75,204.801 349.867,204.801 C363.984,204.801 375.465,220.113 375.465,238.934 L375.465,264.535 Z" id="Fill-6" fill="#000000"></path>
        <path d="M247.465,264.535 L238.934,264.535 L238.934,162.133 C238.934,157.422 235.113,153.602 230.398,153.602 L188.273,153.602 C185.742,153.602 183.34,154.727 181.723,156.672 L87.312,269.961 C86.035,271.496 85.332,273.426 85.332,275.422 L85.332,307.199 C85.332,311.914 89.152,315.734 93.867,315.734 L187.734,315.734 L187.734,341.332 C187.734,346.047 191.555,349.867 196.266,349.867 L230.398,349.867 C235.113,349.867 238.934,346.047 238.934,341.332 L238.934,315.734 L247.465,315.734 C252.18,315.734 256,311.914 256,307.199 L256,273.066 C256,268.355 252.18,264.535 247.465,264.535 Z M238.934,298.668 L230.398,298.668 C225.688,298.668 221.867,302.488 221.867,307.199 L221.867,332.801 L204.801,332.801 L204.801,307.199 C204.801,302.488 200.98,298.668 196.266,298.668 L102.398,298.668 L102.398,278.512 L192.27,170.668 L221.867,170.668 L221.867,273.066 C221.867,277.781 225.688,281.602 230.398,281.602 L238.934,281.602 L238.934,298.668 Z" id="Fill-7" fill="#000000"></path>
        <path d="M199.168,197.832 C195.789,196.617 192.012,197.641 189.711,200.395 L133.703,267.605 C131.586,270.148 131.129,273.688 132.535,276.688 C133.938,279.684 136.949,281.598 140.258,281.602 L196.266,281.602 C200.98,281.602 204.801,277.781 204.801,273.066 L204.801,205.859 C204.801,202.266 202.547,199.055 199.168,197.832 Z M187.734,264.535 L158.48,264.535 L187.734,229.43 L187.734,264.535 Z" id="Fill-8" fill="#000000"></path>
    </g>
</svg>