<?xml version="1.0" encoding="UTF-8"?>
<svg width="512px" height="512px" viewBox="0 0 512 512" version="1.1" xmlns="http://www.w3.org/2000/svg" xmlns:xlink="http://www.w3.org/1999/xlink">
    <!-- Generator: Sketch 51.2 (57519) - http://www.bohemiancoding.com/sketch -->
    <title>split</title>
    <desc>Created with Sketch.</desc>
    <defs>
        <polygon id="path-1" points="0.06 0 511.285 0 511.285 512 0.06 512"></polygon>
    </defs>
    <g id="split" stroke="none" stroke-width="1" fill="none" fill-rule="evenodd">
        <mask id="mask-2" fill="white">
            <use xlink:href="#path-1"></use>
        </mask>
        <g id="Clip-2"></g>
        <path d="M511.285,94.23 L417.051,0 L322.82,94.23 L351.09,122.5 L397.062,76.527 L397.062,157.168 C397.062,186.32 384.43,213.992 362.402,233.086 L284.105,300.961 C272.699,310.848 263.09,322.312 255.477,334.855 C248.02,322.258 238.582,310.844 227.375,301.133 L148.883,233.086 C126.855,213.992 114.219,186.32 114.219,157.168 L114.219,76.527 L160.195,122.5 L188.465,94.23 L94.23,0 L0,94.23 L28.27,122.5 L74.242,76.527 L74.242,157.168 C74.242,197.922 91.902,236.602 122.695,263.297 L201.188,331.34 C222.668,349.961 235.047,377.5 235.152,406.828 L235.152,512 L275.129,512 L275.129,407.086 C275.129,378.211 287.945,350.539 310.293,331.168 L388.59,263.297 C419.383,236.602 437.039,197.922 437.039,157.168 L437.039,76.527 L483.016,122.5 L511.285,94.23 Z" id="Fill-1" fill="#000000" mask="url(#mask-2)"></path>
    </g>
</svg>