<?xml version="1.0" encoding="UTF-8"?>
<svg width="512px" height="512px" viewBox="0 0 512 512" version="1.1" xmlns="http://www.w3.org/2000/svg" xmlns:xlink="http://www.w3.org/1999/xlink">
    <!-- Generator: Sketch 51.2 (57519) - http://www.bohemiancoding.com/sketch -->
    <title>stop</title>
    <desc>Created with Sketch.</desc>
    <defs>
        <polygon id="path-1" points="0.06 0 511.9 0 511.9 512 0.06 512"></polygon>
    </defs>
    <g id="stop" stroke="none" stroke-width="1" fill="none" fill-rule="evenodd">
        <g id="Group-3">
            <mask id="mask-2" fill="white">
                <use xlink:href="#path-1"></use>
            </mask>
            <g id="Clip-2"></g>
            <path d="M172.1,21.3 C163.5,21.3 155.5,24.6 149.5,30.7 L30.7,149.4 C24.7,155.4 21.3,163.5 21.3,172 L21.3,339.9 C21.3,348.5 24.6,356.5 30.7,362.6 L149.4,481.3 C155.5,487.4 163.5,490.7 172.1,490.7 L340,490.7 C348.6,490.7 356.6,487.4 362.7,481.3 L481.4,362.6 C487.5,356.5 490.8,348.5 490.8,339.9 L490.8,172.1 C490.8,163.5 487.5,155.5 481.4,149.4 L362.6,30.7 C356.5,24.7 348.5,21.3 339.9,21.3 L172.1,21.3 Z M339.9,512 L172.1,512 C157.8,512 144.5,506.5 134.4,496.4 L15.6,377.7 C5.5,367.6 0,354.2 0,339.9 L0,172.1 C0,157.8 5.5,144.5 15.6,134.4 L134.3,15.6 C144.4,5.5 157.8,0 172,0 L339.9,0 C354.2,0 367.5,5.5 377.6,15.6 L496.3,134.3 C506.4,144.4 511.9,157.8 511.9,172 L511.9,339.9 C511.9,354.2 506.4,367.5 496.3,377.6 L377.7,496.4 C367.6,506.5 354.2,512 339.9,512 Z" id="Fill-1" fill="#0A090B" mask="url(#mask-2)"></path>
        </g>
        <path d="M106.6,341.3 C84.1,341.3 65.3,321.5 64,296.3 C63.7,290.4 68.2,285.4 74.1,285.1 C80.6,284.7 85,289.3 85.3,295.2 C86.1,309.1 95.4,320.1 106.6,320.1 C118.4,320.1 128,308.1 128,293.4 C128,275.7 117.1,270.2 105.3,266.8 L102.1,265.9 C70.6,256.9 63.9,235.3 63.9,218.8 C63.9,192.3 83,170.8 106.6,170.8 C129.1,170.8 147.9,190.6 149.2,215.8 C149.5,221.7 145,226.7 139.1,227 C132.8,228 128.2,222.8 127.9,216.9 C127.3,202.9 117.9,192 106.7,192 C94.9,192 85.3,204 85.3,218.7 C85.3,236.4 96.2,242 108,245.3 L111.2,246.3 C136.5,253.6 149.3,269.4 149.3,293.4 C149.3,319.8 130.2,341.3 106.6,341.3" id="Fill-4" fill="#0A090B"></path>
        <path d="M245.3,192 L160,192 C154.1,192 149.3,187.2 149.3,181.3 C149.3,175.4 154.1,170.6 160,170.6 L245.3,170.6 C251.2,170.6 256,175.4 256,181.3 C256,187.2 251.2,192 245.3,192" id="Fill-5" fill="#0A090B"></path>
        <path d="M202.7,341.3 C196.8,341.3 192,336.5 192,330.6 L192,181.3 C192,175.4 196.8,170.6 202.7,170.6 C208.6,170.6 213.4,175.4 213.4,181.3 L213.4,330.6 C213.3,336.6 208.6,341.3 202.7,341.3" id="Fill-6" fill="#0A090B"></path>
        <path d="M298.7,192 C286.9,192 277.4,201.6 277.4,213.3 L277.4,298.6 C277.4,310.4 287,319.9 298.7,319.9 C310.5,319.9 320,310.3 320,298.6 L320,213.3 C320,201.6 310.4,192 298.7,192 Z M298.7,341.3 C275.2,341.3 256,322.2 256,298.6 L256,213.3 C256,189.8 275.1,170.6 298.7,170.6 C322.3,170.6 341.4,189.7 341.4,213.3 L341.4,298.6 C341.3,322.2 322.2,341.3 298.7,341.3 Z" id="Fill-7" fill="#0A090B"></path>
        <path d="M384,256 L416,256 C421.9,256 426.7,251.2 426.7,245.3 L426.7,202.6 C426.7,196.7 421.9,191.9 416,191.9 L384,191.9 L384,256 Z M373.3,341.3 C367.4,341.3 362.6,336.5 362.6,330.6 L362.6,181.3 C362.6,175.4 367.4,170.6 373.3,170.6 L416,170.6 C433.6,170.6 448,185 448,202.6 L448,245.3 C448,262.9 433.6,277.3 416,277.3 L384,277.3 L384,330.6 C384,336.6 379.2,341.3 373.3,341.3 Z" id="Fill-8" fill="#0A090B"></path>
    </g>
</svg>