<svg id="Layer_3" enable-background="new 0 0 64 64" height="512" viewBox="0 0 64 64" width="512" xmlns="http://www.w3.org/2000/svg"><g><path d="m39.722 2.999c-.347-.595-.984-.999-1.722-.999s-1.375.404-1.722.999h-8.556c-.347-.595-.984-.999-1.722-.999s-1.375.404-1.722.999h-23.278v1.999h23v1.002h1v2.998h2v-2.998h1v-1.002h8v1.002h1v2.998h2v-2.998h1v-1.002h23v-1.999z"/><path d="m1 10.999h20v1.999h-20z"/><path d="m43 10.999h20v1.999h-20z"/><path d="m29 52.998h6v8h-6z"/><path d="m29 30.999h6v20h-6z"/><path d="m13 26.999h38v1.999h-38z"/><path d="m22 10.999h20v1.999h-20z"/><path d="m48 18c-.738 0-1.375.404-1.722.999h-6.556c-.347-.595-.984-.999-1.722-.999s-1.375.404-1.722.999h-3.278v-5h-2v5h-3.278c-.347-.595-.984-.999-1.722-.999s-1.375.404-1.722.999h-6.556c-.347-.595-.984-.999-1.722-.999s-1.375.404-1.722.999h-13.278v1.999h13v1.002h1v3.998h2v-3.998h1v-1.002h6v1.002h1v3.998h2v-3.998h1v-1.002h3v5h2v-5h3v1.002h1v3.998h2v-3.998h1v-1.002h6v1.002h1v3.998h2v-3.998h1v-1.002h13v-1.999h-13.278c-.347-.595-.984-.999-1.722-.999z"/></g></svg>