<svg xmlns="http://www.w3.org/2000/svg" xmlns:xlink="http://www.w3.org/1999/xlink" width="500" height="500"><defs><path d="M158.717 184.783V17.37H0V.01h167.37c4.804 0 8.707 3.86 8.707 8.707v176.065h-17.36z" id="A"/><path d="M176.076.435v175.63c0 4.848-3.902 8.707-8.707 8.707H0v-17.36h158.717V.435h17.36z" id="B"/><path id="C" d="M236.957 478.26h17.37v-43.478h-17.37z"/></defs><g transform="translate(82)" fill="none" fill-rule="evenodd"><g transform="translate(0 315.217)"><mask id="D" fill="#fff"><use xlink:href="#A"/></mask><path fill="#000" fill-rule="nonzero" mask="url(#D)" d="M0 184.783h176.087V-.435H0z"/></g><mask id="E" fill="#fff"><use xlink:href="#B"/></mask><g fill="#000" fill-rule="nonzero"><path mask="url(#E)" d="M0 185.652h176.087V.435H0z"/><path d="M318.696 499.565h17.826V.435h-17.826z"/><use xlink:href="#C"/><use xlink:href="#C" y="-137.684"/><path d="M236.957 134.054h17.37V90.576h-17.37z"/><use xlink:href="#C" y="-68.836"/><use xlink:href="#C" y="-275.358"/><path d="M236.957 271.74h17.37v-43.48h-17.37zm0-206.523h17.37V21.74h-17.37zM110.88 258.685h43.478v-17.37H110.88zm-65.217 0H89.14v-17.37H45.663z"/></g></g></svg>