<?xml version="1.0" encoding="UTF-8"?>
<svg width="500px" height="500px" viewBox="0 0 500 500" version="1.1" xmlns="http://www.w3.org/2000/svg" xmlns:xlink="http://www.w3.org/1999/xlink">
    <!-- Generator: Sketch 51.2 (57519) - http://www.bohemiancoding.com/sketch -->
    <title>Slice</title>
    <desc>Created with Sketch.</desc>
    <defs></defs>
    <g id="Page-1" stroke="none" stroke-width="1" fill="none" fill-rule="evenodd">
        <g id="svg_transmission_line" transform="translate(50.000000, 0.000000)" fill="#000000" fill-rule="nonzero">
            <path d="M1.12268707e-15,490.648551 C1.12268707e-15,495.241034 3.72352495,498.964559 8.31600832,498.964559 L390.852391,498.964559 C395.444874,498.964559 399.168399,495.241034 399.168399,490.648551 C399.168399,486.056069 395.444874,482.332543 390.852391,482.332543 L321.920478,482.332543 L261.215241,307.696368 L316.008316,307.696368 L316.008316,324.328385 C316.008316,328.920868 319.731841,332.644393 324.324324,332.644393 C328.916808,332.644393 332.640333,328.920868 332.640333,324.328385 L332.640333,299.270726 C332.632212,298.267769 332.429184,297.272933 332.051553,296.343068 C331.929736,296.083192 331.791678,295.831439 331.633316,295.587806 C331.328774,294.970602 330.943023,294.394003 330.488241,293.874253 C330.228366,293.610317 329.948187,293.362624 329.655827,293.135233 C329.432497,292.89566 329.192925,292.668269 328.94117,292.461181 L257.796258,245.033946 L257.796258,207.904268 L316.008316,207.904268 L316.008316,224.536285 C316.008316,229.128768 319.731841,232.852293 324.324324,232.852293 C328.916808,232.852293 332.640333,229.128768 332.640333,224.536285 L332.640333,199.478626 C332.632212,198.475669 332.429184,197.480834 332.051553,196.550968 C331.929736,196.291093 331.791678,196.039339 331.633316,195.795706 C331.328774,195.178502 330.943023,194.601903 330.488241,194.082153 C330.228366,193.818217 329.948187,193.570524 329.655827,193.343133 C329.432497,193.10356 329.192925,192.876169 328.94117,192.669081 L257.796258,145.241846 L257.796258,108.112168 L316.008316,108.112168 L316.008316,124.744185 C316.008316,129.336668 319.731841,133.060193 324.324324,133.060193 C328.916808,133.060193 332.640333,129.336668 332.640333,124.744185 L332.640333,99.686526 C332.632212,98.6835696 332.429184,97.6887339 332.051553,96.758868 C331.929736,96.4989927 331.791678,96.2472391 331.633316,96.003606 C331.328774,95.3864023 330.943023,94.8098035 330.488241,94.290053 C330.228366,94.0261175 329.948187,93.7784241 329.655827,93.5510333 C329.432497,93.3114605 329.192925,93.0840696 328.94117,92.8769813 L258.730185,46.0628898 L265.945784,9.98083368 C266.615774,6.63900104 265.170218,3.22407692 262.30753,1.3724657 C259.444842,-0.47914553 255.74162,-0.397933472 252.964202,1.58361538 L199.5842,39.6797037 L146.204198,1.55113098 C143.422719,-0.438539501 139.707316,-0.51975052 136.840567,1.34404262 C133.973817,3.20377443 132.540443,6.63087942 133.222615,9.98083368 L140.442275,46.0994345 L70.231289,92.9094657 C69.9795343,93.1165541 69.7399626,93.3439449 69.516632,93.5835177 C69.2202121,93.8109085 68.9440946,94.0586019 68.6842193,94.3225374 C68.2294376,94.8422879 67.843685,95.4188867 67.5350832,96.0360904 C67.3807817,96.2797235 67.2427235,96.5314771 67.1209064,96.7913524 C66.7392152,97.7212183 66.5402484,98.7160541 66.5280665,99.7190104 L66.5280665,124.744185 C66.5280665,129.336668 70.2515915,133.060193 74.8440748,133.060193 C79.4365582,133.060193 83.1600832,129.336668 83.1600832,124.744185 L83.1600832,108.112168 L141.372141,108.112168 L141.372141,145.241846 L70.231289,192.644718 C69.9795343,192.851807 69.7399626,193.075136 69.516632,193.314709 C69.2202121,193.54616 68.9440946,193.789793 68.6842193,194.05779 C68.2294376,194.577541 67.843685,195.150078 67.5350832,195.771342 C67.3807817,196.010915 67.2427235,196.26673 67.1209064,196.526605 C66.7392152,197.456471 66.5402484,198.451306 66.5280665,199.454262 L66.5280665,224.536285 C66.5280665,229.128768 70.2515915,232.852293 74.8440748,232.852293 C79.4365582,232.852293 83.1600832,229.128768 83.1600832,224.536285 L83.1600832,207.904268 L141.372141,207.904268 L141.372141,245.033946 L70.231289,292.436818 C69.9795343,292.643906 69.7399626,292.867236 69.516632,293.106809 C69.2202121,293.33826 68.9440946,293.581893 68.6842193,293.84989 C68.2294376,294.36964 67.843685,294.942178 67.5350832,295.563442 C67.3807817,295.803015 67.2427235,296.05883 67.1209064,296.318705 C66.7392152,297.248571 66.5402484,298.243405 66.5280665,299.246362 L66.5280665,324.328385 C66.5280665,328.920868 70.2515915,332.644393 74.8440748,332.644393 C79.4365582,332.644393 83.1600832,328.920868 83.1600832,324.328385 L83.1600832,307.696368 L137.989703,307.696368 L77.2804054,482.332543 L8.31600832,482.332543 C3.72352495,482.332543 -2.84217094e-14,486.056069 1.12268707e-15,490.648551 Z M257.796258,65.4317173 L296.883121,91.4801518 L257.796258,91.4801518 L257.796258,65.4317173 Z M257.796258,165.223817 L296.883121,191.272252 L257.796258,191.272252 L257.796258,165.223817 Z M105.614929,482.332543 L199.5842,401.807757 L293.55753,482.332543 L105.614929,482.332543 Z M241.164241,262.474012 L241.164241,291.064351 L217.340989,291.064351 L241.164241,262.474012 Z M199.027904,287.060649 L169.763514,257.800318 L223.411512,257.800318 L199.027904,287.060649 Z M217.340989,241.168301 L241.164241,212.577963 L241.164241,241.168301 L217.340989,241.168301 Z M199.044147,237.164599 L169.763514,207.904268 L223.411512,207.904268 L199.044147,237.164599 Z M217.340989,191.272252 L241.164241,162.681913 L241.164241,191.272252 L217.340989,191.272252 Z M199.044147,187.268549 L169.763514,158.008218 L223.411512,158.008218 L199.044147,187.268549 Z M217.340989,141.376202 L241.164241,112.785863 L241.164241,141.376202 L217.340989,141.376202 Z M223.411512,108.112168 L199.027904,137.372499 L169.763514,108.112168 L223.411512,108.112168 Z M217.340989,91.4801518 L241.164241,62.8898129 L241.164241,91.4801518 L217.340989,91.4801518 Z M158.004158,91.4801518 L158.004158,69.9714137 L179.508836,91.4801518 L158.004158,91.4801518 Z M179.508836,141.376202 L158.004158,141.376202 L158.004158,119.867464 L179.508836,141.376202 Z M179.508836,191.272252 L158.004158,191.272252 L158.004158,169.763514 L179.508836,191.272252 Z M179.508836,241.168301 L158.004158,241.168301 L158.004158,219.659563 L179.508836,241.168301 Z M179.508836,291.064351 L158.004158,291.064351 L158.004158,269.555613 L179.508836,291.064351 Z M235.467288,307.696368 L199.5842,373.489475 L163.701111,307.696368 L235.467288,307.696368 Z M275.325656,398.989735 L298.040378,464.283394 L222.039046,399.172459 L274.428274,399.172459 C274.732816,399.127794 275.033296,399.066886 275.325656,398.989735 Z M257.796258,265.015917 L296.883121,291.064351 L257.796258,291.064351 L257.796258,265.015917 Z M269.60434,382.540443 L213.597161,382.540443 L247.819484,319.837416 L269.60434,382.540443 Z M245.488728,27.3112661 L242.662584,41.5841019 L225.539241,41.5841019 L245.488728,27.3112661 Z M223.411512,58.2161185 L199.027904,87.4764491 L169.763514,58.2161185 L223.411512,58.2161185 Z M173.629158,41.5841019 L156.509875,41.5841019 L153.655308,27.3112661 L173.629158,41.5841019 Z M102.289339,91.4801518 L141.372141,65.4317173 L141.372141,91.4801518 L102.289339,91.4801518 Z M102.289339,191.272252 L141.372141,165.223817 L141.372141,191.272252 L102.289339,191.272252 Z M102.289339,291.064351 L141.372141,265.015917 L141.372141,291.064351 L102.289339,291.064351 Z M151.352975,319.837416 L185.571238,382.540443 L129.564059,382.540443 L151.352975,319.837416 Z M123.818379,398.989735 C124.122921,399.066886 124.431523,399.127794 124.740125,399.172459 L177.133414,399.172459 L101.156445,464.283394 L123.818379,398.989735 Z" id="Shape"></path>
        </g>
    </g>
</svg>