<?xml version="1.0" encoding="UTF-8"?>
<svg width="500px" height="500px" viewBox="0 0 500 500" version="1.1" xmlns="http://www.w3.org/2000/svg" xmlns:xlink="http://www.w3.org/1999/xlink">
    <!-- Generator: Sketch 51.2 (57519) - http://www.bohemiancoding.com/sketch -->
    <title>Slice</title>
    <desc>Created with Sketch.</desc>
    <defs></defs>
    <g id="Page-1" stroke="none" stroke-width="1" fill="none" fill-rule="evenodd">
        <g id="svg_chipper" transform="translate(0.000000, 88.000000)" fill="#000000" fill-rule="nonzero">
            <path d="M499.038462,41.3461538 L473.557692,47.5961538 L460.096154,32.6923077 L451.923077,42.3076923 C437.980769,29.3269231 419.711538,21.6346154 399.038462,21.6346154 C356.25,21.6346154 322.115385,55.7692308 321.634615,98.5576923 L321.634615,146.634615 L339.423077,146.634615 L339.423077,168.75 L361.538462,168.75 L361.538462,242.788462 L394.230769,242.788462 L394.230769,265.384615 L340.384615,265.384615 L373.076923,323.076923 L351.923077,323.076923 L317.307692,265.384615 L270.673077,265.384615 C272.596154,270.192308 273.557692,275 273.557692,280.288462 C273.557692,303.846154 254.326923,323.076923 230.769231,323.076923 C207.211538,323.076923 187.980769,303.846154 187.980769,280.288462 C187.980769,275 188.942308,270.192308 190.865385,265.384615 L135.576923,265.384615 L135.576923,242.788462 L112.019231,242.788462 L112.019231,205.769231 L21.6346154,150.961538 L5.28846154,160.576923 L0,151.923077 L120.192308,79.8076923 L125.480769,88.4615385 L110.096154,97.5961538 L149.038462,186.057692 L180.769231,203.846154 L180.769231,138.942308 L169.711538,138.942308 L169.711538,127.884615 L204.326923,127.884615 L204.326923,138.942308 L193.75,138.942308 L193.75,205.288462 L201.923077,205.288462 L201.923077,168.75 L281.730769,168.75 L281.730769,146.634615 L300.480769,146.634615 L300.480769,99.5192308 C300.961538,44.2307692 345.673077,0 400.480769,0 C421.634615,0 440.865385,6.73076923 456.730769,17.3076923 L459.615385,12.0192308 L500,42.3076923 L499.038462,41.3461538 Z M29.5673077,146.875 L119.711538,200.721154 L119.711538,235.336538 L143.75,235.336538 L143.75,255.048077 L195.793269,254.567308 C205.168269,242.227564 216.666667,236.057692 230.288462,236.057692 C243.910256,236.057692 255.929487,242.387821 266.346154,255.048077 L388.942308,255.048077 L388.942308,248.798077 L353.846154,248.798077 L353.846154,178.485577 L331.25,178.485577 L331.25,156.490385 L291.586538,156.490385 L291.586538,178.485577 L210.817308,178.485577 L210.817308,211.538462 L188.701923,211.538462 L188.701923,138.221154 L185.817308,138.221154 L185.817308,208.653846 L181.25,210.817308 L144.711538,190.625 L105.048077,100.721154 L29.5673077,146.875 Z M231.25,312.5 C249.15293,312.5 263.942308,297.710623 263.942308,279.807692 C263.942308,261.904762 249.15293,247.115385 231.25,247.115385 C213.34707,247.115385 198.557692,261.904762 198.557692,279.807692 C198.557692,297.710623 213.34707,312.5 231.25,312.5 Z M231.25,287.980769 C235.576923,287.980769 239.423077,284.134615 239.423077,279.807692 C239.423077,275.480769 236.057692,271.634615 231.25,271.634615 C226.923077,271.634615 223.076923,275.480769 223.076923,279.807692 C223.076923,284.134615 226.442308,287.980769 231.25,287.980769 Z" id="Shape"></path>
        </g>
    </g>
</svg>