<svg xmlns="http://www.w3.org/2000/svg" xmlns:xlink="http://www.w3.org/1999/xlink" width="500" height="500"><style><![CDATA[.B{fill:#000}.C{fill-rule:nonzero}.D{fill:#fff}]]></style><defs><path d="M184.348.01v17.36H26.065v167.413H8.707V8.717C8.707 3.87 12.61.01 17.413.01h166.935z" id="A"/><path d="M184.348 184.772H17.413c-4.804 0-8.707-3.86-8.707-8.707V.435h17.36v166.978h158.283v17.36z" id="B"/><path id="C" d="M6.543 0h17.37v43.478H6.543z"/><path id="D" d="M6.543 3.62h17.37v43.478H6.543z"/><path id="E" d="M6.543 7.25h17.37v43.478H6.543z"/><path id="F" d="M6.543 43.478h17.37V0H6.543z"/></defs><g transform="translate(82)" fill="none" fill-rule="evenodd"><g transform="translate(152.174 315.217)"><mask id="G" class="D"><use xlink:href="#A"/></mask><path mask="url(#G)" d="M8.26 184.783h176.087V-.435H8.26z" class="B C"/></g><g transform="translate(152.174)"><mask id="H" class="D"><use xlink:href="#B"/></mask><path mask="url(#H)" d="M8.26 185.652h176.087V.435H8.26z" class="B C"/></g><path d="M0 499.565h18.26V.435H0z" class="B C"/><g transform="translate(76.087 434.783)"><mask id="I" class="D"><use xlink:href="#C"/></mask><use xlink:href="#F" mask="url(#I)" class="B C"/></g><g transform="translate(76.087 293.478)"><mask id="J" class="D"><use xlink:href="#D"/></mask><path mask="url(#J)" d="M6.543 47.098h17.37V3.62H6.543z" class="B C"/></g><g transform="translate(76.087 86.957)"><mask id="K" class="D"><use xlink:href="#j" href="#D"/></mask><path mask="url(#K)" d="M6.543 47.098h17.37V3.62H6.543z" class="B C"/></g><g transform="translate(76.087 358.696)"><mask id="L" class="D"><use xlink:href="#E"/></mask><path mask="url(#L)" d="M6.543 50.728h17.37V7.25H6.543z" class="B C"/></g><g transform="translate(76.087 152.174)"><mask id="M" class="D"><use xlink:href="#t" href="#E"/></mask><path mask="url(#M)" d="M6.543 50.728h17.37V7.25H6.543z" class="B C"/></g><g transform="translate(76.087 228.261)"><mask id="N" class="D"><use xlink:href="#y" href="#C"/></mask><use xlink:href="#F" mask="url(#N)" class="B C"/></g><g transform="translate(76.087 21.739)"><mask id="O" class="D"><use xlink:href="#AD" href="#C"/></mask><use xlink:href="#F" mask="url(#O)" class="B C"/></g><path d="M182.598 258.685h43.478v-17.37h-43.478zm65.217 0h43.478v-17.37h-43.478z" class="B C"/></g></svg>