<?xml version="1.0" encoding="UTF-8"?>
<svg width="500px" height="500px" viewBox="0 0 500 500" version="1.1" xmlns="http://www.w3.org/2000/svg" xmlns:xlink="http://www.w3.org/1999/xlink">
    <!-- Generator: Sketch 51.2 (57519) - http://www.bohemiancoding.com/sketch -->
    <title>Slice</title>
    <desc>Created with Sketch.</desc>
    <defs></defs>
    <g id="Page-1" stroke="none" stroke-width="1" fill="none" fill-rule="evenodd">
        <g id="-" transform="translate(0.000000, 127.000000)" fill="#000000" fill-rule="nonzero">
            <path d="M107.995619,177.875137 C95.0711939,177.875137 84.5564074,188.389923 84.5564074,201.314348 C84.5564074,214.238773 95.0711939,224.75356 107.995619,224.75356 C120.920044,224.75356 131.43483,214.238773 131.43483,201.314348 C131.43483,188.389923 120.920044,177.875137 107.995619,177.875137 Z M107.995619,214.895947 C100.438116,214.895947 94.3044907,208.762322 94.3044907,201.204819 C94.3044907,193.647317 100.438116,187.513691 107.995619,187.513691 C115.553122,187.513691 121.686747,193.647317 121.686747,201.204819 C121.686747,208.762322 115.553122,214.895947 107.995619,214.895947 Z" id="Shape"></path>
            <path d="M309.200438,177.875137 C296.276013,177.875137 285.761227,188.389923 285.761227,201.314348 C285.761227,214.238773 296.276013,224.75356 309.200438,224.75356 C322.124863,224.75356 332.63965,214.238773 332.63965,201.314348 C332.63965,188.389923 322.124863,177.875137 309.200438,177.875137 Z M309.200438,214.895947 C301.642935,214.895947 295.50931,208.762322 295.50931,201.204819 C295.50931,193.647317 301.642935,187.513691 309.200438,187.513691 C316.757941,187.513691 322.891566,193.647317 322.891566,201.204819 C322.891566,208.762322 316.757941,214.895947 309.200438,214.895947 Z" id="Shape"></path>
            <path d="M405.805038,177.875137 C392.880613,177.875137 382.365827,188.389923 382.365827,201.314348 C382.365827,214.238773 392.880613,224.75356 405.805038,224.75356 C418.729463,224.75356 429.24425,214.238773 429.24425,201.314348 C429.24425,188.389923 418.729463,177.875137 405.805038,177.875137 Z M405.805038,214.895947 C398.247536,214.895947 392.11391,208.762322 392.11391,201.204819 C392.11391,193.647317 398.247536,187.513691 405.805038,187.513691 C413.362541,187.513691 419.496166,193.647317 419.496166,201.204819 C419.496166,208.762322 413.362541,214.895947 405.805038,214.895947 Z" id="Shape"></path>
            <path d="M0.109529025,173.713034 L0.109529025,193.975904 C0.109529025,196.714129 2.30010953,198.90471 4.92880613,198.90471 L30.1204819,198.90471 C32.8587076,198.90471 34.939759,196.714129 34.939759,194.085433 L58.4884995,194.085433 C60.898138,194.085433 62.9791895,192.332968 63.3077766,189.92333 L66.7031763,167.36035 C68.5651698,154.545455 79.4085433,145.125958 92.4424973,145.016429 L130.33954,144.687842 C131.215772,148.521358 133.406353,151.916758 136.363636,154.326396 L136.363636,168.127054 C128.696605,161.555312 118.838992,157.612267 107.995619,157.612267 C83.7897043,157.612267 64.1840088,177.217963 64.1840088,201.423877 C64.1840088,225.629792 83.7897043,245.235487 107.995619,245.235487 C129.134721,245.235487 146.768894,230.230011 150.930997,210.295728 L151.040526,213.581599 C151.040526,216.319825 153.231106,218.400876 155.859803,218.400876 L249.945235,218.400876 C252.683461,218.400876 254.764513,216.210296 254.764513,213.581599 L254.764513,210.295728 L266.26506,210.295728 C270.427163,230.230011 288.061336,245.235487 309.200438,245.235487 C330.33954,245.235487 347.973713,230.230011 352.135816,210.295728 L362.86966,210.295728 C367.031763,230.230011 384.665936,245.235487 405.805038,245.235487 C430.010953,245.235487 449.616648,225.629792 449.616648,201.423877 C449.616648,193.647317 447.535597,186.308872 443.921139,179.846659 L443.921139,174.589266 L458.488499,189.156627 L458.488499,196.276013 C458.488499,199.014239 460.67908,201.09529 463.307777,201.09529 C466.046002,201.09529 468.127054,198.90471 468.127054,196.276013 L468.127054,173.165389 C468.127054,170.427163 465.936473,168.346112 463.307777,168.346112 C460.569551,168.346112 458.488499,170.536692 458.488499,173.165389 L458.488499,175.355969 L443.921139,160.788609 L443.921139,153.669222 C443.921139,150.930997 441.730559,148.849945 439.101862,148.849945 L200.547645,148.849945 L200.547645,131.544359 C200.547645,128.806134 198.357065,126.725082 195.728368,126.725082 L188.608981,126.725082 L166.374589,62.6506024 L174.370208,62.6506024 L206.681271,139.211391 C207.447974,140.963855 209.200438,142.168675 211.171961,142.168675 L446.440307,142.168675 C446.987952,142.168675 447.535597,142.059146 448.083242,141.840088 L496.714129,124.75356 C498.028478,124.315444 499.123768,123.329682 499.561884,122.015334 C500.109529,120.700986 500,119.277108 499.452355,118.072289 C474.589266,63.0887185 460.350493,32.4205915 456.955093,26.067908 C455.859803,24.0963855 453.669222,23.0010953 453.450164,22.8915663 C452.026287,22.1248631 450.054765,21.577218 447.426068,21.3581599 L192.771084,21.3581599 L184.665936,2.95728368 C183.899233,1.20481928 182.146769,0 180.175246,0 L98.2475356,0 C96.4950712,0 94.8521358,0.985761227 93.9759036,2.51916758 C93.0996714,4.05257393 93.2092004,5.91456736 94.0854326,7.44797371 L104.600219,24.5345016 C105.476451,25.958379 107.009858,26.8346112 108.762322,26.8346112 L136.582694,26.8346112 L151.369113,59.6933187 C152.135816,61.4457831 153.88828,62.5410734 155.859803,62.5410734 L178.203724,126.615553 L159.036145,126.615553 C155.969332,124.096386 152.026287,122.562979 147.754655,122.562979 C144.468784,122.562979 141.401972,123.439211 138.882804,124.972618 L138.882804,46.8784228 C138.882804,38.0065717 131.653888,30.8871851 122.891566,30.8871851 L55.0930997,30.8871851 C46.8784228,30.8871851 39.4304491,35.7064622 36.0350493,43.1544359 L11.8291347,97.0427163 C11.5005476,97.6998905 11.3910186,98.3570646 11.3910186,99.0142388 L11.3910186,159.912377 C11.3910186,160.460022 11.5005476,161.117196 11.7196057,161.664841 L14.4578313,168.784228 L4.81927711,168.784228 C2.08105148,168.784228 0,170.974808 0,173.603505 L0.109529025,173.713034 Z M147.754655,132.311062 C152.245345,132.311062 155.859803,135.92552 155.859803,140.41621 C155.859803,144.9069 152.245345,148.521358 147.754655,148.521358 C143.263965,148.521358 139.649507,144.9069 139.649507,140.41621 C139.649507,135.92552 143.263965,132.311062 147.754655,132.311062 Z M9.85761227,189.047097 L9.85761227,178.532311 L25.3012048,178.532311 L25.3012048,189.047097 L9.85761227,189.047097 Z M129.134721,134.720701 L92.4424973,135.049288 C74.5892662,135.158817 59.8028478,148.083242 57.1741512,165.717415 L54.4359255,184.22782 L35.1588171,184.22782 L35.1588171,173.713034 C35.1588171,170.974808 32.9682366,168.893757 30.33954,168.893757 L25.1916758,168.893757 L21.3581599,159.036145 L21.3581599,100.109529 L45.1259584,47.2070099 C46.8784228,43.263965 50.9309967,40.6352683 55.2026287,40.6352683 L123.001095,40.6352683 C126.506024,40.6352683 129.24425,43.483023 129.24425,46.8784228 L129.24425,134.720701 L129.134721,134.720701 Z M107.995619,235.268346 C89.1566265,235.268346 73.932092,219.934283 73.932092,201.204819 C73.932092,182.365827 89.2661555,167.141292 107.995619,167.141292 C126.834611,167.141292 142.059146,182.475356 142.059146,201.204819 C142.059146,220.043812 126.725082,235.268346 107.995619,235.268346 Z M184.22782,208.543264 L184.22782,172.070099 L221.577218,172.070099 L221.577218,208.543264 L184.22782,208.543264 Z M160.67908,208.543264 L160.67908,172.070099 L174.479737,172.070099 L174.479737,208.543264 L160.67908,208.543264 Z M231.215772,208.543264 L231.215772,172.070099 L245.016429,172.070099 L245.016429,208.543264 L231.215772,208.543264 Z M249.835706,162.322015 L155.750274,162.322015 C153.012048,162.322015 150.930997,164.512596 150.930997,167.141292 L150.930997,192.880613 C150.054765,188.170865 148.3023,183.789704 146.11172,179.73713 L146.11172,158.488499 L299.780942,158.488499 C280.394304,162.760131 265.826944,179.846659 265.498357,200.438116 L254.874042,200.438116 L254.874042,167.141292 C254.874042,164.403067 252.683461,162.322015 250.054765,162.322015 L249.835706,162.322015 Z M318.510405,158.488499 L396.166484,158.488499 C376.779847,162.760131 362.212486,179.846659 361.77437,200.438116 L352.79299,200.438116 C352.464403,179.846659 337.787514,162.760131 318.510405,158.488499 Z M309.090909,235.377875 C290.251917,235.377875 275.027382,220.043812 275.027382,201.314348 C275.027382,182.475356 290.361446,167.250821 309.090909,167.250821 C327.929901,167.250821 343.154436,182.584885 343.154436,201.314348 C343.154436,220.153341 327.820372,235.377875 309.090909,235.377875 Z M405.695509,235.377875 C386.856517,235.377875 371.631982,220.043812 371.631982,201.314348 C371.631982,182.475356 386.966046,167.250821 405.695509,167.250821 C424.534502,167.250821 439.759036,182.584885 439.759036,201.314348 C439.759036,220.153341 424.424973,235.377875 405.695509,235.377875 Z M434.063527,168.017525 C428.696605,163.417306 422.234392,160.131435 415.115005,158.598028 L434.063527,158.598028 L434.063527,168.017525 Z M190.690033,148.849945 L163.417306,148.849945 C164.731654,146.330778 165.498357,143.483023 165.498357,140.525739 C165.498357,139.101862 165.279299,137.787514 165.060241,136.473165 L190.690033,136.473165 L190.690033,148.849945 Z M158.926616,52.9025192 L147.20701,26.9441402 L159.036145,26.9441402 L169.989047,52.9025192 L158.926616,52.9025192 Z M166.812705,20.1533406 C166.046002,18.2913472 164.293538,17.196057 162.322015,17.196057 L111.500548,17.196057 L107.009858,9.85761227 L176.998905,9.85761227 L230.230011,132.420591 L214.238773,132.420591 L166.812705,20.1533406 Z M469.989047,123.767798 L470.75575,82.0372399 L488.170865,117.415115 L469.989047,123.767798 Z M207.009858,53.3406353 L458.050383,53.3406353 L462.650602,63.1982475 L211.610077,63.1982475 L207.009858,53.3406353 Z M214.457831,69.8795181 L228.148959,69.8795181 L230.558598,106.352683 L214.56736,69.8795181 L214.457831,69.8795181 Z M238.992333,69.8795181 L255.750274,69.8795181 L255.750274,132.311062 L238.992333,132.311062 L238.992333,69.8795181 Z M269.441402,69.8795181 L286.199343,69.8795181 L286.199343,132.311062 L269.441402,132.311062 L269.441402,69.8795181 Z M298.357065,69.8795181 L315.115005,69.8795181 L315.115005,132.311062 L298.357065,132.311062 L298.357065,69.8795181 Z M328.806134,69.8795181 L345.564074,69.8795181 L345.564074,132.311062 L328.806134,132.311062 L328.806134,69.8795181 Z M357.721796,69.8795181 L374.479737,69.8795181 L374.479737,132.311062 L357.721796,132.311062 L357.721796,69.8795181 Z M388.170865,69.8795181 L404.928806,69.8795181 L404.928806,132.311062 L388.170865,132.311062 L388.170865,69.8795181 Z M417.086528,69.8795181 L433.844469,69.8795181 L433.844469,132.311062 L417.086528,132.311062 L417.086528,69.8795181 Z M442.935378,69.8795181 L459.693319,69.8795181 L459.693319,126.286966 L442.935378,132.420591 L442.935378,69.9890471 L442.935378,69.8795181 Z M435.377875,29.1347207 L447.535597,29.1347207 L455.0931,44.3592552 L442.935378,44.3592552 L435.377875,29.1347207 Z M411.062432,29.1347207 L423.220153,29.1347207 L430.777656,44.3592552 L418.619934,44.3592552 L411.062432,29.1347207 Z M388.280394,29.1347207 L400.438116,29.1347207 L407.995619,44.3592552 L395.837897,44.3592552 L388.280394,29.1347207 Z M363.964951,29.1347207 L376.122673,29.1347207 L383.680175,44.3592552 L371.522453,44.3592552 L363.964951,29.1347207 Z M341.182913,29.1347207 L353.340635,29.1347207 L360.898138,44.3592552 L348.740416,44.3592552 L341.182913,29.1347207 Z M316.86747,29.1347207 L329.025192,29.1347207 L336.582694,44.3592552 L324.424973,44.3592552 L316.86747,29.1347207 Z M292.552026,29.1347207 L304.709748,29.1347207 L312.267251,44.3592552 L300.109529,44.3592552 L292.552026,29.1347207 Z M269.769989,29.1347207 L281.927711,29.1347207 L289.485214,44.3592552 L277.327492,44.3592552 L269.769989,29.1347207 Z M245.454545,29.1347207 L257.612267,29.1347207 L265.16977,44.3592552 L253.012048,44.3592552 L245.454545,29.1347207 Z M222.672508,29.1347207 L234.83023,29.1347207 L242.387733,44.3592552 L230.230011,44.3592552 L222.672508,29.1347207 Z M198.357065,29.1347207 L210.514786,29.1347207 L218.072289,44.3592552 L205.914567,44.3592552 L198.357065,29.1347207 Z" id="Shape"></path>
            <path d="M108.871851,98.2475356 L108.871851,56.0788609 C108.871851,53.3406353 106.681271,51.2595838 104.052574,51.2595838 L52.9025192,51.2595838 C50.9309967,51.2595838 49.1785323,52.4644031 48.4118291,54.2168675 L30.558598,96.3855422 C29.9014239,97.9189485 30.1204819,99.5618839 30.9967141,100.985761 C31.8729463,102.30011 33.4063527,103.176342 35.0492881,103.176342 L104.052574,103.176342 C106.7908,103.176342 108.871851,100.985761 108.871851,98.3570646 L108.871851,98.2475356 Z M56.0788609,60.898138 L60.1314348,60.898138 L60.1314348,93.3187295 L42.2782037,93.3187295 L55.9693319,60.898138 L56.0788609,60.898138 Z M69.8795181,93.3187295 L69.8795181,60.898138 L99.1237678,60.898138 L99.1237678,93.3187295 L69.8795181,93.3187295 Z" id="Shape"></path>
            <path d="M100.766703,112.924425 L80.5038335,112.924425 C77.7656079,112.924425 75.6845564,115.115005 75.6845564,117.743702 C75.6845564,120.481928 77.8751369,122.562979 80.5038335,122.562979 L100.766703,122.562979 C103.504929,122.562979 105.58598,120.372399 105.58598,117.743702 C105.58598,115.005476 103.3954,112.924425 100.766703,112.924425 Z" id="Shape"></path>
        </g>
    </g>
</svg>