<?xml version="1.0" encoding="UTF-8"?>
<svg width="500px" height="500px" viewBox="0 0 500 500" version="1.1" xmlns="http://www.w3.org/2000/svg" xmlns:xlink="http://www.w3.org/1999/xlink">
    <!-- Generator: Sketch 51.2 (57519) - http://www.bohemiancoding.com/sketch -->
    <title>Slice</title>
    <desc>Created with Sketch.</desc>
    <defs></defs>
    <g id="Page-1" stroke="none" stroke-width="1" fill="none" fill-rule="evenodd">
        <g id="svg_electric_pole" transform="translate(0.000000, 56.000000)" fill="#000000" fill-rule="nonzero">
            <polygon id="Shape" points="225.806452 322.564516 274.193548 322.564516 274.193548 387.080645 225.806452 387.080645"></polygon>
            <polygon id="Shape" points="225.806452 145.153226 274.193548 145.153226 274.193548 306.443548 225.806452 306.443548"></polygon>
            <polygon id="Shape" points="96.7741935 112.895161 403.225806 112.895161 403.225806 129.016129 96.7741935 129.016129"></polygon>
            <path d="M379.032258,40.3225806 C373.080645,40.3225806 367.943548,43.5806452 365.145161,48.3790323 L312.274194,48.3790323 C309.475806,43.5806452 304.33871,40.3225806 298.387097,40.3225806 C292.435484,40.3225806 287.298387,43.5806452 284.5,48.3790323 L258.064516,48.3790323 L258.064516,8.05645161 L241.935484,8.05645161 L241.935484,48.3790323 L215.5,48.3790323 C212.701613,43.5806452 207.564516,40.3225806 201.612903,40.3225806 C195.66129,40.3225806 190.524194,43.5806452 187.725806,48.3790323 L134.854839,48.3790323 C132.056452,43.5806452 126.919355,40.3225806 120.967742,40.3225806 C115.016129,40.3225806 109.879032,43.5806452 107.080645,48.3790323 L0,48.3790323 L0,64.5 L104.83871,64.5 L104.83871,72.5806452 L112.903226,72.5806452 L112.903226,104.822581 L129.032258,104.822581 L129.032258,72.5806452 L137.096774,72.5806452 L137.096774,64.5 L185.483871,64.5 L185.483871,72.5806452 L193.548387,72.5806452 L193.548387,104.822581 L209.677419,104.822581 L209.677419,72.5806452 L217.741935,72.5806452 L217.741935,64.5 L241.935484,64.5 L241.935484,104.822581 L258.064516,104.822581 L258.064516,64.5 L282.258065,64.5 L282.258065,72.5806452 L290.322581,72.5806452 L290.322581,104.822581 L306.451613,104.822581 L306.451613,72.5806452 L314.516129,72.5806452 L314.516129,64.5 L362.903226,64.5 L362.903226,72.5806452 L370.967742,72.5806452 L370.967742,104.822581 L387.096774,104.822581 L387.096774,72.5806452 L395.16129,72.5806452 L395.16129,64.5 L500,64.5 L500,48.3790323 L392.919355,48.3790323 C390.120968,43.5806452 384.983871,40.3225806 379.032258,40.3225806 Z" id="Shape"></path>
        </g>
    </g>
</svg>