<?xml version="1.0" encoding="UTF-8"?>
<svg width="500px" height="500px" viewBox="0 0 500 500" version="1.1" xmlns="http://www.w3.org/2000/svg" xmlns:xlink="http://www.w3.org/1999/xlink">
    <!-- Generator: Sketch 51.2 (57519) - http://www.bohemiancoding.com/sketch -->
    <title>Slice</title>
    <desc>Created with Sketch.</desc>
    <defs></defs>
    <g id="Page-1" stroke="none" stroke-width="1" fill="none" fill-rule="evenodd">
        <g id="svg_chipper" transform="translate(0.000000, 92.000000)" fill="#000000" fill-rule="nonzero">
            <path d="M499.024833,37.8836152 L478.243625,45.2343491 L469.65201,28.0949629 L461.363088,36.8344911 C447.22316,23.6697313 420.597813,10.8076633 399.631715,10.8076633 C377.734069,10.8076633 355.789202,19.1447669 341.363623,34.9864587 C327.201779,50.5385257 319.34799,74.4087721 319.106447,95.9060756 L319.106447,144.664445 L343.219919,144.664445 L343.219919,167.093296 L365.648769,167.093296 L365.648769,242.181186 L398.80446,242.181186 L398.80446,265.097619 L338.122211,265.097619 L371.277903,323.607664 L359.945678,323.607664 L324.839651,265.097619 L273.495449,265.097619 C275.445784,269.973457 276.420951,274.849294 276.420951,280.212715 C276.420951,304.104316 256.917603,323.607664 233.026002,323.607664 C209.1344,323.607664 189.631053,304.104316 189.631053,280.212715 C189.631053,274.849294 190.606221,269.973457 192.556555,265.097619 L136.484429,265.097619 L136.484429,242.181186 L112.592828,242.181186 L112.592828,204.637241 L20.9270924,149.052699 L4.34924661,158.804373 L0,151.627141 L121.700892,78.6066059 L126.245172,85.6668179 L110.642493,94.9309082 L150.136774,184.646309 L186.365881,203.699052 L186.365881,136.863107 L175.151455,136.863107 L175.151455,127.672972 L205.196753,127.672972 L205.196753,136.863107 L195.482057,136.863107 L195.482057,204.149658 L203.77098,204.149658 L203.77098,167.093296 L284.709874,167.093296 L284.709874,144.664445 L307.774222,144.664445 L307.774222,96.8812431 C308.261805,40.8091174 346.522069,0 402.106611,0 C423.560294,0 445.087934,11.8869006 461.178195,22.613742 L465.115844,8.14100955 L499.024833,37.8836152 Z M29.4110488,143.513748 L121.963563,200.910931 L121.963563,234.623638 L144.773352,234.623638 L144.773352,254.61457 L197.554288,254.126987 C207.06217,241.612338 218.723547,235.355014 232.538419,235.355014 C246.35329,235.355014 258.542882,241.774867 269.107196,254.61457 L391.416748,254.61457 L391.416748,251.312419 L354.810992,251.312419 L354.810992,176.966866 L332.906704,177.51296 L332.906704,154.659912 L294.70534,154.659912 L294.70534,176.966866 L213.803425,176.966866 L213.803425,212.550607 L185.728745,212.550607 L144.773352,191.295547 L101.924497,100.411349 L29.4110488,143.513748 Z M233.513586,312.880822 C251.670274,312.880822 266.669278,297.881819 266.669278,279.72513 C266.669278,261.568443 251.670274,246.569439 233.513586,246.569439 C215.356898,246.569439 200.357894,261.568443 200.357894,279.72513 C200.357894,297.881819 215.356898,312.880822 233.513586,312.880822 Z M233.513586,288.014053 C237.901839,288.014053 241.802509,284.113384 241.802509,279.72513 C241.802509,275.336877 238.389423,271.436207 233.513586,271.436207 C229.125333,271.436207 225.224663,275.336877 225.224663,279.72513 C225.224663,284.113384 228.637749,288.014053 233.513586,288.014053 Z" id="Shape"></path>
        </g>
    </g>
</svg>