<?xml version="1.0" encoding="UTF-8"?>
<svg width="500px" height="500px" viewBox="0 0 500 500" version="1.1" xmlns="http://www.w3.org/2000/svg" xmlns:xlink="http://www.w3.org/1999/xlink">
    <!-- Generator: Sketch 51.2 (57519) - http://www.bohemiancoding.com/sketch -->
    <title>Slice</title>
    <desc>Created with Sketch.</desc>
    <defs></defs>
    <g id="Page-1" stroke="none" stroke-width="1" fill="none" fill-rule="evenodd">
        <g id="svg_traffic_cone" transform="translate(24.000000, 0.000000)" fill="#000000" fill-rule="nonzero">
            <path d="M405.220031,418.556213 L295.379639,20.4162598 C292.060852,8.39614844 281.036377,0 268.566132,0 L182.605743,0 C170.135498,0 159.111023,8.39614844 155.792236,20.4200742 L45.9518437,418.556213 C19.9890137,422.401428 -2.84217094e-14,444.828033 -2.84217094e-14,471.84372 L-2.84217094e-14,490.234375 C-2.84217094e-14,495.628357 4.37164258,500 9.765625,500 L181.636811,500 C187.030792,500 191.402436,495.628357 191.402436,490.234375 C191.402436,484.840393 187.030792,480.46875 181.636811,480.46875 L19.53125,480.46875 L19.53125,471.84372 C19.53125,452.907562 34.934998,437.5 53.8749697,437.5 L397.296905,437.5 C416.236877,437.5 431.640625,452.907562 431.640625,471.84372 L431.640625,480.46875 L269.527436,480.46875 C264.137268,480.46875 259.761811,484.840393 259.761811,490.234375 C259.761811,495.628357 264.137268,500 269.527436,500 L441.40625,500 C446.800232,500 451.171875,495.628357 451.171875,490.234375 L451.171875,471.84372 C451.171875,444.828033 431.182861,422.401428 405.220031,418.556213 Z M89.8132324,333.007812 L361.358643,333.007812 L384.799957,417.96875 L66.371918,417.96875 L89.8132324,333.007812 Z M118.640899,228.515625 L332.530976,228.515625 L355.968476,313.476562 L95.199585,313.476562 L118.640899,228.515625 Z M147.468566,124.023438 L303.703309,124.023438 L327.140809,208.984375 L124.031066,208.984375 L147.468566,124.023438 Z M174.621582,25.6156924 C175.609589,22.0336914 178.894043,19.53125 182.609559,19.53125 L268.566132,19.53125 C272.281646,19.53125 275.566102,22.0336914 276.554107,25.611877 L298.313141,104.492188 L152.858734,104.492188 L174.621582,25.6156924 Z" id="Shape"></path>
            <path d="M225.585938,480.46875 C223.018646,480.46875 220.497131,481.513977 218.681336,483.329773 C216.865539,485.145568 215.820312,487.667084 215.820312,490.234375 C215.820312,492.801666 216.865539,495.323182 218.681336,497.138977 C220.497131,498.954773 223.018646,500 225.585938,500 C228.153229,500 230.674744,498.954773 232.490539,497.138977 C234.306336,495.323182 235.351562,492.801666 235.351562,490.234375 C235.351562,487.667084 234.306336,485.145568 232.490539,483.329773 C230.674744,481.513977 228.153229,480.46875 225.585938,480.46875 Z" id="Shape"></path>
        </g>
    </g>
</svg>