<svg xmlns="http://www.w3.org/2000/svg" xmlns:xlink="http://www.w3.org/1999/xlink" width="500" height="500"><style><![CDATA[.B{fill:#fff}.C{fill:#000}.D{fill-rule:nonzero}]]></style><defs><path id="A" d="M4.326.435H21.74V500H4.348z"/><path id="B" d="M8.696.435H26.11V500H8.717z"/><path id="C" d="M6.543 0h17.37v43.478H6.543z"/><path id="D" d="M6.543 3.62h17.37v43.478H6.543z"/><path id="E" d="M6.543 7.25h17.37v43.478H6.543z"/><path id="F" d="M6.543 43.478h17.37V0H6.543z"/></defs><g transform="translate(158)" fill="none" fill-rule="evenodd"><mask id="G" class="B"><use xlink:href="#A"/></mask><path mask="url(#G)" d="M3.913 500h18.26V.435H3.913z" class="C D"/><g transform="translate(152.174)"><mask id="H" class="B"><use xlink:href="#B"/></mask><path mask="url(#H)" d="M8.26 500h18.26V.435H8.26z" class="C D"/></g><g transform="translate(76.087 434.783)"><mask id="I" class="B"><use xlink:href="#C"/></mask><use xlink:href="#F" mask="url(#I)" class="C D"/></g><g transform="translate(76.087 293.478)"><mask id="J" class="B"><use xlink:href="#D"/></mask><path mask="url(#J)" d="M6.543 47.098h17.37V3.62H6.543z" class="C D"/></g><g transform="translate(76.087 86.957)"><mask id="K" class="B"><use xlink:href="#i" href="#D"/></mask><path mask="url(#K)" d="M6.543 47.098h17.37V3.62H6.543z" class="C D"/></g><g transform="translate(76.087 358.696)"><mask id="L" class="B"><use xlink:href="#E"/></mask><path mask="url(#L)" d="M6.543 50.728h17.37V7.25H6.543z" class="C D"/></g><g transform="translate(76.087 152.174)"><mask id="M" class="B"><use xlink:href="#s" href="#E"/></mask><path mask="url(#M)" d="M6.543 50.728h17.37V7.25H6.543z" class="C D"/></g><g transform="translate(76.087 228.261)"><mask id="N" class="B"><use xlink:href="#x" href="#C"/></mask><use xlink:href="#F" mask="url(#N)" class="C D"/></g><g transform="translate(76.087 21.739)"><mask id="O" class="B"><use xlink:href="#AC" href="#C"/></mask><use xlink:href="#F" mask="url(#O)" class="C D"/></g></g></svg>