<?xml version="1.0" encoding="UTF-8"?>
<svg width="500px" height="500px" viewBox="0 0 500 500" version="1.1" xmlns="http://www.w3.org/2000/svg" xmlns:xlink="http://www.w3.org/1999/xlink">
    <!-- Generator: Sketch 51.2 (57519) - http://www.bohemiancoding.com/sketch -->
    <title>Slice</title>
    <desc>Created with Sketch.</desc>
    <defs></defs>
    <g id="Page-1" stroke="none" stroke-width="1" fill="none" fill-rule="evenodd">
        <g id="svg_crossroad" transform="translate(80.000000, 0.000000)" fill="#000000" fill-rule="nonzero">
            <path d="M19.571429,78.5 C14.6428576,78.5 -3.21428543,78.5 1.714286,78.5 L1.714286,491.071429 C1.714286,496.008929 5.714286,500 10.642857,500 C15.571429,500 19.571429,496.008929 19.571429,491.071429 L19.571429,78.5 Z" id="Shape"></path>
            <path d="M171.357143,178.571429 L332.071429,178.571429 C337,178.571429 341,174.580357 341,169.642857 C341,164.705357 337,160.714286 332.071429,160.714286 L180.285714,160.714286 L180.285714,8.92857143 C180.285714,3.99107143 176.285714,0 171.357143,0 C166.428571,0 162.428571,3.99107143 162.428571,8.92857143 L162.428571,169.642857 C162.428571,174.580357 166.428571,178.571429 171.357143,178.571429 Z" id="Shape"></path>
            <path d="M10.642857,0 C5.714286,0 1.714286,3.99107143 1.714286,8.92857143 L1.714286,160.714286 C10.3333337,160.714286 16.2857147,160.714286 19.571429,160.714286 L19.571429,8.92857143 C19.571429,3.99107143 15.571429,0 10.642857,0 Z" id="Shape"></path>
            <path d="M332.071429,321.428571 L171.357143,321.428571 C166.428571,321.428571 162.428571,325.419643 162.428571,330.357143 L162.428571,491.071429 C162.428571,496.008929 166.428571,500 171.357143,500 C176.285714,500 180.285714,496.008929 180.285714,491.071429 L180.285714,339.285714 L332.071429,339.285714 C337,339.285714 341,335.294643 341,330.357143 C341,325.419643 337,321.428571 332.071429,321.428571 Z" id="Shape"></path>
            <rect id="Rectangle-path" x="171.357143" y="241.071429" width="44.6428571" height="17.8571429"></rect>
            <rect id="Rectangle-path" x="233.857143" y="241.071429" width="44.6428571" height="17.8571429"></rect>
            <rect id="Rectangle-path" x="296.357143" y="241.071429" width="44.6428571" height="17.8571429"></rect>
            <rect id="Rectangle-path" x="82.071429" y="0" width="17.8571429" height="44.6428571"></rect>
            <rect id="Rectangle-path" x="82.071429" y="330.357143" width="17.8571429" height="44.6428571"></rect>
            <rect id="Rectangle-path" x="82.071429" y="62.5" width="17.8571429" height="44.6428571"></rect>
            <rect id="Rectangle-path" x="82.071429" y="392.857143" width="17.8571429" height="44.6428571"></rect>
            <rect id="Rectangle-path" x="82.071429" y="125" width="17.8571429" height="44.6428571"></rect>
            <rect id="Rectangle-path" x="82.071429" y="455.357143" width="17.8571429" height="44.6428571"></rect>
        </g>
    </g>
</svg>