<svg height="512pt" viewBox="-25 0 512 512" width="512pt" xmlns="http://www.w3.org/2000/svg"><path d="m414.945312 428.601562-112.476562-407.695312c-3.398438-12.308594-14.6875-20.90625-27.457031-20.90625h-88.023438c-12.769531 0-24.058593 8.597656-27.457031 20.910156l-112.476562 407.691406c-26.585938 3.9375-47.054688 26.902344-47.054688 54.566407v18.832031c0 5.523438 4.476562 10 10 10h175.996094c5.523437 0 10-4.476562 10-10s-4.476563-10-10-10h-165.996094v-8.832031c0-19.390625 15.773438-35.167969 35.167969-35.167969h351.664062c19.394531 0 35.167969 15.777344 35.167969 35.167969v8.832031h-166.003906c-5.519532 0-10 4.476562-10 10s4.480468 10 10 10h176.003906c5.523438 0 10-4.476562 10-10v-18.832031c0-27.664063-20.46875-50.628907-47.054688-54.566407zm-322.976562-87.601562h278.0625l24.003906 87h-326.070312zm29.519531-107h219.023438l24 87h-267.027344zm29.519531-107h159.984376l24 87h-207.984376zm27.804688-100.769531c1.011719-3.667969 4.375-6.230469 8.179688-6.230469h88.019531c3.804687 0 7.167969 2.5625 8.179687 6.226562l22.28125 80.773438h-148.945312zm0 0"/><path d="m231 492c-2.628906 0-5.210938 1.070312-7.070312 2.929688-1.859376 1.859374-2.929688 4.441406-2.929688 7.070312s1.070312 5.210938 2.929688 7.070312c1.859374 1.859376 4.441406 2.929688 7.070312 2.929688s5.210938-1.070312 7.070312-2.929688c1.859376-1.859374 2.929688-4.441406 2.929688-7.070312s-1.070312-5.210938-2.929688-7.070312c-1.859374-1.859376-4.441406-2.929688-7.070312-2.929688zm0 0"/></svg>