<?xml version="1.0" encoding="UTF-8"?>
<svg width="500px" height="500px" viewBox="0 0 500 500" version="1.1" xmlns="http://www.w3.org/2000/svg" xmlns:xlink="http://www.w3.org/1999/xlink">
    <!-- Generator: Sketch 51.2 (57519) - http://www.bohemiancoding.com/sketch -->
    <title>Slice</title>
    <desc>Created with Sketch.</desc>
    <defs></defs>
    <g id="Page-1" stroke="none" stroke-width="1" fill="none" fill-rule="evenodd">
        <g id="svg_crossroad" transform="translate(250.000000, 250.000000) scale(1, -1) translate(-250.000000, -250.000000) translate(0.000000, 80.000000)" fill="#000000" fill-rule="nonzero">
            <path d="M169.642857,161.428571 L8.92857143,161.428571 C4,161.428571 0,165.419643 0,170.357143 C0,175.294643 4,179.285714 8.92857143,179.285714 L160.714286,179.285714 L160.714286,331.071429 C160.714286,336.008929 164.714286,340 169.642857,340 C174.571429,340 178.571429,336.008929 178.571429,331.071429 L178.571429,170.357143 C178.571429,165.419643 174.571429,161.428571 169.642857,161.428571 Z" id="Shape"></path>
            <path d="M200,18.571429 L491.071429,18.571429 C496,18.571429 500,14.580357 500,9.642857 C500,4.705357 496,0.714286 491.071429,0.714286 L200,0.714286 L200,18.571429 Z" id="Shape"></path>
            <path d="M200,0.714286 L8.92857143,0.714286 C4,0.714286 0,4.705357 0,9.642857 C0,14.580357 4,18.571429 8.92857143,18.571429 L200,18.571429 L200,0.714286 Z" id="Shape"></path>
            <path d="M491.071429,161.428571 L330.357143,161.428571 C325.428571,161.428571 321.428571,165.419643 321.428571,170.357143 L321.428571,331.071429 C321.428571,336.008929 325.428571,340 330.357143,340 C335.285714,340 339.285714,336.008929 339.285714,331.071429 L339.285714,179.285714 L491.071429,179.285714 C496,179.285714 500,175.294643 500,170.357143 C500,165.419643 496,161.428571 491.071429,161.428571 Z" id="Shape"></path>
            <rect id="Rectangle-path" x="0" y="81.071429" width="44.6428571" height="17.8571429"></rect>
            <rect id="Rectangle-path" x="330.357143" y="81.071429" width="44.6428571" height="17.8571429"></rect>
            <rect id="Rectangle-path" x="62.5" y="81.071429" width="44.6428571" height="17.8571429"></rect>
            <rect id="Rectangle-path" x="392.857143" y="81.071429" width="44.6428571" height="17.8571429"></rect>
            <rect id="Rectangle-path" x="125" y="81.071429" width="44.6428571" height="17.8571429"></rect>
            <rect id="Rectangle-path" x="455.357143" y="81.071429" width="44.6428571" height="17.8571429"></rect>
            <rect id="Rectangle-path" x="241.071429" y="170.357143" width="17.8571429" height="44.6428571"></rect>
            <rect id="Rectangle-path" x="241.071429" y="232.857143" width="17.8571429" height="44.6428571"></rect>
            <rect id="Rectangle-path" x="241.071429" y="295.357143" width="17.8571429" height="44.6428571"></rect>
        </g>
    </g>
</svg>