<svg id="Layer_1" enable-background="new 0 0 512 512" height="512" viewBox="0 0 512 512" width="512" xmlns="http://www.w3.org/2000/svg"><g><circle cx="502" cy="227" r="10"/><path d="m503.21 28.79c-5.66-5.67-13.19-8.79-21.21-8.79s-15.55 3.12-21.21 8.79c-5.67 5.66-8.79 13.19-8.79 21.21v40h-91c-5.523 0-10 4.477-10 10s4.477 10 10 10h91v60h-23c-5.523 0-10 4.477-10 10s4.477 10 10 10h23v60h-91c-5.523 0-10 4.477-10 10s4.477 10 10 10h91v60h-23c-5.523 0-10 4.477-10 10s4.477 10 10 10h23v60h-91c-5.523 0-10 4.477-10 10s4.477 10 10 10h91v52c0 2.63 1.07 5.21 2.93 7.07s4.44 2.93 7.07 2.93h40c2.63 0 5.21-1.07 7.07-2.93s2.93-4.44 2.93-7.07v-210c0-5.51-4.49-10-10-10s-10 4.49-10 10v200h-20v-422c.01-5.5 4.5-9.99 10-10 5.5.01 9.99 4.5 10 10v132c0 5.51 4.49 10 10 10s10-4.49 10-10v-132c0-8.02-3.12-15.55-8.79-21.21z"/><path d="m358.929 362.071c1.953 1.952 4.512 2.929 7.071 2.929s5.119-.977 7.071-2.929l7.929-7.929 7.929 7.929c1.953 1.952 4.512 2.929 7.071 2.929s5.119-.977 7.071-2.929c3.905-3.905 3.905-10.237 0-14.143l-7.928-7.928 7.929-7.929c3.905-3.905 3.905-10.237 0-14.143-3.905-3.904-10.237-3.904-14.143 0l-7.929 7.929-7.929-7.929c-3.905-3.904-10.237-3.904-14.143 0-3.905 3.905-3.905 10.237 0 14.143l7.929 7.929-7.929 7.929c-3.904 3.905-3.904 10.237.001 14.142z"/><path d="m153.071 317.929c-3.905-3.904-10.237-3.904-14.143 0l-7.928 7.928-7.929-7.929c-3.905-3.904-10.237-3.904-14.143 0-3.905 3.905-3.905 10.237 0 14.143l7.929 7.929-7.929 7.929c-3.905 3.905-3.905 10.237 0 14.143 1.953 1.952 4.512 2.929 7.071 2.929s5.119-.977 7.071-2.929l7.929-7.929 7.929 7.929c1.953 1.952 4.512 2.929 7.071 2.929s5.119-.977 7.071-2.929c3.905-3.905 3.905-10.237 0-14.143l-7.927-7.929 7.929-7.929c3.904-3.905 3.904-10.237-.001-14.142z"/><path d="m233.929 362.071c1.953 1.952 4.512 2.929 7.071 2.929s5.119-.977 7.071-2.929l7.929-7.929 7.929 7.929c1.953 1.952 4.512 2.929 7.071 2.929s5.119-.977 7.071-2.929c3.905-3.905 3.905-10.237 0-14.143l-7.928-7.928 7.929-7.929c3.905-3.905 3.905-10.237 0-14.143-3.905-3.904-10.237-3.904-14.143 0l-7.929 7.929-7.929-7.929c-3.905-3.904-10.237-3.904-14.143 0-3.905 3.905-3.905 10.237 0 14.143l7.929 7.929-7.929 7.929c-3.904 3.905-3.904 10.237.001 14.142z"/><path d="m338 330h-39c-5.523 0-10 4.477-10 10s4.477 10 10 10h39c5.523 0 10-4.477 10-10s-4.477-10-10-10z"/><path d="m213 330h-39c-5.523 0-10 4.477-10 10s4.477 10 10 10h39c5.523 0 10-4.477 10-10s-4.477-10-10-10z"/><path d="m295.929 282.071c1.953 1.952 4.512 2.929 7.071 2.929s5.119-.977 7.071-2.929l7.929-7.929 7.929 7.929c1.953 1.952 4.512 2.929 7.071 2.929s5.119-.977 7.071-2.929c3.905-3.905 3.905-10.237 0-14.143l-7.928-7.928 7.929-7.929c3.905-3.905 3.905-10.237 0-14.143-3.905-3.904-10.237-3.904-14.143 0l-7.929 7.929-7.929-7.929c-3.905-3.904-10.237-3.904-14.143 0-3.905 3.905-3.905 10.237 0 14.143l7.929 7.929-7.929 7.929c-3.904 3.905-3.904 10.237.001 14.142z"/><path d="m172.929 282.071c1.953 1.952 4.512 2.929 7.071 2.929s5.119-.977 7.071-2.929l7.929-7.929 7.929 7.929c1.953 1.952 4.512 2.929 7.071 2.929s5.119-.977 7.071-2.929c3.905-3.905 3.905-10.237 0-14.143l-7.928-7.928 7.929-7.929c3.905-3.905 3.905-10.237 0-14.143-3.905-3.904-10.237-3.904-14.143 0l-7.929 7.929-7.929-7.929c-3.905-3.904-10.237-3.904-14.143 0-3.905 3.905-3.905 10.237 0 14.143l7.929 7.929-7.929 7.929c-3.904 3.905-3.904 10.237.001 14.142z"/><path d="m162 260c0-5.523-4.477-10-10-10h-92v-60h23c5.523 0 10-4.477 10-10s-4.477-10-10-10h-23v-60h91c5.523 0 10-4.477 10-10s-4.477-10-10-10h-91v-40c0-16.542-13.458-30-30-30s-30 13.458-30 30v432c0 5.523 4.477 10 10 10h40c5.523 0 10-4.477 10-10v-52h91c5.523 0 10-4.477 10-10s-4.477-10-10-10h-91v-60h23c5.523 0 10-4.477 10-10s-4.477-10-10-10h-23v-60h92c5.523 0 10-4.477 10-10zm-122 212h-20v-422c0-5.514 4.486-10 10-10s10 4.486 10 10z"/><path d="m275 250h-37c-5.523 0-10 4.477-10 10s4.477 10 10 10h37c5.523 0 10-4.477 10-10s-4.477-10-10-10z"/><path d="m340.071 397.929c-3.905-3.904-10.237-3.904-14.143 0l-7.928 7.928-7.929-7.929c-3.905-3.904-10.237-3.904-14.143 0-3.905 3.905-3.905 10.237 0 14.143l7.929 7.929-7.929 7.929c-3.905 3.905-3.905 10.237 0 14.143 1.953 1.952 4.512 2.929 7.071 2.929s5.119-.977 7.071-2.929l7.929-7.929 7.929 7.929c1.953 1.952 4.512 2.929 7.071 2.929s5.119-.977 7.071-2.929c3.905-3.905 3.905-10.237 0-14.143l-7.927-7.929 7.929-7.929c3.904-3.905 3.904-10.237-.001-14.142z"/><path d="m216.071 397.929c-3.905-3.904-10.237-3.904-14.143 0l-7.928 7.928-7.929-7.929c-3.905-3.904-10.237-3.904-14.143 0-3.905 3.905-3.905 10.237 0 14.143l7.929 7.929-7.929 7.929c-3.905 3.905-3.905 10.237 0 14.143 1.953 1.952 4.512 2.929 7.071 2.929s5.119-.977 7.071-2.929l7.929-7.929 7.929 7.929c1.953 1.952 4.512 2.929 7.071 2.929s5.119-.977 7.071-2.929c3.905-3.905 3.905-10.237 0-14.143l-7.927-7.929 7.929-7.929c3.904-3.905 3.904-10.237-.001-14.142z"/><path d="m275 410h-38c-5.523 0-10 4.477-10 10s4.477 10 10 10h38c5.523 0 10-4.477 10-10s-4.477-10-10-10z"/><path d="m295.929 122.071c1.953 1.952 4.512 2.929 7.071 2.929s5.119-.977 7.071-2.929l7.929-7.929 7.929 7.929c1.953 1.952 4.512 2.929 7.071 2.929s5.119-.977 7.071-2.929c3.905-3.905 3.905-10.237 0-14.143l-7.928-7.928 7.929-7.929c3.905-3.905 3.905-10.237 0-14.143-3.905-3.904-10.237-3.904-14.143 0l-7.929 7.929-7.929-7.929c-3.905-3.904-10.237-3.904-14.143 0-3.905 3.905-3.905 10.237 0 14.143l7.929 7.929-7.929 7.929c-3.904 3.905-3.904 10.237.001 14.142z"/><path d="m171.929 122.071c1.953 1.952 4.512 2.929 7.071 2.929s5.119-.977 7.071-2.929l7.929-7.929 7.929 7.929c1.953 1.952 4.512 2.929 7.071 2.929s5.119-.977 7.071-2.929c3.905-3.905 3.905-10.237 0-14.143l-7.928-7.928 7.929-7.929c3.905-3.905 3.905-10.237 0-14.143-3.905-3.904-10.237-3.904-14.143 0l-7.929 7.929-7.929-7.929c-3.905-3.904-10.237-3.904-14.143 0-3.905 3.905-3.905 10.237 0 14.143l7.929 7.929-7.929 7.929c-3.904 3.905-3.904 10.237.001 14.142z"/><path d="m275 90h-38c-5.523 0-10 4.477-10 10s4.477 10 10 10h38c5.523 0 10-4.477 10-10s-4.477-10-10-10z"/><path d="m358.929 202.071c1.953 1.952 4.512 2.929 7.071 2.929s5.119-.977 7.071-2.929l7.929-7.929 7.929 7.929c1.953 1.952 4.512 2.929 7.071 2.929s5.119-.977 7.071-2.929c3.905-3.905 3.905-10.237 0-14.143l-7.928-7.928 7.929-7.929c3.905-3.905 3.905-10.237 0-14.143-3.905-3.904-10.237-3.904-14.143 0l-7.929 7.929-7.929-7.929c-3.905-3.904-10.237-3.904-14.143 0-3.905 3.905-3.905 10.237 0 14.143l7.929 7.929-7.929 7.929c-3.904 3.905-3.904 10.237.001 14.142z"/><path d="m153.071 157.929c-3.905-3.904-10.237-3.904-14.143 0l-7.928 7.928-7.929-7.929c-3.905-3.904-10.237-3.904-14.143 0-3.905 3.905-3.905 10.237 0 14.143l7.929 7.929-7.929 7.929c-3.905 3.905-3.905 10.237 0 14.143 1.953 1.952 4.512 2.929 7.071 2.929s5.119-.977 7.071-2.929l7.929-7.929 7.929 7.929c1.953 1.952 4.512 2.929 7.071 2.929s5.119-.977 7.071-2.929c3.905-3.905 3.905-10.237 0-14.143l-7.927-7.929 7.929-7.929c3.904-3.905 3.904-10.237-.001-14.142z"/><path d="m233.929 202.071c1.953 1.952 4.512 2.929 7.071 2.929s5.119-.977 7.071-2.929l7.929-7.929 7.929 7.929c1.953 1.952 4.512 2.929 7.071 2.929s5.119-.977 7.071-2.929c3.905-3.905 3.905-10.237 0-14.143l-7.928-7.928 7.929-7.929c3.905-3.905 3.905-10.237 0-14.143-3.905-3.904-10.237-3.904-14.143 0l-7.929 7.929-7.929-7.929c-3.905-3.904-10.237-3.904-14.143 0-3.905 3.905-3.905 10.237 0 14.143l7.929 7.929-7.929 7.929c-3.904 3.905-3.904 10.237.001 14.142z"/><path d="m338 170h-39c-5.523 0-10 4.477-10 10s4.477 10 10 10h39c5.523 0 10-4.477 10-10s-4.477-10-10-10z"/><path d="m213 170h-39c-5.523 0-10 4.477-10 10s4.477 10 10 10h39c5.523 0 10-4.477 10-10s-4.477-10-10-10z"/></g></svg>