<svg xmlns="http://www.w3.org/2000/svg" xmlns:xlink="http://www.w3.org/1999/xlink" width="500" height="500"><style><![CDATA[.B{fill-rule:nonzero}]]></style><defs><path d="M167.413 184.13V26.065H.652V8.707h175.413c4.848 0 8.707 3.902 8.707 8.707V184.13h-17.36z" id="A"/><path d="M.01 184.13V17.413c0-4.804 3.86-8.707 8.707-8.707h176.065v17.36H17.37V184.13H.01z" id="B"/><path id="C" d="M7.25 6.543h43.478v17.37H7.25z"/></defs><g transform="translate(0 82)" fill="none" fill-rule="evenodd"><g transform="translate(0 152.174)"><mask id="D" fill="#fff"><use xlink:href="#A"/></mask><path fill="#000" mask="url(#D)" d="M.652 184.13H185.87V8.043H.652z" class="B"/></g><g transform="translate(315.217 152.174)"><mask id="E" fill="#fff"><use xlink:href="#B"/></mask><path fill="#000" mask="url(#E)" d="M-.217 184.13H185V8.043H-.217z" class="B"/></g><path d="M.652 18.26H500V0H.652zM21.74 100h43.478V82.63H21.74z" fill="#000" class="B"/><g transform="translate(152.174 76.087)"><mask id="F" fill="#fff"><use xlink:href="#C"/></mask><path fill="#000" mask="url(#F)" d="M7.25 23.913h43.478V6.543H7.25z" class="B"/></g><path d="M365.946 100h43.478V82.63h-43.478zm-275.37 0h43.478V82.63H90.576zm206.522 0h43.478V82.63h-43.478zm-68.838 0h43.478V82.63H228.26zm206.523 0h43.478V82.63h-43.478zM241.315 226.076h17.37v-43.478h-17.37zm0 65.217h17.37v-43.478h-17.37z" fill="#000" class="B"/></g></svg>