<svg height="512pt" viewBox="0 0 512 512" width="512pt" xmlns="http://www.w3.org/2000/svg"><path d="m256 0c-141.386719 0-256 114.613281-256 256s114.613281 256 256 256 256-114.613281 256-256c-.160156-141.320312-114.679688-255.839844-256-256zm0 494.933594c-131.960938 0-238.933594-106.972656-238.933594-238.933594s106.972656-238.933594 238.933594-238.933594 238.933594 106.972656 238.933594 238.933594c-.148438 131.898438-107.035156 238.785156-238.933594 238.933594zm0 0"/><path d="m256 34.132812c-122.535156 0-221.867188 99.332032-221.867188 221.867188s99.332032 221.867188 221.867188 221.867188 221.867188-99.332032 221.867188-221.867188c-.140626-122.476562-99.390626-221.726562-221.867188-221.867188zm0 426.667969c-113.109375 0-204.800781-91.691406-204.800781-204.800781s91.691406-204.800781 204.800781-204.800781 204.800781 91.691406 204.800781 204.800781c-.128906 113.054688-91.746093 204.671875-204.800781 204.800781zm0 0"/><path d="m349.867188 153.601562c-42.347657 0-76.800782 38.277344-76.800782 85.332032v25.601562c0 47.050782 34.453125 85.332032 76.800782 85.332032 42.34375 0 76.800781-38.28125 76.800781-85.332032v-25.601562c0-47.054688-34.457031-85.332032-76.800781-85.332032zm59.734374 110.933594c0 37.640625-26.796874 68.265625-59.734374 68.265625s-59.734376-30.625-59.734376-68.265625v-25.601562c0-37.640625 26.796876-68.265625 59.734376-68.265625s59.734374 30.625 59.734374 68.265625zm0 0"/><path d="m349.867188 187.734375c-23.523438 0-42.667969 22.964844-42.667969 51.199219v25.601562c0 28.230469 19.144531 51.199219 42.667969 51.199219 23.523437 0 42.667968-22.96875 42.667968-51.199219v-25.601562c0-28.234375-19.144531-51.199219-42.667968-51.199219zm25.597656 76.800781c0 18.820313-11.480469 34.132813-25.597656 34.132813-14.117188 0-25.601563-15.3125-25.601563-34.132813v-25.601562c0-18.820313 11.484375-34.132813 25.601563-34.132813 14.117187 0 25.597656 15.3125 25.597656 34.132813zm0 0"/><path d="m247.464844 264.535156h-8.53125v-102.402344c0-4.710937-3.820313-8.53125-8.535156-8.53125h-42.125c-2.53125 0-4.933594 1.125-6.550782 3.070313l-94.410156 113.289063c-1.277344 1.535156-1.980469 3.464843-1.980469 5.460937v31.777344c0 4.714843 3.820313 8.535156 8.535157 8.535156h93.867187v25.597656c0 4.714844 3.820313 8.535157 8.53125 8.535157h34.132813c4.714843 0 8.535156-3.820313 8.535156-8.535157v-25.597656h8.53125c4.714844 0 8.535156-3.820313 8.535156-8.535156v-34.132813c0-4.710937-3.820312-8.53125-8.535156-8.53125zm-8.53125 34.132813h-8.535156c-4.710938 0-8.53125 3.820312-8.53125 8.53125v25.601562h-17.066407v-25.601562c0-4.710938-3.820312-8.53125-8.535156-8.53125h-93.867187v-20.15625l89.871093-107.84375h29.597657v102.398437c0 4.714844 3.820312 8.535156 8.53125 8.535156h8.535156zm0 0"/><path d="m199.167969 197.832031c-3.378907-1.214843-7.15625-.191406-9.457031 2.5625l-56.007813 67.210938c-2.117187 2.542969-2.574219 6.082031-1.167969 9.082031 1.402344 2.996094 4.414063 4.910156 7.722656 4.914062h56.007813c4.714844 0 8.535156-3.820312 8.535156-8.535156v-67.207031c0-3.59375-2.253906-6.804687-5.632812-8.027344zm-11.433594 66.703125h-29.253906l29.253906-35.105468zm0 0"/></svg>