<?xml version="1.0" encoding="UTF-8"?>
<svg width="4565px" height="2239px" viewBox="0 0 4565 2239" version="1.1" xmlns="http://www.w3.org/2000/svg" xmlns:xlink="http://www.w3.org/1999/xlink">
    <!-- Generator: Sketch 51.2 (57519) - http://www.bohemiancoding.com/sketch -->
    <title>tipper-truck</title>
    <desc>Created with Sketch.</desc>
    <defs></defs>
    <g id="Page-1" stroke="none" stroke-width="1" fill="none" fill-rule="evenodd">
        <g id="tipper-truck" fill="#000000" fill-rule="nonzero">
            <path d="M986,1624 C868,1624 772,1720 772,1838 C772,1956 868,2052 986,2052 C1104,2052 1200,1956 1200,1838 C1200,1720 1104,1624 986,1624 Z M986,1962 C917,1962 861,1906 861,1837 C861,1768 917,1712 986,1712 C1055,1712 1111,1768 1111,1837 C1111,1906 1055,1962 986,1962 Z" id="Shape"></path>
            <path d="M2823,1624 C2705,1624 2609,1720 2609,1838 C2609,1956 2705,2052 2823,2052 C2941,2052 3037,1956 3037,1838 C3037,1720 2941,1624 2823,1624 Z M2823,1962 C2754,1962 2698,1906 2698,1837 C2698,1768 2754,1712 2823,1712 C2892,1712 2948,1768 2948,1837 C2948,1906 2892,1962 2823,1962 Z" id="Shape"></path>
            <path d="M3705,1624 C3587,1624 3491,1720 3491,1838 C3491,1956 3587,2052 3705,2052 C3823,2052 3919,1956 3919,1838 C3919,1720 3823,1624 3705,1624 Z M3705,1962 C3636,1962 3580,1906 3580,1837 C3580,1768 3636,1712 3705,1712 C3774,1712 3830,1768 3830,1837 C3830,1906 3774,1962 3705,1962 Z" id="Shape"></path>
            <path d="M1,1586 L1,1771 C1,1796 21,1816 45,1816 L275,1816 C300,1816 319,1796 319,1772 L534,1772 C556,1772 575,1756 578,1734 L609,1528 C626,1411 725,1325 844,1324 L1190,1321 C1198,1356 1218,1387 1245,1409 L1245,1535 C1175,1475 1085,1439 986,1439 C765,1439 586,1618 586,1839 C586,2060 765,2239 986,2239 C1179,2239 1340,2102 1378,1920 L1379,1950 C1379,1975 1399,1994 1423,1994 L2282,1994 C2307,1994 2326,1974 2326,1950 L2326,1920 L2431,1920 C2469,2102 2630,2239 2823,2239 C3016,2239 3177,2102 3215,1920 L3313,1920 C3351,2102 3512,2239 3705,2239 C3926,2239 4105,2060 4105,1839 C4105,1768 4086,1701 4053,1642 L4053,1594 L4186,1727 L4186,1792 C4186,1817 4206,1836 4230,1836 C4255,1836 4274,1816 4274,1792 L4274,1581 C4274,1556 4254,1537 4230,1537 C4205,1537 4186,1557 4186,1581 L4186,1601 L4053,1468 L4053,1403 C4053,1378 4033,1359 4009,1359 L1831,1359 L1831,1201 C1831,1176 1811,1157 1787,1157 L1722,1157 L1519,572 L1592,572 L1887,1271 C1894,1287 1910,1298 1928,1298 L4076,1298 C4081,1298 4086,1297 4091,1295 L4535,1139 C4547,1135 4557,1126 4561,1114 C4566,1102 4565,1089 4560,1078 C4333,576 4203,296 4172,238 C4162,220 4142,210 4140,209 C4127,202 4109,197 4085,195 L1760,195 L1686,27 C1679,11 1663,0 1645,0 L897,0 C881,0 866,9 858,23 C850,37 851,54 859,68 L955,224 C963,237 977,245 993,245 L1247,245 L1382,545 C1389,561 1405,571 1423,571 L1627,1156 L1452,1156 C1424,1133 1388,1119 1349,1119 C1319,1119 1291,1127 1268,1141 L1268,428 C1268,347 1202,282 1122,282 L503,282 C428,282 360,326 329,394 L108,886 C105,892 104,898 104,904 L104,1460 C104,1465 105,1471 107,1476 L132,1541 L44,1541 C19,1541 0,1561 0,1585 L1,1586 Z M1349,1208 C1390,1208 1423,1241 1423,1282 C1423,1323 1390,1356 1349,1356 C1308,1356 1275,1323 1275,1282 C1275,1241 1308,1208 1349,1208 Z M90,1726 L90,1630 L231,1630 L231,1726 L90,1726 Z M1179,1230 L844,1233 C681,1234 546,1352 522,1513 L497,1682 L321,1682 L321,1586 C321,1561 301,1542 277,1542 L230,1542 L195,1452 L195,914 L412,431 C428,395 465,371 504,371 L1123,371 C1155,371 1180,397 1180,428 L1180,1230 L1179,1230 Z M986,2148 C814,2148 675,2008 675,1837 C675,1665 815,1526 986,1526 C1158,1526 1297,1666 1297,1837 C1297,2009 1157,2148 986,2148 Z M1682,1904 L1682,1571 L2023,1571 L2023,1904 L1682,1904 Z M1467,1904 L1467,1571 L1593,1571 L1593,1904 L1467,1904 Z M2111,1904 L2111,1571 L2237,1571 L2237,1904 L2111,1904 Z M2281,1482 L1422,1482 C1397,1482 1378,1502 1378,1526 L1378,1761 C1370,1718 1354,1678 1334,1641 L1334,1447 L2737,1447 C2560,1486 2427,1642 2424,1830 L2327,1830 L2327,1526 C2327,1501 2307,1482 2283,1482 L2281,1482 Z M2908,1447 L3617,1447 C3440,1486 3307,1642 3303,1830 L3221,1830 C3218,1642 3084,1486 2908,1447 Z M2822,2149 C2650,2149 2511,2009 2511,1838 C2511,1666 2651,1527 2822,1527 C2994,1527 3133,1667 3133,1838 C3133,2010 2993,2149 2822,2149 Z M3704,2149 C3532,2149 3393,2009 3393,1838 C3393,1666 3533,1527 3704,1527 C3876,1527 4015,1667 4015,1838 C4015,2010 3875,2149 3704,2149 Z M3963,1534 C3914,1492 3855,1462 3790,1448 L3963,1448 L3963,1534 Z M1741,1359 L1492,1359 C1504,1336 1511,1310 1511,1283 C1511,1270 1509,1258 1507,1246 L1741,1246 L1741,1359 Z M1451,483 L1344,246 L1452,246 L1552,483 L1451,483 Z M1523,184 C1516,167 1500,157 1482,157 L1018,157 L977,90 L1616,90 L2102,1209 L1956,1209 L1523,184 Z M4291,1130 L4298,749 L4457,1072 L4291,1130 Z M1890,487 L4182,487 L4224,577 L1932,577 L1890,487 Z M1958,638 L2083,638 L2105,971 L1959,638 L1958,638 Z M2182,638 L2335,638 L2335,1208 L2182,1208 L2182,638 Z M2460,638 L2613,638 L2613,1208 L2460,1208 L2460,638 Z M2724,638 L2877,638 L2877,1208 L2724,1208 L2724,638 Z M3002,638 L3155,638 L3155,1208 L3002,1208 L3002,638 Z M3266,638 L3419,638 L3419,1208 L3266,1208 L3266,638 Z M3544,638 L3697,638 L3697,1208 L3544,1208 L3544,638 Z M3808,638 L3961,638 L3961,1208 L3808,1208 L3808,638 Z M4044,638 L4197,638 L4197,1153 L4044,1209 L4044,639 L4044,638 Z M3975,266 L4086,266 L4155,405 L4044,405 L3975,266 Z M3753,266 L3864,266 L3933,405 L3822,405 L3753,266 Z M3545,266 L3656,266 L3725,405 L3614,405 L3545,266 Z M3323,266 L3434,266 L3503,405 L3392,405 L3323,266 Z M3115,266 L3226,266 L3295,405 L3184,405 L3115,266 Z M2893,266 L3004,266 L3073,405 L2962,405 L2893,266 Z M2671,266 L2782,266 L2851,405 L2740,405 L2671,266 Z M2463,266 L2574,266 L2643,405 L2532,405 L2463,266 Z M2241,266 L2352,266 L2421,405 L2310,405 L2241,266 Z M2033,266 L2144,266 L2213,405 L2102,405 L2033,266 Z M1811,266 L1922,266 L1991,405 L1880,405 L1811,266 Z" id="Shape"></path>
            <path d="M994,897 L994,512 C994,487 974,468 950,468 L483,468 C465,468 449,479 442,495 L279,880 C273,894 275,909 283,922 C291,934 305,942 320,942 L950,942 C975,942 994,922 994,898 L994,897 Z M512,556 L549,556 L549,852 L386,852 L511,556 L512,556 Z M638,852 L638,556 L905,556 L905,852 L638,852 Z" id="Shape"></path>
            <path d="M920,1031 L735,1031 C710,1031 691,1051 691,1075 C691,1100 711,1119 735,1119 L920,1119 C945,1119 964,1099 964,1075 C964,1050 944,1031 920,1031 Z" id="Shape"></path>
        </g>
    </g>
</svg>