<?xml version="1.0" encoding="UTF-8"?>
<svg width="329px" height="163px" viewBox="0 0 329 163" version="1.1" xmlns="http://www.w3.org/2000/svg" xmlns:xlink="http://www.w3.org/1999/xlink">
    <!-- Generator: Sketch 51.2 (57519) - http://www.bohemiancoding.com/sketch -->
    <title>tipper-truck</title>
    <desc>Created with Sketch.</desc>
    <defs>
        <path d="M15.934,0.824 C24.41,0.824 31.309,7.723 31.309,16.199 C31.309,24.68 24.41,31.574 15.934,31.574 C7.457,31.574 0.559,24.68 0.559,16.199 C0.559,7.723 7.457,0.824 15.934,0.824 Z M15.934,25.176 C20.883,25.176 24.91,21.148 24.91,16.199 C24.91,11.25 20.883,7.223 15.934,7.223 C10.984,7.223 6.957,11.25 6.957,16.199 C6.957,21.148 10.984,25.176 15.934,25.176 Z" id="path-1"></path>
        <path d="M16.199,0.824 C24.68,0.824 31.578,7.723 31.578,16.199 C31.578,24.68 24.68,31.574 16.199,31.574 C7.723,31.574 0.824,24.68 0.824,16.199 C0.824,7.723 7.723,0.824 16.199,0.824 Z M16.199,25.176 C21.152,25.176 25.176,21.148 25.176,16.199 C25.176,11.25 21.152,7.223 16.199,7.223 C11.25,7.223 7.223,11.25 7.223,16.199 C7.223,21.148 11.25,25.176 16.199,25.176 Z" id="path-3"></path>
        <path d="M15.668,0.824 C24.145,0.824 31.043,7.723 31.043,16.199 C31.043,24.68 24.145,31.574 15.668,31.574 C7.188,31.574 0.289,24.68 0.289,16.199 C0.289,7.723 7.188,0.824 15.668,0.824 Z M15.668,25.176 C20.617,25.176 24.645,21.148 24.645,16.199 C24.645,11.25 20.617,7.223 15.668,7.223 C10.715,7.223 6.691,11.25 6.691,16.199 C6.691,21.148 10.715,25.176 15.668,25.176 Z" id="path-5"></path>
        <path d="M0,115.066 C0,113.301 1.434,111.867 3.199,111.867 L9.516,111.867 L7.688,107.16 C7.543,106.793 7.469,106.398 7.469,106.004 L7.469,66.004 C7.469,65.551 7.566,65.105 7.75,64.691 L23.633,29.289 C25.84,24.379 30.742,21.203 36.125,21.203 L80.66,21.203 C86.473,21.203 91.199,25.93 91.199,31.738 L91.199,83.055 C92.926,82.051 94.93,81.465 97.066,81.465 C99.887,81.465 102.477,82.469 104.5,84.129 L117.082,84.129 L102.398,42.004 C101.141,42.004 99.996,41.266 99.48,40.117 L89.746,18.535 L71.469,18.535 C70.359,18.535 69.328,17.961 68.746,17.02 L61.812,5.82 C61.203,4.832 61.172,3.59 61.738,2.578 C62.305,1.563 63.371,0.934 64.535,0.934 L118.398,0.934 C119.672,0.934 120.82,1.688 121.332,2.848 L126.626,14.918 L294.06,14.92 C295.765,15.084 297.079,15.417 298,15.92 C298.151,16.003 299.579,16.697 300.283,18.003 C302.52,22.157 311.827,42.305 328.203,78.449 C328.609,79.27 328.645,80.227 328.297,81.074 C327.949,81.926 327.258,82.586 326.391,82.887 L294.391,94.086 C294.051,94.207 293.695,94.266 293.332,94.266 L138.668,94.266 C137.379,94.266 136.219,93.5 135.719,92.313 L114.461,42.004 L109.219,42.004 L123.855,84.133 L128.535,84.133 C130.301,84.133 131.734,85.563 131.734,87.332 L131.734,98.684 L288.535,98.684 C290.301,98.684 291.734,100.117 291.734,101.883 L291.734,106.543 L301.332,116.141 L301.332,114.668 C301.332,112.898 302.766,111.465 304.535,111.465 C306.301,111.465 307.734,112.898 307.734,114.668 L307.734,129.867 C307.734,131.633 306.301,133.066 304.535,133.066 C302.766,133.066 301.332,131.633 301.332,129.867 L301.332,125.191 L291.734,115.59 L291.734,119.043 C294.105,123.23 295.469,128.059 295.469,133.199 C295.469,149.082 282.547,162 266.668,162 C252.797,162 241.188,152.145 238.469,139.066 L231.398,139.066 C228.68,152.145 217.07,162 203.199,162 C189.328,162 177.719,152.145 175.004,139.066 L167.469,139.066 L167.469,141.199 C167.469,142.969 166.035,144.398 164.266,144.398 L102.398,144.398 C100.633,144.398 99.199,142.969 99.199,141.199 L99.133,139.066 C96.414,152.145 84.805,162 70.934,162 C55.055,162 42.133,149.082 42.133,133.199 C42.133,117.32 55.055,104.398 70.934,104.398 C78.051,104.398 84.566,107 89.598,111.293 L89.598,102.242 C87.656,100.637 86.254,98.414 85.656,95.887 L60.719,96.09 C52.164,96.164 45.043,102.355 43.789,110.809 L41.562,125.676 C41.328,127.242 39.98,128.402 38.398,128.402 L22.934,128.402 C22.934,130.168 21.5,131.602 19.734,131.602 L3.199,131.602 C1.434,131.602 0,130.168 0,128.398 L0,115.066 Z M97.066,87.867 C94.125,87.867 91.734,90.258 91.734,93.199 C91.734,96.141 94.125,98.535 97.066,98.535 C100.008,98.535 102.398,96.141 102.398,93.199 C102.398,90.258 100.008,87.867 97.066,87.867 Z M6.398,125.199 L16.535,125.199 L16.535,118.266 L6.398,118.266 L6.398,125.199 Z M84.797,89.492 L84.797,31.738 C84.797,29.457 82.941,27.602 80.66,27.602 L36.125,27.602 C33.258,27.602 30.648,29.293 29.473,31.91 L13.871,66.688 L13.871,105.402 L16.379,111.867 L19.734,111.867 C21.5,111.867 22.934,113.301 22.934,115.066 L22.934,122.004 L35.641,122.004 L37.457,109.867 C39.18,98.277 48.938,89.793 60.664,89.691 L84.797,89.492 Z M70.934,155.602 C83.285,155.602 93.332,145.551 93.332,133.199 C93.332,120.848 83.285,110.801 70.934,110.801 C58.582,110.801 48.535,120.848 48.535,133.199 C48.535,145.551 58.582,155.602 70.934,155.602 Z M121.066,138 L145.602,138 L145.602,114 L121.066,114 L121.066,138 Z M105.602,138 L114.668,138 L114.668,114 L105.602,114 L105.602,138 Z M152,138 L161.066,138 L161.066,114 L152,114 L152,138 Z M164.266,107.602 C166.035,107.602 167.469,109.031 167.465,110.801 L167.465,132.668 L174.414,132.668 C174.66,119.156 184.25,107.895 196.984,105.082 L95.996,105.082 L95.996,119.039 C97.504,121.695 98.598,124.605 99.199,127.695 L99.199,110.801 C99.199,109.031 100.633,107.602 102.398,107.602 L164.266,107.602 Z M209.414,105.082 C222.148,107.895 231.738,119.156 231.984,132.668 L237.879,132.668 C238.129,119.156 247.719,107.895 260.453,105.082 L209.414,105.082 Z M203.199,155.602 C215.551,155.602 225.602,145.551 225.602,133.199 C225.602,120.848 215.551,110.801 203.199,110.801 C190.848,110.801 180.801,120.848 180.801,133.199 C180.801,145.551 190.848,155.602 203.199,155.602 Z M266.668,155.602 C279.02,155.602 289.066,145.551 289.066,133.199 C289.066,120.848 279.02,110.801 266.668,110.801 C254.316,110.801 244.266,120.848 244.266,133.199 C244.266,145.551 254.316,155.602 266.668,155.602 Z M285.332,111.293 L285.332,105.082 L272.883,105.082 C277.559,106.117 281.809,108.289 285.332,111.293 Z M125.332,98.684 L125.332,90.531 L108.48,90.531 C108.684,91.391 108.801,92.281 108.801,93.199 C108.801,95.18 108.301,97.047 107.434,98.684 L125.332,98.684 Z M104.465,35.602 L111.758,35.602 L104.543,18.535 L96.77,18.535 L104.465,35.602 Z M109.613,14.09 L140.789,87.867 L151.309,87.867 L116.309,7.332 L70.277,7.332 L73.25,12.133 L106.668,12.133 C107.953,12.133 109.113,12.902 109.613,14.09 Z M308.895,82.23 L320.863,78.039 L309.422,54.801 L308.895,82.23 Z M136,35.934 L139,42.434 L304,42.434 L301,35.934 L136,35.934 Z M140.895,46.8 L151.422,70.801 L149.863,46.8 L140.895,46.8 Z M157,87.87 L168,87.87 L168,46.8 L157,46.8 L157,87.87 Z M177,87.87 L188,87.87 L188,46.8 L177,46.8 L177,87.87 Z M196,87.87 L207,87.87 L207,46.8 L196,46.8 L196,87.87 Z M216,87.87 L227,87.87 L227,46.8 L216,46.8 L216,87.87 Z M235,87.87 L246,87.87 L246,46.8 L235,46.8 L235,87.87 Z M255,87.87 L266,87.87 L266,46.8 L255,46.8 L255,87.87 Z M274,87.87 L285,87.87 L285,46.8 L274,46.8 L274,87.87 Z M291,46.8 L291,87.87 L302,83.87 L302,46.8 L291,46.8 Z M286,20 L291,30 L299,30 L294,20 L286,20 Z M270,20 L275,30 L283,30 L278,20 L270,20 Z M255,20 L260,30 L268,30 L263,20 L255,20 Z M239,20 L244,30 L252,30 L247,20 L239,20 Z M224,20 L229,30 L237,30 L232,20 L224,20 Z M208,20 L213,30 L221,30 L216,20 L208,20 Z M192,20 L197,30 L205,30 L200,20 L192,20 Z M177,20 L182,30 L190,30 L185,20 L177,20 Z M161,20 L166,30 L174,30 L169,20 L161,20 Z M146,20 L151,30 L159,30 L154,20 L146,20 Z M130,20 L135,30 L143,30 L138,20 L130,20 Z" id="path-7"></path>
        <path d="M52.469,31.465 C52.469,33.234 51.035,34.668 49.27,34.668 L3.938,34.668 C2.863,34.668 1.863,34.129 1.27,33.234 C0.676,32.34 0.57,31.207 0.988,30.219 L12.723,2.488 C13.223,1.305 14.387,0.535 15.668,0.535 L49.27,0.535 C51.035,0.535 52.469,1.965 52.469,3.734 L52.469,31.465 Z M17.789,6.934 L8.766,28.266 L20.469,28.266 L20.469,6.934 L17.789,6.934 Z M26.871,28.266 L46.07,28.266 L46.07,6.934 L26.871,6.934 L26.871,28.266 Z" id="path-9"></path>
        <path d="M17.133,0.066 C18.902,0.066 20.332,1.5 20.332,3.266 C20.332,5.035 18.902,6.465 17.133,6.465 L3.801,6.465 C2.031,6.465 0.602,5.035 0.602,3.266 C0.602,1.5 2.031,0.066 3.801,0.066 L17.133,0.066 Z" id="path-11"></path>
    </defs>
    <g id="tipper-truck" stroke="none" stroke-width="1" fill="none" fill-rule="evenodd">
        <g id="Group-3" transform="translate(55.000000, 117.000000)">
            <mask id="mask-2" fill="white">
                <use xlink:href="#path-1"></use>
            </mask>
            <g id="Clip-2"></g>
            <polygon id="Fill-1" fill="#000000" mask="url(#mask-2)" points="0.44 31.66 31.4 31.66 31.4 0.82 0.44 0.82"></polygon>
        </g>
        <g id="Group-6" transform="translate(187.000000, 117.000000)">
            <mask id="mask-4" fill="white">
                <use xlink:href="#path-3"></use>
            </mask>
            <g id="Clip-5"></g>
            <polygon id="Fill-4" fill="#000000" mask="url(#mask-4)" points="0.8 31.66 31.64 31.66 31.64 0.82 0.8 0.82"></polygon>
        </g>
        <g id="Group-9" transform="translate(251.000000, 117.000000)">
            <mask id="mask-6" fill="white">
                <use xlink:href="#path-5"></use>
            </mask>
            <g id="Clip-8"></g>
            <polygon id="Fill-7" fill="#000000" mask="url(#mask-6)" points="0.28 31.66 31.12 31.66 31.12 0.82 0.28 0.82"></polygon>
        </g>
        <g id="Group-12">
            <mask id="mask-8" fill="white">
                <use xlink:href="#path-7"></use>
            </mask>
            <g id="Clip-11"></g>
            <polygon id="Fill-10" fill="#000000" mask="url(#mask-8)" points="0 162.1 328.56 162.1 328.56 0.82 0 0.82"></polygon>
        </g>
        <g id="Group-15" transform="translate(19.000000, 34.000000)">
            <mask id="mask-10" fill="white">
                <use xlink:href="#path-9"></use>
            </mask>
            <g id="Clip-14"></g>
            <polygon id="Fill-13" fill="#000000" mask="url(#mask-10)" points="0.68 34.74 52.52 34.74 52.52 0.42 0.68 0.42"></polygon>
        </g>
        <g id="Group-18" transform="translate(49.000000, 75.000000)">
            <mask id="mask-12" fill="white">
                <use xlink:href="#path-11"></use>
            </mask>
            <g id="Clip-17"></g>
            <polygon id="Fill-16" fill="#000000" mask="url(#mask-12)" points="0.56 6.58 20.36 6.58 20.36 -0.02 0.56 -0.02"></polygon>
        </g>
    </g>
</svg>