<?xml version="1.0" encoding="UTF-8"?>
<svg width="462px" height="512px" viewBox="0 0 462 512" version="1.1" xmlns="http://www.w3.org/2000/svg" xmlns:xlink="http://www.w3.org/1999/xlink">
    <!-- Generator: Sketch 51.2 (57519) - http://www.bohemiancoding.com/sketch -->
    <title>traffic-cone</title>
    <desc>Created with Sketch.</desc>
    <defs></defs>
    <g id="traffic-cone" stroke="none" stroke-width="1" fill="none" fill-rule="evenodd">
        <path d="M414.945,428.602 L302.469,20.906 C299.07,8.598 287.781,0 275.012,0 L186.988,0 C174.219,0 162.93,8.598 159.531,20.91 L47.055,428.602 C20.469,432.539 0,455.504 0,483.168 L0,502 C0,507.523 4.477,512 10,512 L185.996,512 C191.52,512 195.996,507.523 195.996,502 C195.996,496.477 191.52,492 185.996,492 L20,492 L20,483.168 C20,463.777 35.773,448 55.168,448 L406.832,448 C426.227,448 442,463.777 442,483.168 L442,492 L275.996,492 C270.477,492 265.996,496.477 265.996,502 C265.996,507.523 270.477,512 275.996,512 L452,512 C457.523,512 462,507.523 462,502 L462,483.168 C462,455.504 441.531,432.539 414.945,428.602 Z M91.969,341 L370.031,341 L394.035,428 L67.965,428 L91.969,341 Z M121.488,234 L340.512,234 L364.512,321 L97.484,321 L121.488,234 Z M151.008,127 L310.992,127 L334.992,214 L127.008,214 L151.008,127 Z M178.812,26.23 C179.824,22.562 183.188,20 186.992,20 L275.012,20 C278.816,20 282.18,22.562 283.191,26.227 L305.473,107 L156.527,107 L178.812,26.23 Z" id="Fill-1" fill="#000000"></path>
        <path d="M231,492 C228.371,492 225.789,493.07 223.93,494.93 C222.07,496.789 221,499.371 221,502 C221,504.629 222.07,507.211 223.93,509.07 C225.789,510.93 228.371,512 231,512 C233.629,512 236.211,510.93 238.07,509.07 C239.93,507.211 241,504.629 241,502 C241,499.371 239.93,496.789 238.07,494.93 C236.211,493.07 233.629,492 231,492 Z" id="Fill-3" fill="#000000"></path>
    </g>
</svg>