<?xml version="1.0" encoding="UTF-8"?>
<svg width="90px" height="90px" viewBox="0 0 90 90" version="1.1" xmlns="http://www.w3.org/2000/svg" xmlns:xlink="http://www.w3.org/1999/xlink">
    <!-- Generator: Sketch 51.2 (57519) - http://www.bohemiancoding.com/sketch -->
    <title>trees</title>
    <desc>Created with Sketch.</desc>
    <defs></defs>
    <g id="trees" stroke="none" stroke-width="1" fill="none" fill-rule="evenodd">
        <path d="M85.875,81.602 C84.676,79.574 82.426,78.449 80.102,78.523 C78.227,76.5 75.148,75.977 72.75,77.324 C70.875,76.727 68.773,77.102 67.125,78.227 L66.602,61.648 L75.977,52.5 C81.301,53.551 86.477,50.102 87.523,44.773 C87.676,44.176 87.75,43.051 87.676,42.301 C90.449,38.773 89.852,33.676 86.324,30.898 C85.199,30 83.926,29.477 82.574,29.25 C82.273,27.375 81.449,25.648 80.023,24.301 C80.023,24.074 80.023,23.773 80.023,23.551 C80.023,16.426 74.25,10.727 67.125,10.648 C64.801,6.375 60.375,3.75 55.574,3.75 C54.074,3.75 52.574,3.977 51.227,4.5 C46.801,-0.449 39.227,-0.898 34.273,3.523 C33.676,4.051 33.148,4.648 32.625,5.324 C32.25,5.25 31.875,5.25 31.574,5.25 C26.324,5.25 21.898,9.148 21.227,14.398 C16.949,14.926 13.5,18.227 12.75,22.5 C9.824,23.625 7.801,26.176 7.352,29.25 C3,30 -1.77635684e-15,34.125 0.676,38.551 C0.898,39.898 1.426,41.25 2.324,42.301 C2.102,45.898 4.051,49.273 6.676,51.074 C8.25,52.125 11.398,53.176 14.023,52.5 L23.477,61.648 L22.875,79.273 C21.824,78.676 20.625,78.449 19.5,78.449 C17.926,76.051 14.477,75.602 12.148,77.25 C8.773,76.199 5.176,78.148 4.125,81.602 C1.949,83.023 0.602,85.5 0.602,88.125 C0.602,88.875 1.199,89.398 1.949,89.477 L88.199,89.477 C88.949,89.477 89.551,88.875 89.551,88.125 C89.398,85.5 88.051,83.023 85.875,81.602 Z M64.273,60.227 C63.977,60.449 63.898,60.824 63.898,61.199 L64.574,81.676 C63.676,82.273 62.852,83.102 62.25,84.074 L62.852,66.148 C62.852,65.773 62.699,65.477 62.477,65.176 L53.477,56.102 L54.148,55.426 L60.75,62.102 C61.273,62.625 62.102,62.625 62.625,62.102 C62.852,61.875 63,61.574 63,61.199 L63.375,48.75 L63.523,48.75 L63.75,56.25 C63.75,57 64.352,57.523 65.102,57.523 C65.398,57.523 65.773,57.375 66,57.148 L72.449,50.926 C72.75,51.074 72.977,51.301 73.273,51.449 L64.273,60.227 Z M48.676,61.051 L51.676,58.051 L60.227,66.676 L59.551,86.852 L49.574,86.852 L48.676,61.051 Z M60.676,51.227 L60.449,58.051 L56.102,53.625 C57.824,53.324 59.398,52.5 60.676,51.227 Z M66.148,48.75 C67.273,48.602 68.324,48.227 69.301,47.699 C69.602,48.227 69.977,48.75 70.426,49.273 L66.301,53.25 L66.148,48.75 Z M80.023,30.523 C80.023,31.273 80.625,31.875 81.375,31.875 C84.375,31.875 86.852,34.352 86.852,37.352 C86.852,38.699 86.324,40.051 85.426,41.023 C85.199,41.324 85.051,41.699 85.125,42.074 C85.125,42.375 85.199,42.602 85.199,42.898 C85.199,46.875 81.977,50.102 78,50.102 C76.273,50.102 74.551,49.5 73.273,48.301 C72.375,47.477 71.625,46.5 71.25,45.301 C70.949,44.398 69.977,44.102 69.227,44.699 C67.648,45.898 65.25,46.648 63.523,46.125 L64.574,45.074 C64.801,45.074 65.477,45.074 65.773,45 C70.727,44.477 74.324,39.977 73.727,35.023 C73.727,34.949 73.727,34.801 73.648,34.727 C76.352,33.148 78.375,30.676 79.426,27.75 C79.801,28.648 80.023,29.551 80.023,30.523 Z M22.574,17.023 C23.324,17.023 23.852,16.426 23.926,15.676 C23.926,11.398 27.375,7.949 31.648,7.875 C32.176,7.875 32.625,7.949 33.148,8.023 C33.676,8.102 34.199,7.875 34.5,7.426 C37.273,3.074 43.051,1.801 47.477,4.574 C48.449,5.176 49.273,5.926 49.949,6.824 C50.324,7.273 51,7.5 51.523,7.199 C56.773,4.875 63,7.199 65.324,12.523 C65.551,13.051 66.074,13.352 66.602,13.273 L67.273,13.273 C72.898,13.273 77.551,17.852 77.551,23.477 C77.551,27.449 75.227,31.051 71.625,32.773 C71.023,33.074 70.727,33.676 70.949,34.273 C71.852,37.648 69.898,41.176 66.449,42.074 C64.801,42.523 63.074,42.301 61.648,41.477 C61.273,41.25 60.898,41.25 60.523,41.398 C55.5,43.273 50.023,40.727 48.301,35.926 C48.074,35.25 47.324,34.949 46.648,35.176 C43.648,36.227 40.352,35.625 37.875,33.676 C37.273,33.227 36.227,33.227 35.852,34.273 C34.051,39.148 28.727,41.699 23.852,39.977 C19.727,38.477 17.102,34.352 17.699,30 C17.773,29.625 17.625,29.25 17.398,28.949 C14.699,26.023 14.926,21.449 17.852,18.75 C18.977,17.699 20.773,17.023 22.574,17.023 Z M54.898,44.625 L48.449,51.148 L48.148,40.949 C49.875,42.898 52.273,44.176 54.898,44.625 Z M41.926,38.324 L41.699,45.074 L35.699,39.301 C36.375,38.551 36.977,37.727 37.426,36.824 C38.852,37.648 40.352,38.176 41.926,38.324 Z M4.875,42.898 C4.875,42.602 4.875,42.375 4.949,42.074 C5.023,41.699 4.875,41.324 4.648,41.023 C2.625,38.773 2.773,35.324 5.023,33.301 C6,32.398 7.352,31.875 8.699,31.875 C9.449,31.875 10.051,31.273 10.051,30.523 C10.051,28.5 11.102,26.625 12.824,25.5 C13.051,27.301 13.801,29.023 14.926,30.449 L14.926,31.273 C14.926,37.875 20.324,43.273 26.926,43.273 C27.75,43.273 28.574,43.199 29.398,42.977 L37.801,51.074 C33.602,52.051 30.449,49.426 29.398,46.574 C29.176,45.898 28.426,45.602 27.75,45.824 C25.426,46.574 22.949,46.199 21,44.699 C20.398,44.25 19.574,44.324 19.125,44.926 C19.051,45 18.977,45.148 18.898,45.301 C17.551,49.051 13.426,51 9.676,49.648 C6.824,48.602 4.875,45.898 4.875,42.898 Z M29.773,66.676 L41.477,54.824 L40.426,86.852 L30.449,86.852 L29.773,66.676 Z M33.824,53.699 L29.477,58.125 L29.25,51.301 C30.602,52.426 32.176,53.324 33.824,53.699 Z M23.852,48.75 L23.699,53.25 L19.574,49.199 C20.023,48.75 20.324,48.227 20.699,47.625 C21.676,48.227 22.727,48.602 23.852,48.75 Z M16.727,51.523 C17.023,51.375 17.324,51.227 17.551,51 L24,57.227 C24.523,57.75 25.352,57.75 25.875,57.227 C26.102,57 26.25,56.699 26.25,56.324 L26.477,48.824 L26.625,48.824 L27,61.199 C27,61.949 27.602,62.477 28.352,62.477 C28.648,62.477 29.023,62.324 29.25,62.102 L37.426,53.852 C38.023,53.773 38.551,53.625 39.074,53.477 L27.523,65.25 C27.301,65.477 27.148,65.852 27.148,66.227 L27.75,84.148 C27.148,83.176 26.398,82.352 25.426,81.75 L26.102,61.199 C26.102,60.824 25.949,60.449 25.727,60.227 L16.727,51.523 Z M23.926,86.852 L3.375,86.852 C3.75,85.5 4.648,84.375 5.852,83.699 C6.227,83.551 6.449,83.176 6.523,82.801 C6.977,80.477 9.523,79.125 11.773,80.023 C12.227,80.176 12.676,80.176 13.051,79.875 C14.773,78.602 16.801,79.125 17.852,80.699 C18.148,81.148 18.676,81.301 19.125,81.227 C20.773,80.926 22.352,81.75 23.176,83.176 C23.324,83.398 23.477,83.551 23.699,83.699 C24.898,84.375 25.801,85.5 26.102,86.852 L23.926,86.852 Z M43.051,86.852 L44.102,54.301 C44.102,53.926 43.949,53.551 43.727,53.324 L32.102,42 C32.699,41.699 33.227,41.398 33.75,41.023 L42,49.051 C42.523,49.574 43.352,49.574 43.875,49.051 C44.102,48.824 44.25,48.523 44.25,48.148 L44.551,38.398 C44.852,38.398 45.074,38.324 45.375,38.324 L45.824,54.375 C45.824,55.125 46.426,55.648 47.176,55.648 C47.477,55.648 47.852,55.5 48.074,55.273 L58.426,44.773 C59.176,44.699 60,44.477 60.676,44.25 C60.898,44.324 61.051,44.398 61.273,44.477 L53.25,52.648 L46.426,59.551 C46.199,59.773 46.051,60.148 46.051,60.523 L46.949,86.773 L43.051,86.773 L43.051,86.852 Z M63.898,86.852 C64.273,85.5 65.176,84.375 66.375,83.699 C66.75,83.551 66.977,83.176 67.051,82.801 C67.5,80.551 69.676,78.977 72.301,80.023 C72.75,80.176 73.199,80.176 73.574,79.875 C75,78.824 77.324,79.199 78.375,80.699 C78.676,81.148 79.199,81.301 79.648,81.227 C81.301,80.926 82.875,81.75 83.699,83.176 C83.852,83.398 84,83.551 84.227,83.699 C85.426,84.375 86.324,85.5 86.625,86.852 L63.898,86.852 Z" id="Fill-1" fill="#000000"></path>
        <path d="M70.199,31.352 C70.426,31.352 70.574,31.273 70.727,31.199 C74.551,29.398 76.426,25.051 75.148,21 C74.926,20.324 74.176,19.949 73.5,20.176 C72.824,20.398 72.449,21.148 72.676,21.824 C73.574,24.602 72.301,27.602 69.602,28.801 C68.926,29.102 68.625,29.926 69,30.523 C69.227,31.051 69.676,31.352 70.199,31.352 Z" id="Fill-3" fill="#000000"></path>
    </g>
</svg>