<?xml version="1.0" encoding="UTF-8"?>
<svg width="461px" height="513px" viewBox="0 0 461 513" version="1.1" xmlns="http://www.w3.org/2000/svg" xmlns:xlink="http://www.w3.org/1999/xlink">
    <!-- Generator: Sketch 51.2 (57519) - http://www.bohemiancoding.com/sketch -->
    <title>tree</title>
    <desc>Created with Sketch.</desc>
    <defs></defs>
    <g id="tree" stroke="none" stroke-width="1" fill="none" fill-rule="evenodd">
        <path d="M411.125,161.109 C415.109,151.331 417.123,140.991 417.123,130.274 C417.123,128.101 417.037,125.905 416.867,123.75 C416.551,119.738 413.04,116.745 409.031,117.058 C405.02,117.374 402.023,120.882 402.339,124.894 C402.478,126.671 402.55,128.481 402.55,130.274 C402.55,141.178 400.016,151.606 395.018,161.268 C394.084,163.071 393.947,165.182 394.637,167.092 C395.327,169.002 396.783,170.537 398.653,171.327 C427.107,183.354 445.493,211.084 445.493,241.972 C445.493,283.036 413.36,316.652 372.339,318.502 C369.186,318.644 366.483,320.8 365.644,323.842 C360.214,343.511 338.398,357.787 313.772,357.787 C302.038,357.787 290.846,354.664 281.627,348.898 L305.701,310.908 C307.388,308.246 308.254,305.295 308.344,302.355 C308.493,297.455 306.485,292.587 302.523,289.14 C295.82,283.308 285.68,283.693 279.437,290.013 L261.372,308.302 L267.262,264.672 C267.884,260.059 266.553,255.346 263.61,251.741 C261.035,248.586 257.382,246.472 253.398,245.782 C252.829,245.684 252.253,245.614 251.673,245.575 L245.165,245.135 C241.927,244.915 238.83,245.62 236.146,247.035 C231.672,249.393 228.341,253.727 227.404,259.049 L216.008,323.798 L180.826,280.531 C179.659,279.096 178.283,277.893 176.77,276.94 C176.761,276.934 176.752,276.927 176.743,276.921 C176.58,276.819 176.409,276.731 176.243,276.634 C174.078,275.377 171.664,274.602 169.181,274.382 C169.102,274.375 169.021,274.376 168.942,274.37 C168.576,274.343 168.21,274.32 167.842,274.316 C165.6,274.294 163.336,274.717 161.192,275.619 L154.393,278.477 C149.878,280.374 146.415,284.132 144.891,288.786 C143.367,293.441 143.938,298.519 146.458,302.72 L175.256,350.72 C166.666,355.308 156.609,357.788 146.298,357.788 C121.671,357.788 99.856,343.512 94.426,323.844 C93.586,320.801 90.883,318.646 87.731,318.504 C46.71,316.654 14.577,283.038 14.577,241.973 C14.577,211.084 32.963,183.354 61.417,171.328 C63.287,170.538 64.743,169.003 65.433,167.093 C66.123,165.183 65.985,163.072 65.052,161.269 C60.054,151.607 57.52,141.179 57.52,130.275 C57.52,93.01 87.838,62.692 125.103,62.692 C135.49,62.692 145.462,64.992 154.74,69.528 C156.683,70.479 158.949,70.516 160.924,69.63 C162.897,68.744 164.376,67.027 164.958,64.943 C173.076,35.876 199.838,15.575 230.037,15.575 C260.236,15.575 286.998,35.876 295.116,64.943 C295.699,67.027 297.177,68.745 299.15,69.63 C301.124,70.517 303.391,70.48 305.334,69.528 C314.612,64.992 324.584,62.692 334.971,62.692 C359.882,62.692 382.701,76.331 394.522,98.288 C396.429,101.831 400.849,103.157 404.392,101.249 C407.936,99.342 409.261,94.922 407.353,91.379 C392.986,64.695 365.251,48.119 334.971,48.119 C325.132,48.119 315.598,49.818 306.527,53.18 C294.325,22.083 263.964,1 230.033,1 C196.102,1 165.741,22.083 153.543,53.179 C144.472,49.817 134.938,48.118 125.099,48.118 C79.797,48.118 42.942,84.973 42.942,130.274 C42.942,140.991 44.956,151.332 48.94,161.109 C18.978,176.762 0,207.736 0,241.972 C0,289.151 35.631,328.069 82.019,332.695 C91.139,356.29 116.769,372.36 146.294,372.36 C159.238,372.36 171.914,369.146 182.751,363.218 L186.362,369.236 C191.288,377.448 193.327,387.174 192.102,396.625 C191.042,404.796 189.737,414.418 188.082,423.836 C187.386,427.8 190.035,431.577 193.998,432.273 C197.967,432.97 201.739,430.32 202.435,426.357 C204.14,416.654 205.474,406.83 206.554,398.497 C208.199,385.806 205.467,372.751 198.859,361.738 L158.952,295.221 C158.48,294.435 158.615,293.691 158.738,293.317 C158.86,292.943 159.192,292.264 160.036,291.909 L166.836,289.051 C167.772,288.657 168.876,288.933 169.517,289.722 L208.352,337.482 C208.455,337.608 208.564,337.726 208.671,337.847 C210.114,339.487 211.909,340.666 213.882,341.313 C215.978,342.001 218.268,342.091 220.533,341.518 C220.558,341.512 220.583,341.508 220.609,341.501 C220.609,341.501 220.609,341.501 220.61,341.501 L220.611,341.501 C222.812,340.929 224.726,339.787 226.215,338.242 C226.273,338.181 226.336,338.124 226.393,338.063 C226.445,338.006 226.493,337.945 226.544,337.887 C227.972,336.276 228.962,334.272 229.357,332.025 L241.756,261.576 C241.961,260.412 243.03,259.599 244.182,259.675 L250.691,260.115 C251.558,260.174 252.085,260.668 252.321,260.958 C252.557,261.247 252.936,261.861 252.819,262.724 L245.872,314.193 C245.786,314.83 245.752,315.464 245.768,316.091 C245.876,320.48 248.4,324.513 252.435,326.495 C252.723,326.637 253.015,326.766 253.31,326.882 C254.783,327.466 256.329,327.74 257.86,327.719 C260.922,327.677 263.927,326.456 266.183,324.171 L289.805,300.255 C290.213,299.842 290.744,299.619 291.286,299.582 C291.31,299.58 291.333,299.574 291.357,299.573 C291.369,299.573 291.381,299.575 291.393,299.575 C291.807,299.566 292.223,299.664 292.594,299.877 C292.721,299.95 292.843,300.036 292.958,300.136 C293.823,300.889 294.005,302.14 293.392,303.109 L261.315,353.725 C254.578,364.357 251.467,377.142 252.557,389.724 C255.609,424.973 260.898,464.718 283.881,498.427 L176.136,498.427 C184.36,486.231 190.75,472.356 195.528,456.384 C196.681,452.529 194.491,448.468 190.635,447.315 C186.778,446.162 182.718,448.352 181.566,452.208 C175.738,471.69 167.346,487.641 155.909,500.969 C154.056,503.129 153.63,506.171 154.819,508.757 C156.008,511.343 158.593,513 161.439,513 L298.624,513 C301.47,513 304.056,511.343 305.244,508.757 C306.433,506.171 306.007,503.129 304.154,500.97 C276.095,468.264 270.301,425.749 267.072,388.467 C266.257,379.046 268.582,369.477 273.621,361.526 L273.825,361.203 C285.368,368.437 299.272,372.361 313.769,372.361 C343.294,372.361 368.924,356.291 378.044,332.695 C424.432,328.069 460.063,289.151 460.063,241.973 C460.065,207.736 441.087,176.762 411.125,161.109" id="Fill-1" fill="#0A090B"></path>
    </g>
</svg>