<?xml version="1.0" encoding="UTF-8"?>
<svg width="75px" height="49px" viewBox="0 0 75 49" version="1.1" xmlns="http://www.w3.org/2000/svg" xmlns:xlink="http://www.w3.org/1999/xlink">
    <!-- Generator: Sketch 51.2 (57519) - http://www.bohemiancoding.com/sketch -->
    <title>noun_Wood Chipper_2689</title>
    <desc>Created with Sketch.</desc>
    <defs>
        <polygon id="path-1" points="0.06 0 74.816 0 74.816 48.379 0.06 48.379"></polygon>
    </defs>
    <g id="noun_Wood-Chipper_2689" stroke="none" stroke-width="1" fill="none" fill-rule="evenodd">
        <mask id="mask-2" fill="white">
            <use xlink:href="#path-1"></use>
        </mask>
        <g id="Clip-2"></g>
        <path d="M74.816,6.336 L71.035,7.262 L69.023,5.043 L67.805,6.496 C65.73,4.555 62.953,3.367 59.891,3.367 C53.516,3.367 48.348,8.508 48.285,14.863 L48.289,14.863 L48.289,22.027 L50.918,22.027 L50.918,25.336 L54.234,25.336 L54.234,36.422 L59.109,36.422 L59.109,39.77 L51.02,39.77 L55.918,48.379 L52.727,48.379 L47.531,39.77 L40.578,39.77 C40.836,40.461 40.98,41.203 40.98,41.98 C40.98,45.516 38.113,48.379 34.582,48.379 C31.047,48.379 28.184,45.516 28.184,41.98 C28.184,41.203 28.332,40.461 28.586,39.77 L20.281,39.77 L20.281,36.422 L16.754,36.422 L16.754,30.875 L3.223,22.656 L0.781,24.121 L0,22.805 L17.992,11.992 L18.773,13.309 L16.457,14.703 L22.27,27.945 L27.004,30.605 L27.004,20.871 L25.363,20.871 L25.363,19.215 L30.551,19.215 L30.551,20.871 L28.934,20.871 L28.934,30.824 L30.18,30.832 L30.18,25.336 L42.109,25.336 L42.109,22.027 L44.91,22.027 L44.91,14.98 C44.91,14.969 44.91,14.961 44.91,14.949 L44.91,14.867 L44.914,14.867 C44.977,6.645 51.652,0 59.887,0 C63.023,0 65.918,0.977 68.316,2.621 L68.766,1.805 L74.816,6.336 Z M34.57,44.996 C36.238,44.996 37.59,43.648 37.59,41.98 C37.59,40.316 36.238,38.965 34.57,38.965 C32.902,38.965 31.555,40.316 31.555,41.98 C31.551,43.648 32.902,44.996 34.57,44.996 Z M34.57,43.188 C35.238,43.188 35.777,42.648 35.777,41.98 C35.777,41.312 35.238,40.773 34.57,40.773 C33.902,40.773 33.363,41.316 33.363,41.98 C33.363,42.648 33.902,43.188 34.57,43.188 Z" id="Fill-1" fill="#000000" mask="url(#mask-2)"></path>
    </g>
</svg>