<?xml version="1.0" encoding="UTF-8"?>
<svg width="433px" height="512px" viewBox="0 0 433 512" version="1.1" xmlns="http://www.w3.org/2000/svg" xmlns:xlink="http://www.w3.org/1999/xlink">
    <!-- Generator: Sketch 51.2 (57519) - http://www.bohemiancoding.com/sketch -->
    <title>up-arrow</title>
    <desc>Created with Sketch.</desc>
    <defs>
        <polygon id="path-1" points="0 0.001 432.246 0.001 432.246 512 0 512"></polygon>
    </defs>
    <g id="up-arrow" stroke="none" stroke-width="1" fill="none" fill-rule="evenodd">
        <mask id="mask-2" fill="white">
            <use xlink:href="#path-1"></use>
        </mask>
        <g id="Clip-2"></g>
        <path d="M397.227,218.454 L361.387,254.294 C357.973,257.707 356.267,257.707 354.56,254.294 L277.759,175.787 C272.64,170.667 265.812,168.961 258.986,172.374 C252.159,175.787 248.746,180.908 248.746,187.733 L248.746,471.041 C248.746,472.747 245.332,477.868 241.919,477.868 L192.426,477.868 C189.013,477.868 189.013,474.454 189.013,471.041 L189.013,191.148 C189.013,184.321 185.599,177.494 178.773,175.788 C177.066,174.081 173.652,174.081 171.946,174.081 C166.826,174.081 163.412,175.788 160,179.201 L79.786,254.295 C78.08,256.002 72.959,256.002 71.253,254.295 L35.414,218.454 C33.707,216.747 33.707,213.334 35.414,209.921 L211.201,35.841 C212.908,34.134 214.614,34.134 214.614,34.134 L216.321,34.134 C218.028,34.134 219.735,34.134 219.735,35.841 L395.521,211.628 C398.934,213.335 398.934,216.747 397.227,218.454 Z M421.12,186.027 L245.334,11.948 C238.507,5.121 228.267,0.001 218.027,0.001 L216.32,0.001 C206.08,0.001 195.84,3.414 187.307,11.948 L11.52,186.027 C-3.84,201.387 -3.84,226.987 11.52,242.347 L47.36,278.187 C62.72,293.547 90.027,293.547 103.679,278.187 L149.759,232.107 L149.759,471.04 C149.759,493.226 166.826,512 187.306,512 L236.799,512 C258.986,512 277.759,493.227 277.759,471.04 L277.759,230.401 L325.546,279.894 C340.906,295.254 366.506,295.254 381.866,279.894 L417.706,244.054 C436.481,226.988 436.481,203.094 421.12,186.027 Z" id="Fill-1" fill="#0A0B09" mask="url(#mask-2)"></path>
    </g>
</svg>