<?xml version="1.0" encoding="UTF-8"?>
<svg width="513px" height="453px" viewBox="0 0 513 453" version="1.1" xmlns="http://www.w3.org/2000/svg" xmlns:xlink="http://www.w3.org/1999/xlink">
    <!-- Generator: Sketch 51.2 (57519) - http://www.bohemiancoding.com/sketch -->
    <title>warning</title>
    <desc>Created with Sketch.</desc>
    <defs>
        <polygon id="path-1" points="0.06 0.037 512 0.037 512 453 0.06 453"></polygon>
    </defs>
    <g id="warning" stroke="none" stroke-width="1" fill="none" fill-rule="evenodd">
        <g id="Group-3">
            <mask id="mask-2" fill="white">
                <use xlink:href="#path-1"></use>
            </mask>
            <g id="Clip-2"></g>
            <path d="M481.101,419.96 C480.454,421.082 478.915,422.963 475.898,422.963 L36.102,422.963 C33.085,422.963 31.547,421.082 30.9,419.96 C30.253,418.838 29.391,416.565 30.9,413.952 L250.797,33.078 C252.306,30.464 254.704,30.074 255.999,30.074 C257.295,30.074 259.693,30.464 261.202,33.078 L481.1,413.952 C482.61,416.565 481.748,418.838 481.101,419.96 Z M507.113,398.934 L287.215,18.059 C280.7,6.774 269.031,0.037 255.999,0.037 C242.968,0.037 231.299,6.774 224.784,18.059 L4.887,398.934 C-1.629,410.219 -1.629,423.693 4.887,434.978 C11.402,446.263 23.071,453 36.102,453 L475.899,453 C488.93,453 500.599,446.263 507.114,434.978 C513.629,423.693 513.629,410.219 507.113,398.934 Z" id="Fill-1" fill="#0A090B" mask="url(#mask-2)"></path>
        </g>
        <polygon id="Fill-4" fill="#0A090B" points="240.987 296.811 271.024 296.811 271.024 136.613 240.987 136.613"></polygon>
        <path d="M256.005,326.848 C267.065,326.848 276.03,335.813 276.03,346.872 C276.03,357.932 267.065,366.897 256.005,366.897 C244.946,366.897 235.981,357.932 235.981,346.872 C235.981,335.813 244.946,326.848 256.005,326.848" id="Fill-5" fill="#0A090B"></path>
    </g>
</svg>